<svg id="Layer_1" data-name="Layer 1" xmlns="http://www.w3.org/2000/svg" viewBox="0 0 694.22 711.37"><defs><style>.cls-1{fill:#70c2c9;}.cls-1,.cls-15,.cls-19,.cls-2,.cls-20,.cls-21,.cls-22,.cls-24,.cls-25,.cls-27,.cls-29,.cls-3,.cls-30,.cls-32,.cls-33,.cls-34,.cls-35,.cls-36,.cls-37,.cls-38,.cls-39,.cls-41,.cls-42,.cls-44,.cls-45,.cls-47,.cls-48,.cls-49,.cls-5,.cls-50,.cls-51,.cls-54,.cls-55,.cls-56{fill-rule:evenodd;}.cls-2{fill:#a9dce0;}.cls-12,.cls-18,.cls-19,.cls-3,.cls-4{fill:#fff;}.cls-5{fill:#c8416d;}.cls-6{opacity:0.8;}.cls-15,.cls-7{fill:#37a0bd;}.cls-10,.cls-11,.cls-14,.cls-16,.cls-17,.cls-36,.cls-47,.cls-8,.cls-9{fill:none;}.cls-10,.cls-11,.cls-12,.cls-16,.cls-17,.cls-18,.cls-19,.cls-8,.cls-9{stroke:#37a0bd;}.cls-10,.cls-11,.cls-12,.cls-14,.cls-16,.cls-17,.cls-8,.cls-9{stroke-linecap:round;stroke-linejoin:round;}.cls-8{stroke-width:2px;}.cls-10{stroke-dasharray:0.99 2.97;}.cls-11{stroke-dasharray:1 3.01;}.cls-13{fill:#1a2e35;opacity:0.7;}.cls-14{stroke:#fff;}.cls-16{stroke-dasharray:0.98 2.94;}.cls-17{stroke-dasharray:1.01 3.03;}.cls-18,.cls-19,.cls-36,.cls-47{stroke-miterlimit:10;}.cls-18,.cls-19{stroke-width:0.5px;}.cls-20{fill:#73443e;}.cls-21{fill:#6245d1;}.cls-22{fill:#43467b;}.cls-23,.cls-25{fill:#2b2d4f;}.cls-24{fill:#232540;}.cls-26,.cls-29{fill:#444021;}.cls-27,.cls-28{fill:#61d5e8;}.cls-30{fill:#efc04c;}.cls-31,.cls-32{fill:#591d1d;}.cls-33{fill:#d18832;}.cls-34{fill:#969696;}.cls-35{fill:#f2ba95;}.cls-36{stroke:#ee8b83;}.cls-37{fill:#666;}.cls-38,.cls-46{fill:#142b35;}.cls-39{fill:#ee8b83;}.cls-40{fill:#564c85;}.cls-41,.cls-43{fill:#3d365e;}.cls-42{fill:#292540;}.cls-44{fill:#f9d4c8;}.cls-45{fill:#1e3740;}.cls-47{stroke:#142b35;}.cls-48{fill:#4d2d2a;}.cls-49{fill:#2e1b19;}.cls-50{fill:#1d353f;}.cls-51,.cls-52{fill:#0a1f29;}.cls-53{fill:#3e5673;}.cls-54{fill:#30445e;}.cls-55{fill:#29b531;}.cls-56{fill:#36ef42;}.cls-57{fill:#3b464a;}.cls-58{fill:#475459;}.cls-59{font-size:96px;fill:#7b97ba;font-family:BernardMT-Condensed, Bernard MT Condensed;}</style></defs><title>designer2</title><path class="cls-1" d="M347.46,0c186,0,336.83,150.8,336.83,336.83a337.17,337.17,0,0,1-11.35,86.93H22a337.17,337.17,0,0,1-11.35-86.93C10.64,150.8,161.44,0,347.46,0Z"/><path class="cls-2" d="M550.8,265.88a2,2,0,0,1,0,4.07h-8.2V290.3h78.62V270H566a2,2,0,0,1,0-4.07h13.27V243.5a2,2,0,1,1,4.06,0v22.38h63.27a2,2,0,0,1,0,4.07H625.29V290.3h29.18a2,2,0,0,1,0,4.07H643.86v15a2,2,0,1,1-4.06,0v-15H527.68a2,2,0,0,1,0-4.07h10.86V270H518.93a2,2,0,0,1,0-4.07H550.8Zm79.6,48.84a2,2,0,1,1,0,4.06H598.74a2,2,0,1,1,0-4.06Zm37.33-24.42a2,2,0,0,1,0,4.07h-4.18a2,2,0,0,1,0-4.07Z"/><path class="cls-3" d="M599.53,180.57,628.65,189a.72.72,0,0,1,.49.89L620.7,219a.7.7,0,0,1-.88.48l-29.12-8.43a.72.72,0,0,1-.49-.89l8.44-29.12a.71.71,0,0,1,.88-.48Zm28,9.61-27.75-8-8,27.75,27.75,8Z"/><rect class="cls-4" x="597.2" y="179.12" width="4.26" height="4.26" rx="0.68" transform="translate(258.46 706.48) rotate(-73.84)"/><rect class="cls-4" x="626.33" y="187.56" width="4.26" height="4.26" rx="0.68" transform="translate(271.38 740.54) rotate(-73.84)"/><rect class="cls-4" x="588.72" y="208.4" width="4.26" height="4.26" rx="0.68" transform="translate(224.23 719.46) rotate(-73.84)"/><rect class="cls-4" x="617.84" y="216.83" width="4.26" height="4.26" rx="0.68" transform="translate(237.14 753.52) rotate(-73.84)"/><path class="cls-3" d="M618.74,194.53a.45.45,0,0,1,.61.18.44.44,0,0,1-.18.6l-18.56,10.22a.44.44,0,0,1-.6-.17.45.45,0,0,1,.17-.61Z"/><path class="cls-3" d="M619,197.65l-2.31-4.19a.33.33,0,0,1,.13-.43.29.29,0,0,1,.24,0l3.59.73a.32.32,0,0,1,.24.38s0,0,0,0l-1.29,3.44a.32.32,0,0,1-.41.19.29.29,0,0,1-.16-.15Z"/><path class="cls-3" d="M602.71,206.6l-2.31-4.19a.31.31,0,0,0-.58.06l-1.29,3.43a.31.31,0,0,0,.18.4l.06,0,3.6.74a.3.3,0,0,0,.37-.24.32.32,0,0,0,0-.22Z"/><path class="cls-3" d="M615.18,209.09a.45.45,0,0,1-.78.44L611,203.39a.45.45,0,0,1,.17-.61.45.45,0,0,1,.61.18l3.38,6.13Zm-6.84-12.42a.45.45,0,0,1-.18.61.44.44,0,0,1-.6-.18L604.18,191a.45.45,0,0,1,.17-.61.45.45,0,0,1,.61.18Z"/><path class="cls-3" d="M612.05,209.31l4.2-2.31a.31.31,0,0,1,.43.12.29.29,0,0,1,0,.24L616,211a.3.3,0,0,1-.37.24h-.05l-3.45-1.3a.32.32,0,0,1,0-.57Z"/><path class="cls-3" d="M603.11,193.06l4.19-2.31a.31.31,0,0,0,.13-.42.31.31,0,0,0-.19-.15l-3.43-1.3a.32.32,0,0,0-.41.18s0,0,0,.06l-.74,3.6a.32.32,0,0,0,.24.38.34.34,0,0,0,.22,0Z"/><path class="cls-3" d="M320.15,97.36,328.59,93l.67,1.28a1.26,1.26,0,0,1-.53,1.69l-6.22,3.25a1.26,1.26,0,0,1-1.69-.53Z"/><path class="cls-3" d="M310.84,71.59a.23.23,0,0,1,.31.1.22.22,0,0,1-.1.31l-12.31,6.44a.24.24,0,0,1-.32-.1.23.23,0,0,1,.1-.31Z"/><path class="cls-3" d="M315.65,78l5.13,9.82a1.11,1.11,0,0,1,.81,2.06A1.11,1.11,0,0,1,320.37,88l-5.13-9.82-2.17,15.92,7.08,3.27,4.22-2.21,4.22-2.2L330,85.27Z"/><path class="cls-3" d="M313,71a.22.22,0,0,1-.31-.1.23.23,0,0,1,.09-.31l12.32-6.44a.24.24,0,0,1,.31.1.22.22,0,0,1-.1.31Z"/><path class="cls-3" d="M305.16,93.9a.46.46,0,1,1-.82.42,17.37,17.37,0,0,1,6.38-22.89.47.47,0,0,1,.64.16.46.46,0,0,1-.16.63,16.45,16.45,0,0,0-6,21.68Zm7.9-22.65a.47.47,0,0,1-.61-.24.47.47,0,0,1,.24-.61,17.37,17.37,0,0,1,22.44,7.84.46.46,0,1,1-.82.42,16.46,16.46,0,0,0-21.25-7.41Z"/><rect class="cls-4" x="310.82" y="70.22" width="2.16" height="2.16" transform="translate(2.45 152.56) rotate(-27.59)"/><rect class="cls-4" x="303.67" y="93.03" width="2.16" height="2.16" transform="translate(-8.93 151.84) rotate(-27.59)"/><rect class="cls-4" x="333.64" y="77.37" width="2.16" height="2.16" transform="translate(1.73 163.94) rotate(-27.59)"/><path class="cls-3" d="M299.05,79a.91.91,0,0,0,.39-1.23.91.91,0,1,0-1.62.85A.91.91,0,0,0,299.05,79Z"/><path class="cls-3" d="M325.6,65.17a.91.91,0,1,0-1.23-.39A.91.91,0,0,0,325.6,65.17Z"/><path class="cls-2" d="M125.79,309.56a2,2,0,1,1,0,4.06H117.6V334h78.62V313.62H141a2,2,0,1,1,0-4.06h13.27V287.18a2,2,0,1,1,4.06,0v22.38h63.27a2,2,0,1,1,0,4.06H200.28V334h29.18a2,2,0,1,1,0,4.06H218.85v15a2,2,0,0,1-4.06,0V338H102.67a2,2,0,0,1,0-4.06h10.86V313.62H93.92a2,2,0,0,1,0-4.06h31.87ZM205.4,358.4a2,2,0,0,1,0,4.06H173.73a2,2,0,1,1,0-4.06ZM242.72,334a2,2,0,1,1,0,4.06h-4.18a2,2,0,1,1,0-4.06Z"/><path class="cls-3" d="M557,247.87a1.34,1.34,0,0,1,2.68,0v2.73a1.34,1.34,0,1,1-2.68,0v-2.73Zm7.84,5.15a1.34,1.34,0,1,1,0,2.68h-2.74a1.34,1.34,0,0,1,0-2.68Zm-10.26,0a1.34,1.34,0,1,1,0,2.68h-2.73a1.34,1.34,0,0,1,0-2.68Zm2.42,5.1a1.34,1.34,0,0,1,2.68,0v2.74a1.34,1.34,0,1,1-2.68,0Z"/><path class="cls-3" d="M43,280.62a1.34,1.34,0,1,1,2.68,0v2.74a1.34,1.34,0,1,1-2.68,0v-2.74Zm7.83,5.16a1.34,1.34,0,0,1,0,2.68H48.05a1.34,1.34,0,0,1,0-2.68Zm-10.26,0a1.34,1.34,0,0,1,0,2.68H37.79a1.34,1.34,0,0,1,0-2.68Zm2.43,5.1a1.34,1.34,0,0,1,2.68,0v2.74a1.34,1.34,0,1,1-2.68,0Z"/><path class="cls-5" d="M548.31,143.45a12.45,12.45,0,1,0,12.44,12.45A12.45,12.45,0,0,0,548.31,143.45Zm0,22.19A9.74,9.74,0,1,1,558,155.9,9.74,9.74,0,0,1,548.31,165.64Z"/><path class="cls-2" d="M258.72,217.64a2,2,0,0,1,0,4.06h-8.19v20.36h78.62V221.7H273.91a2,2,0,0,1,0-4.06h13.26V195.25a2,2,0,0,1,4.07,0v22.39h63.27a2,2,0,1,1,0,4.06H333.22v20.36H362.4a2,2,0,1,1,0,4.06H351.78v15a2,2,0,1,1-4.06,0v-15H235.6a2,2,0,0,1,0-4.06h10.87V221.7H226.86a2,2,0,0,1,0-4.06h31.86Zm79.61,48.83a2,2,0,0,1,0,4.07H306.66a2,2,0,0,1,0-4.07Zm37.33-24.41a2,2,0,0,1,0,4.06h-4.18a2,2,0,0,1,0-4.06Z"/><g class="cls-6"><path class="cls-7" d="M112.57,123.58H336.64a3.75,3.75,0,0,1,3.75,3.75v10.41a0,0,0,0,1,0,0H108.82a0,0,0,0,1,0,0V127.33A3.75,3.75,0,0,1,112.57,123.58Z"/><rect class="cls-4" x="108.82" y="137.75" width="231.24" height="162.72"/><path class="cls-4" d="M334,130.66a3.55,3.55,0,1,1-3.55-3.54A3.54,3.54,0,0,1,334,130.66Z"/><path class="cls-4" d="M321.55,130.66a3.54,3.54,0,1,1-3.54-3.54A3.53,3.53,0,0,1,321.55,130.66Z"/><path class="cls-4" d="M309.09,130.66a3.54,3.54,0,1,1-3.54-3.54A3.54,3.54,0,0,1,309.09,130.66Z"/><line class="cls-8" x1="333.06" y1="144.72" x2="323.9" y2="144.72"/><line class="cls-8" x1="333.06" y1="148.44" x2="323.9" y2="148.44"/><line class="cls-8" x1="333.06" y1="152.15" x2="323.9" y2="152.15"/><line class="cls-9" x1="271.78" y1="139.58" x2="271.78" y2="140.08"/><line class="cls-10" x1="271.78" y1="143.05" x2="271.78" y2="295.79"/><line class="cls-9" x1="271.78" y1="297.28" x2="271.78" y2="297.78"/><line class="cls-9" x1="111.6" y1="263.98" x2="112.1" y2="263.98"/><line class="cls-11" x1="115.11" y1="263.98" x2="334.51" y2="263.98"/><line class="cls-9" x1="336.02" y1="263.98" x2="336.52" y2="263.98"/><rect class="cls-12" x="270.27" y="262.46" width="3.03" height="3.03"/><rect class="cls-13" x="137.5" y="289.69" width="47.23" height="29.6"/><rect class="cls-7" x="136.66" y="289.61" width="48.91" height="4.66" rx="0.92"/><line class="cls-14" x1="142.32" y1="297.99" x2="154.39" y2="297.99"/><line class="cls-14" x1="148.36" y1="301.35" x2="169.25" y2="301.35"/><line class="cls-14" x1="145.69" y1="304.49" x2="151.84" y2="304.49"/><line class="cls-14" x1="148.36" y1="308.2" x2="162.43" y2="308.2"/><line class="cls-14" x1="142.32" y1="311.57" x2="154.39" y2="311.57"/><line class="cls-8" x1="280.49" y1="274.33" x2="314.57" y2="274.33"/><line class="cls-8" x1="280.49" y1="279.79" x2="314.57" y2="279.79"/><line class="cls-8" x1="280.49" y1="285.36" x2="299.91" y2="285.36"/><path class="cls-7" d="M233.44,287.63H215.49a4.41,4.41,0,0,1-4.41-4.42h0a4.4,4.4,0,0,1,4.41-4.41h17.95a4.41,4.41,0,0,1,4.42,4.41h0A4.42,4.42,0,0,1,233.44,287.63Z"/><path class="cls-7" d="M197.87,287.63H179.93a4.42,4.42,0,0,1-4.42-4.42h0a4.41,4.41,0,0,1,4.42-4.41h17.94a4.41,4.41,0,0,1,4.42,4.41h0A4.42,4.42,0,0,1,197.87,287.63Z"/><path class="cls-7" d="M162.3,287.63H144.36a4.42,4.42,0,0,1-4.42-4.42h0a4.41,4.41,0,0,1,4.42-4.41H162.3a4.41,4.41,0,0,1,4.42,4.41h0A4.42,4.42,0,0,1,162.3,287.63Z"/><path class="cls-7" d="M269,287.63H251.06a4.41,4.41,0,0,1-4.41-4.42h0a4.4,4.4,0,0,1,4.41-4.41H269a4.4,4.4,0,0,1,4.41,4.41h0A4.41,4.41,0,0,1,269,287.63Z"/><rect class="cls-12" x="282.33" y="171.12" width="24.59" height="24.59"/><line class="cls-12" x1="282.33" y1="171.12" x2="306.93" y2="195.72"/><line class="cls-12" x1="306.93" y1="171.12" x2="282.33" y2="195.72"/><rect class="cls-13" x="315.13" y="170.59" width="47.23" height="29.6"/><rect class="cls-7" x="313.88" y="169.58" width="49.73" height="6.51" rx="1.27"/><line class="cls-14" x1="319.95" y1="178.88" x2="332.02" y2="178.88"/><line class="cls-14" x1="325.99" y1="182.25" x2="346.88" y2="182.25"/><line class="cls-14" x1="323.32" y1="185.39" x2="329.47" y2="185.39"/><line class="cls-14" x1="325.99" y1="189.1" x2="340.06" y2="189.1"/><line class="cls-14" x1="319.95" y1="192.46" x2="332.02" y2="192.46"/><polygon class="cls-12" points="295.13 149.99 295.13 158.87 291.21 162.79 282.33 162.79 282.33 149.99 295.13 149.99"/><polygon class="cls-12" points="295.13 158.87 291.21 162.79 291.21 158.87 295.13 158.87"/><polygon class="cls-12" points="113.43 273.39 113.43 282.28 109.51 286.19 100.63 286.19 100.63 273.39 113.43 273.39"/><polygon class="cls-12" points="113.43 282.28 109.51 286.19 109.51 282.28 113.43 282.28"/><path class="cls-15" d="M146,159.68l2,2.11h.68a.31.31,0,0,1,.3.3.3.3,0,0,1-.3.3h-.41v2.74h.41a.3.3,0,0,1,.3.3.31.31,0,0,1-.3.3h-.51l-.49,1.35h.2a.31.31,0,0,1,.3.3.3.3,0,0,1-.3.3h-.33c0,.91,0,3.85.06,7.64v.06c0,1.26.08,2.61.14,4v.06l0,.75c.06,1.07.13,2.14.22,3.22a.19.19,0,0,1,0,.08v0c.24,2.76.6,5.52,1,8.27.61,3.85,1.39,7.67,2.22,11.41a1.24,1.24,0,0,1,.68.35h0a1.28,1.28,0,0,1,.33.58h.09a1.27,1.27,0,0,1,.88.36v0a1.22,1.22,0,0,1,.35.86h0a1.27,1.27,0,0,1-.36.88h0a1.21,1.21,0,0,1-.57.33v1c.06.22.39,1.29.92,2.8a.14.14,0,0,1,0,.06c1.28,3.62,3.71,9.7,6.53,12.67h.81a.29.29,0,0,1,.3.3v1h.38a1.24,1.24,0,0,1,.88.37h0a1.23,1.23,0,0,1,.36.88h0a1.27,1.27,0,0,1-.36.88h0a1.27,1.27,0,0,1-.88.36h-.38v.73c7,13,15.81,19.51,16.72,20.16H163a17.67,17.67,0,0,0-34.53,0h-15c.91-.65,9.74-7.17,16.71-20.16v-.73h-.38a1.27,1.27,0,0,1-.88-.36h0a1.27,1.27,0,0,1-.36-.88h0a1.26,1.26,0,0,1,.36-.88l0,0a1.28,1.28,0,0,1,.86-.35h.38v-1a.3.3,0,0,1,.3-.3h.82c2.81-3,5.24-9.05,6.52-12.67a.14.14,0,0,1,0-.06c.53-1.51.86-2.58.93-2.8v-1a1.29,1.29,0,0,1-.58-.33h0a1.24,1.24,0,0,1-.37-.88h0a1.24,1.24,0,0,1,.37-.88h0a1.24,1.24,0,0,1,.88-.36h.09a1.12,1.12,0,0,1,.33-.58s0,0,0,0a1.26,1.26,0,0,1,.66-.33c.84-3.74,1.61-7.56,2.22-11.41.44-2.75.8-5.51,1-8.27v0a.19.19,0,0,1,0-.08c.09-1.08.17-2.15.22-3.22l0-.75v-.06c.07-1.4.11-2.75.14-4v-.06c.09-3.79.06-6.73.05-7.64h-.32a.29.29,0,0,1-.3-.3.3.3,0,0,1,.3-.3h.19l-.49-1.35h-.5a.3.3,0,0,1-.3-.3.29.29,0,0,1,.3-.3h.41v-2.74h-.41a.29.29,0,0,1-.3-.3.3.3,0,0,1,.3-.3h.67l2-2.11v-3.5a.3.3,0,0,1,.3-.3.31.31,0,0,1,.3.3v3.5Zm14.95,65.26H129.75a.64.64,0,0,0-.45,1.1.62.62,0,0,0,.45.19h31.87a.65.65,0,0,0,0-1.29Zm-13.5-14.16h-3.5a63.56,63.56,0,0,1-2.46,12.3h8.41a62.48,62.48,0,0,1-2.45-12.3Zm-8.88-5.86Zm13.44-.19H139a.69.69,0,0,0-.46.19c-.48.72.1,1.1.46,1.1h13.34a.65.65,0,0,0,0-1.29Zm-7.66-37.65H147l.49-1.35h-3.67l.49,1.35Zm.37,36.11h1.95c-.18-.82-.64-2.94-1-5.33C145.35,200.25,144.9,202.37,144.71,203.19Z"/><rect class="cls-9" x="282.33" y="207.67" width="31.98" height="19.93"/><rect class="cls-9" x="306.51" y="219.8" width="15.61" height="15.61"/><circle class="cls-7" cx="284.98" cy="244.34" r="2.28"/><circle class="cls-7" cx="291.35" cy="244.34" r="2.28"/><circle class="cls-7" cx="297.72" cy="244.34" r="2.28"/><circle class="cls-7" cx="284.98" cy="249.95" r="2.28"/><circle class="cls-7" cx="291.35" cy="249.95" r="2.28"/><circle class="cls-7" cx="284.98" cy="255.55" r="2.28"/><circle class="cls-7" cx="325.79" cy="255.55" r="2.28"/><circle class="cls-7" cx="319.42" cy="255.55" r="2.28"/><circle class="cls-7" cx="313.05" cy="255.55" r="2.28"/><circle class="cls-7" cx="325.79" cy="249.95" r="2.28"/><circle class="cls-7" cx="319.42" cy="249.95" r="2.28"/><circle class="cls-7" cx="325.79" cy="244.34" r="2.28"/><polyline class="cls-9" points="188.48 207.38 188.48 206.88 188.98 206.88"/><line class="cls-16" x1="191.92" y1="206.87" x2="253.15" y2="206.87"/><polyline class="cls-9" points="254.62 206.88 255.12 206.88 255.12 207.38"/><line class="cls-17" x1="255.12" y1="210.4" x2="255.12" y2="249.28"/><polyline class="cls-9" points="255.12 250.8 255.12 251.3 254.62 251.3"/><line class="cls-16" x1="251.68" y1="251.3" x2="190.45" y2="251.3"/><polyline class="cls-9" points="188.98 251.3 188.48 251.3 188.48 250.8"/><line class="cls-17" x1="188.48" y1="247.77" x2="188.48" y2="208.89"/><circle class="cls-7" cx="221.8" cy="206.87" r="1.1"/><circle class="cls-7" cx="188.48" cy="229.09" r="1.1"/><circle class="cls-7" cx="221.8" cy="251.3" r="1.1"/><circle class="cls-7" cx="255.12" cy="229.09" r="1.1"/><rect class="cls-7" x="253.84" y="250.02" width="2.55" height="2.55"/><rect class="cls-7" x="253.84" y="205.6" width="2.55" height="2.55"/><rect class="cls-7" x="187.2" y="250.02" width="2.55" height="2.55"/><rect class="cls-7" x="187.2" y="205.6" width="2.55" height="2.55"/><rect class="cls-18" x="192.9" y="210.8" width="58" height="36.85"/><polygon class="cls-7" points="250.9 236.77 244.45 243.22 227.01 225.77 219.67 233.11 207.97 221.41 192.9 236.48 192.9 247.65 250.9 247.65 250.9 236.77"/><circle class="cls-7" cx="238.88" cy="221.26" r="4.09"/><path class="cls-19" d="M233.9,154.55v3.14a1.5,1.5,0,0,1,.83.42,1.4,1.4,0,0,1,.41.82h7a14.3,14.3,0,0,1,0,28.6h-.81a1.5,1.5,0,0,1-1.24,1.24v3.82a1.12,1.12,0,0,1-.32.77h0a1.08,1.08,0,0,1-.77.32h-9.36a1.08,1.08,0,0,1-.77-.32h0a1.1,1.1,0,0,1-.32-.77v-3.82a1.5,1.5,0,0,1-1.24-1.24h-6.9a1.47,1.47,0,0,1-.42.82,1.44,1.44,0,0,1-.82.42v3.14a3.53,3.53,0,0,1-3.52,3.52H192.16a3.55,3.55,0,0,1-2.49-1,3.51,3.51,0,0,1-1-2.49v-9.2a3.53,3.53,0,0,1,3.52-3.53H215.6a3.55,3.55,0,0,1,3.52,3.53v3.13a1.44,1.44,0,0,1,.82.42,1.47,1.47,0,0,1,.42.82h6.9a1.5,1.5,0,0,1,1.24-1.24V182a1.12,1.12,0,0,1,.32-.77,1.08,1.08,0,0,1,.77-.32H239a1.08,1.08,0,0,1,.77.32h0a1.11,1.11,0,0,1,.31.76v3.82a1.5,1.5,0,0,1,1.24,1.24h.81a13.85,13.85,0,0,0,0-27.7h-7a1.4,1.4,0,0,1-.41.82,1.5,1.5,0,0,1-.83.42v3.13a3.52,3.52,0,0,1-3.52,3.53H207a3.53,3.53,0,0,1-3.53-3.53v-9.2A3.53,3.53,0,0,1,207,151h23.43a3.52,3.52,0,0,1,3.52,3.52Zm-15.22,35.69a3.71,3.71,0,0,1-.6.77,3.49,3.49,0,0,1-2.48,1H192.16a3.52,3.52,0,0,1-2.49-1,3.66,3.66,0,0,1-.59-.77v1.67a3.11,3.11,0,0,0,3.08,3.08H215.6a3.11,3.11,0,0,0,3.08-3.08v-1.67Zm-29.6-1.72a3.09,3.09,0,0,0,3.08,3.08H215.6a3.06,3.06,0,0,0,2.17-.9,3,3,0,0,0,.89-1.93,1.49,1.49,0,0,1-.81-2.51,1.5,1.5,0,0,1,.83-.42v-3.13a3.09,3.09,0,0,0-3.08-3.08H192.16a3.09,3.09,0,0,0-3.08,3.08v5.81Zm41.13-1.21a1.48,1.48,0,0,1-.44,1,1.52,1.52,0,0,1-.71.4l.08.09h0a.6.6,0,0,0,.45.19H239a.6.6,0,0,0,.45-.19h0l.08-.09a1.52,1.52,0,0,1-.71-.4,1.48,1.48,0,0,1,.82-2.51V182a.67.67,0,0,0-.18-.45h0a.63.63,0,0,0-.45-.18h-9.36a.67.67,0,0,0-.45.18.64.64,0,0,0-.19.46v3.82a1.44,1.44,0,0,1,.82.42,1.48,1.48,0,0,1,.44,1.05Zm-38.77-28.15a1.48,1.48,0,0,0-2.53-1,1.48,1.48,0,0,0,0,2.09,1.47,1.47,0,0,0,2.1,0,1.47,1.47,0,0,0,.43-1Zm4.92,0a1.48,1.48,0,0,0-.44-1,1.46,1.46,0,0,0-1-.44,1.49,1.49,0,0,0-1.48,1.49,1.47,1.47,0,0,0,.43,1,1.48,1.48,0,0,0,1,.44,1.46,1.46,0,0,0,1-.44,1.48,1.48,0,0,0,.44-1Zm4.91,0a1.52,1.52,0,0,0-.43-1,1.47,1.47,0,0,0-2.1,0,1.52,1.52,0,0,0-.43,1,1.47,1.47,0,0,0,.43,1,1.47,1.47,0,0,0,2.1,0,1.47,1.47,0,0,0,.43-1Zm32.19,1.46a1.48,1.48,0,0,1,0-2.93v-3.14a3.11,3.11,0,0,0-3.08-3.08H207a3.09,3.09,0,0,0-3.08,3.08v9.2a3.07,3.07,0,0,0,3.08,3.08h23.43a3.09,3.09,0,0,0,3.08-3.08v-3.13ZM229,189.26v3.33a.64.64,0,0,0,.19.46h0a.64.64,0,0,0,.45.19H239a.64.64,0,0,0,.45-.19h0a.64.64,0,0,0,.19-.46v-3.33a1,1,0,0,1-.64.21h-9.36A1,1,0,0,1,229,189.26Z"/></g><path class="cls-20" d="M347.11,423.76,340,196.86a20.05,20.05,0,0,1,20.31-20.05L512,178.74a19.64,19.64,0,0,1,19.28,21.68L507.84,423.76Z"/><path class="cls-21" d="M76.46,416.67c.06.52.14,1,.23,1.49s.34.55.61.39a.66.66,0,0,0,.23-.26h0c.24-.41.47-.86.69-1.33Z"/><path class="cls-22" d="M75.35,411.18a30.7,30.7,0,0,0,.77,5.72l2.35.38A29.68,29.68,0,0,0,81,412.1l-2.74-1Z"/><rect class="cls-23" x="82.12" y="372.95" width="3.06" height="10.17" transform="translate(-302.91 399.88) rotate(-80.76)"/><path class="cls-22" d="M77.87,377.6c-.67,4.75-1.26,9.52-1.73,14.3-.5,5.17-.9,10.44-.88,15.63,0,1.1,0,2.36.09,3.65l5.66.92c.48-1.2.9-2.39,1.25-3.43,1.66-4.92,2.95-10.05,4.11-15.1,1.07-4.68,2-9.4,2.9-14.12a.31.31,0,0,0-.06-.24.27.27,0,0,0-.2-.12l-10.78-1.76a.32.32,0,0,0-.23.06A.33.33,0,0,0,77.87,377.6Z"/><path class="cls-24" d="M75.39,395.05c-.36,4.15-.6,8.32-.59,12.48,0,.81,0,1.62,0,2.43a.47.47,0,0,0,.39.44l6.15,1a.48.48,0,0,0,.51-.29c.28-.77.55-1.53.81-2.3,1.33-3.94,2.41-8,3.39-12a.43.43,0,0,0-.07-.36.44.44,0,0,0-.31-.2l-9.79-1.59a.44.44,0,0,0-.35.09A.42.42,0,0,0,75.39,395.05Z"/><path class="cls-22" d="M83.48,346.64c-1,3.66-1.7,7.61-2.4,11.33q-1.69,9.09-3,18.25a.31.31,0,0,0,.26.35l10.83,1.77a.32.32,0,0,0,.36-.26q1.65-9.09,2.93-18.26c.52-3.75,1.09-7.72,1.32-11.5C94.62,334.06,87.17,332.93,83.48,346.64Z"/><path class="cls-25" d="M93.74,343.87c-.7-8.56-5.45-9.3-8.82-1.44Z"/><path class="cls-24" d="M93.78,344.46a19.65,19.65,0,0,0-.31-2.67l-7.63-1.24A20.38,20.38,0,0,0,84.69,343Z"/><path class="cls-24" d="M90.87,339.48l-1.84-.3a.34.34,0,0,0-.38.28l-3.78,23.22a1.27,1.27,0,0,0,1,1.45h0a1.28,1.28,0,0,0,1.46-1l3.78-23.23A.34.34,0,0,0,90.87,339.48Z"/><rect class="cls-26" x="68.39" y="340.01" width="4.24" height="7.23" rx="0.55"/><path class="cls-21" d="M70.43,418.69h0s-.43-.37-.43-1.57c0-.55,1-2.36,1,0,0,1.22-.43,1.57-.43,1.57A.11.11,0,0,1,70.43,418.69Z"/><path class="cls-27" d="M67.53,405.14V407c0,1.53,1.2,5.49,2.19,10.11,0,0,.06.33.35.33H71c.29,0,.35-.33.35-.33,1-4.62,2.19-8.58,2.19-10.11v-1.83l-3-2.42Z"/><rect class="cls-28" x="67.53" y="335.93" width="5.97" height="7.23" rx="0.78"/><rect class="cls-28" x="67.53" y="344.69" width="5.97" height="61.23" rx="0.78"/><path class="cls-29" d="M71.45,345.47H69.58a.33.33,0,0,0-.33.33v23.53a1.27,1.27,0,0,0,1.27,1.27h0a1.27,1.27,0,0,0,1.26-1.27V345.8A.33.33,0,0,0,71.45,345.47Z"/><path class="cls-4" d="M67.45,386.93h6.14A1.08,1.08,0,0,1,74.67,388v15.56a1.09,1.09,0,0,1-1.09,1.09H67.45a1.08,1.08,0,0,1-1.08-1.08V388a1.09,1.09,0,0,1,1.09-1.09Z"/><rect class="cls-26" x="50.63" y="337.99" width="4.64" height="7.99" rx="0.61" transform="translate(-65.3 16.76) rotate(-11.18)"/><path class="cls-29" d="M67.62,416.58h0s-.52-.3-.76-1.54c-.11-.57.57-2.64,1.06-.21.25,1.26-.12,1.71-.12,1.71A.13.13,0,0,1,67.62,416.58Z"/><path class="cls-30" d="M55.35,342.16l-4.55.9a.83.83,0,0,0-.65,1l11.7,59.14a.83.83,0,0,0,1,.65l4.56-.9a.83.83,0,0,0,.64-1l-11.7-59.14A.83.83,0,0,0,55.35,342.16Z"/><path class="cls-30" d="M61.85,403.17s.07.31.38,1.89,2.36,5.43,4.33,10c0,0,.13.33.43.27l.46-.09.46-.09c.3-.06.29-.41.29-.41.08-5,.51-9.32.2-10.9S68,402,68,402l-3.58-1.9Z"/><rect class="cls-4" x="50.53" y="342.48" width="7.73" height="13.64" rx="1.01" transform="translate(-66.78 17.21) rotate(-11.19)"/><path class="cls-29" d="M55.11,348.08l-1.83.37a.32.32,0,0,0-.26.39l4.56,23.08a1.27,1.27,0,0,0,1.49,1h0a1.27,1.27,0,0,0,1-1.48L55.5,348.35A.34.34,0,0,0,55.11,348.08Z"/><rect class="cls-31" x="50.87" y="349.51" width="7.73" height="3" transform="translate(-67.03 17.28) rotate(-11.18)"/><path class="cls-32" d="M55.62,348l-2.86.57a.51.51,0,0,0-.4.61l1.49,7.53a2,2,0,0,0,2.32,1.55h0a2,2,0,0,0,1.55-2.32l-1.49-7.53A.52.52,0,0,0,55.62,348Z"/><path class="cls-33" d="M93.79,368.85a.89.89,0,1,0-1.77-.19l-5.08,47.61v0h0s-.3,3.38-3.06,3.38H62.31c-2.76,0-3.05-3.37-3.05-3.38s0-.05,0-.08l-5.07-47.55a.89.89,0,1,0-1.77.19l5.07,47.55v0s.44,5,4.83,5H83.88c4.39,0,4.83-5,4.83-5h0Z"/><path class="cls-33" d="M89.3,367h-.47l-.49.49-.49-.49H86.16l1.34,1.34-4.24,4.23L79,368.36,80.38,367H78.7l-.52.52-.53-.52H76l1.38,1.38-4.24,4.23-4.24-4.23L70.23,367H68.54l-.53.52-.52-.52H65.81l1.36,1.36-4.24,4.23-4.24-4.23L60,367H58.34l-.49.49-.49-.49h-.47l-.82.39.94.94-3.4,3.39.16,1.53,4.08-4.08,4.24,4.24-4.24,4.24-4-4,.2,1.89,3,3-2.42,2.42.16,1.52,3.1-3.1,4.24,4.24-4.24,4.24L55,385l.21,1.89L57,388.69l-1.44,1.43.16,1.53,2.12-2.12,4.24,4.24L57.85,398l-1.61-1.62.2,1.89.57.57-.46.46.16,1.52,1.14-1.14,4.24,4.24-4.24,4.24-.4-.4.24,2.25.16-.16,4.24,4.24-3.46,3.46a5.85,5.85,0,0,0,.52,1.17l3.78-3.79,4.24,4.24-1.38,1.38h1.68L68,420l.54.54h1.69l-1.38-1.38,4.24-4.24,4.24,4.24L76,420.56h1.69l.54-.54.54.54h1.69L79,419.18l4.24-4.24,3.79,3.79a5.78,5.78,0,0,0,.51-1.17l-3.45-3.46,4.23-4.24.16.16.24-2.25-.4.4-4.23-4.24,4.23-4.24,1.14,1.14.16-1.52-.45-.46.56-.57.2-1.89L88.34,398l-4.23-4.24,4.23-4.24,2.12,2.12.16-1.53-1.43-1.43L91,386.91l.2-1.89-2.83,2.82-4.23-4.24,4.23-4.24,3.1,3.1.16-1.52-2.41-2.42,3-3,.2-1.89-4,4-4.23-4.24,4.23-4.24,4.08,4.08.16-1.53-3.39-3.39.93-.94L89.3,367Zm-11.12,51.3-4.24-4.23,4.24-4.24,4.24,4.24-4.24,4.23Zm5.08-5.08L79,409l4.24-4.23L87.5,409l-4.24,4.24Zm4.24-34.73-4.24,4.24L79,378.52l4.24-4.24,4.24,4.24Zm-5.08-5.08-4.24,4.24-4.24-4.24,4.24-4.24,4.24,4.24ZM68,418.33l-4.23-4.23L68,409.86l4.24,4.24L68,418.33Zm5.09-5.08L68.86,409l4.24-4.23L77.34,409l-4.24,4.24Zm5.08-5.08-4.24-4.24,4.24-4.24,4.24,4.24-4.24,4.24Zm5.08-5.08L79,398.85l4.24-4.24,4.24,4.24-4.24,4.24Zm4.24-14.4-4.24,4.23L79,388.69l4.24-4.24,4.24,4.24Zm-5.08-5.09-4.24,4.24-4.24-4.24,4.24-4.24,4.24,4.24Zm-5.08-5.08-4.24,4.24-4.24-4.24,4.24-4.24,4.24,4.24Zm-5.09-5.08L68,377.68l-4.23-4.24L68,369.2l4.24,4.24Zm-9.32,39.81L58.69,409l4.24-4.23L67.17,409l-4.24,4.24ZM68,408.17l-4.23-4.24L68,399.69l4.24,4.24L68,408.17Zm5.09-5.08-4.24-4.24,4.24-4.24,4.24,4.24-4.24,4.24ZM78.18,398l-4.24-4.24,4.24-4.24,4.24,4.24L78.18,398Zm-.84-9.32-4.24,4.23-4.24-4.23,4.24-4.24,4.24,4.24Zm-5.09-5.09L68,387.84l-4.23-4.24L68,379.36l4.24,4.24Zm-5.08-5.08-4.24,4.24-4.24-4.24,4.24-4.24,4.24,4.24Zm-4.24,24.57-4.24-4.24,4.24-4.24,4.24,4.24-4.24,4.24ZM68,398l-4.23-4.24L68,389.53l4.24,4.24L68,398Zm-5.08-5.09-4.24-4.23,4.24-4.24,4.24,4.24Z"/><path class="cls-33" d="M93.26,365.24H52.93A1.76,1.76,0,0,0,51.17,367h0a1.76,1.76,0,0,0,1.76,1.76H93.26A1.76,1.76,0,0,0,95,367h0A1.76,1.76,0,0,0,93.26,365.24Z"/><path class="cls-34" d="M460.09,200.88c12.29,3,38.61,6.35,57.51,16.94,0,0-15.06,42.76-5.2,81.49L500.73,365.5a4,4,0,0,1,.72,5.39s8.67,34.3,9.25,37.48-3.51,13.37-3.51,13.37a17.46,17.46,0,0,0-10.43.51H354.39c-5.7-2.05-9-3.5-9-3.5s-5.51-7.2-4.93-10.38,9.25-37.48,9.25-37.48a4,4,0,0,1,.72-5.39l-11.67-66.19c14.74-31.68,3.49-82.85,3.48-82.89,17.6-7.37,38.33-13,48.82-15.54h69Z"/><path class="cls-35" d="M423,231.88c-31.32,0-36-30-36-30l0-.08c1.29-.27,2.5-.53,3.6-.79l.1,0c9-2.82,11.66-6.38,11.66-15.19V168.65a54.15,54.15,0,0,1,46.56,0v17c0,7.14,2.56,13.28,11.24,15.22h0c1.24.31,2.63.61,4.13.92l0,.08S454.3,231.88,423,231.88Z"/><path class="cls-36" d="M429.9,215s30.53-5.69,36.17-5.65"/><path class="cls-36" d="M384,206.24s28.83,3.21,31.2,6.76"/><path class="cls-37" d="M381,212.42a.89.89,0,1,1,1.69-.56c0,.1,8.44,24.22,32.07,30.71,10.39,2.85,22.92.12,30-3.82,9-5,14.34-10.51,18.58-19.6.21-.45.84,7.57,1.28,7.77s.54-7.47.34-7c-4.38,9.38-10,15.18-19.33,20.4-7.43,4.16-20.41,7-31.3,4C389.69,237.54,381,212.52,381,212.42Z"/><path class="cls-38" d="M312,401.81a8.06,8.06,0,0,1-5.54-4c-1.81-3.46,5.67-12.83,5.67-12.83s5.27,3.54,5.51,4.72S314.44,401.18,312,401.81Z"/><path class="cls-35" d="M288.2,364.07a7.05,7.05,0,0,1-5.07,2.13c-3.43.12-18.25.65-20.68,1s-9.56,4.2-3.89,14.24c-4.19,2-6.3,8.52-3.07,12,1.15,1.25,3.07,2.36,6.05,4,0,0,0,8.5,3.51,10.74s7.56,4.49,12.23,4.49h23.49c1.29,0,3.6-1.84,4.48-3.8s.12-6.62.12-6.62,4.85-4.25,6.26-10,1.42-15.71,1.42-15.71S306.2,365.53,288.2,364.07Z"/><path class="cls-35" d="M258.56,381.44l23.9,10.47c2,.87,2.83-1.87,2.83-3.65s-.12-5.9-6.44-10.33-6.91-4.67-6.91-4.67a5,5,0,0,0-2.3-3.72C267.57,368.48,259.36,371.84,258.56,381.44Z"/><path class="cls-39" d="M272.57,374.69a.66.66,0,0,1-.2-.14,8.46,8.46,0,0,0-.76-.46c-2.25-3-1.56-5.34-1.56-5.34.8,1.66,1.63,2.68,2.41,2.91l.35-1.84a.89.89,0,0,1,1.75.32l-.62,3.33c1,.69,2.72,1.84,5.42,3.73a16.4,16.4,0,0,1,5.89,6.53,10.36,10.36,0,0,1,.94,4.53,7.44,7.44,0,0,1-.56,2.8,4.53,4.53,0,0,1-.61,1c1.42.62,2.87,1.24,4.45,1.88l0,0a18.92,18.92,0,0,1-1.48-2.33.9.9,0,0,1,.4-1.2.88.88,0,0,1,1.19.39,20.69,20.69,0,0,0,15.83,10.56.89.89,0,1,1-.17,1.77A21.64,21.64,0,0,1,293,397.74a5.5,5.5,0,0,1,.08,1.93h0a5.18,5.18,0,0,1-.76,2.11,3,3,0,0,1-1,1,11.18,11.18,0,0,1,5.12,1.92,7.39,7.39,0,0,1,2.88,4.08h0a5.51,5.51,0,0,1,.15,1.22,3.75,3.75,0,0,1-.56,2.05,3.18,3.18,0,0,1-2,1.39,5.26,5.26,0,0,1-1.18.13.89.89,0,0,1,0-1.78,3.28,3.28,0,0,0,.76-.08,1.49,1.49,0,0,0,.92-.61,2,2,0,0,0,.27-1.1,3.44,3.44,0,0,0-.09-.8h0a5.55,5.55,0,0,0-2.19-3.06,9.5,9.5,0,0,0-4.42-1.62c-5-.67-7.73-1.17-8.08-1.23l-7.8-.32h0a11.75,11.75,0,0,1-4.08-.74l-9.78-4a.89.89,0,0,1,.66-1.66s8.11,3.27,9.79,4a10.22,10.22,0,0,0,3.41.61h0l7.85.32h0c.65,0,6.16-.2,7.45-.28.05,0,.17-.16.32-.4a3.61,3.61,0,0,0,.5-1.4h0a3.5,3.5,0,0,0-.17-1.71,3.83,3.83,0,0,0-2.3-2.12c-2-.81-3.92-1.65-5.87-2.5l-.8-.35h0L258.2,382.25a.89.89,0,0,1,.71-1.63l23.91,10.47h0a.87.87,0,0,0,.35.08.54.54,0,0,0,.37-.16,1.86,1.86,0,0,0,.44-.68,5.39,5.39,0,0,0,.41-2.08,8.75,8.75,0,0,0-.77-3.8,14.65,14.65,0,0,0-5.29-5.8C275.15,376.42,273.46,375.27,272.57,374.69Z"/><path class="cls-40" d="M291.36,408h1a0,0,0,0,1,0,0v4a.51.51,0,0,1-.51.51h0a.51.51,0,0,1-.51-.51v-4a0,0,0,0,1,0,0Z" transform="translate(-95.98 89.2) rotate(-14.95)"/><polygon class="cls-41" points="291.05 410.5 286.98 404.33 290.07 403.51 293.15 402.68 292.7 410.06 291.05 410.5"/><path class="cls-40" d="M289.28,387.51H291a.62.62,0,0,1,.62.62v10.24a.62.62,0,0,1-.62.62h-1.76a0,0,0,0,1,0,0V387.51a0,0,0,0,1,0,0Z" transform="matrix(0.97, -0.26, 0.26, 0.97, -91.63, 88.26)"/><path class="cls-42" d="M292.45,404.17l-4.22,1.12c-.77.21-1.6-.44-1.87-1.45l-18.93-73.08a.65.65,0,0,1,.34-.84l5.93-1.59a.67.67,0,0,1,.72.56L293.35,402A1.72,1.72,0,0,1,292.45,404.17Z"/><path class="cls-43" d="M268.29,326.65h4.24a1.13,1.13,0,0,1,1.13,1.13v1.39a0,0,0,0,1,0,0h-6.49a0,0,0,0,1,0,0v-1.39a1.13,1.13,0,0,1,1.13-1.13Z" transform="matrix(0.97, -0.26, 0.26, 0.97, -75.45, 80.87)"/><path class="cls-35" d="M293.14,371.28l-1.65,5-1,.45a22.28,22.28,0,0,0-4.43-1.24,1.46,1.46,0,0,0-1.36,1.86,4.52,4.52,0,0,0-1.06,3.63c.38,2.09,2.92,6.85,6.82,7.91a9.74,9.74,0,0,0,7.12-.94,13,13,0,0,0,7.32.59C312.66,386.56,302.81,372.08,293.14,371.28Z"/><path class="cls-44" d="M290.51,376.75a22.28,22.28,0,0,0-4.43-1.24,1.46,1.46,0,0,0-1.36,1.86s.47-.89,2.16.08,2.77,2.87,3.48,3.52a3.39,3.39,0,0,0,3,.82A5.76,5.76,0,0,0,290.51,376.75Z"/><path class="cls-45" d="M342.23,216.42a19.81,19.81,0,0,0-3.48,7.38c-2,8.92-3.86,22-8.06,38.4C324.45,286.51,302,328.4,302,328.4a5.66,5.66,0,0,0-2.67,6s-7.2,8-10.81,11.1-2.53,9.09-.65,11.69a34.63,34.63,0,0,0-4.13,3.84c-1.36,1.65-.11,5.11-.11,5.11s9.62-1.57,20.84,7.88S312,401.81,312,401.81s3.78,1.12,5.85-1.24,11.45-16,11.45-16,10.1,1,12.47-5.25,8.15-15,10-36.11c0,0,4.09-23.14,4.34-28.85C360.1,292.72,350.21,233.05,342.23,216.42Z"/><path class="cls-39" d="M282.79,381.16a.89.89,0,1,1,1.75-.32,8.78,8.78,0,0,0,1.23,3.15,9.63,9.63,0,0,0,3.82,3.49,7.8,7.8,0,0,0,4.91.76,7.62,7.62,0,0,0,2.63-1l.08,0c.29-.17,1.9-1.11,2.16-2a.89.89,0,0,1,1.71.49,4.54,4.54,0,0,1-1.48,2,11.11,11.11,0,0,0,5.1.05.87.87,0,0,1,1.08.64.89.89,0,0,1-.64,1.08,13.6,13.6,0,0,1-7.45-.47,9.21,9.21,0,0,1-2.87,1,9.56,9.56,0,0,1-6-.91,11.44,11.44,0,0,1-4.53-4.15,10.56,10.56,0,0,1-1.47-3.77Zm9.93-5.76a7.82,7.82,0,0,1,3.36,1.31.89.89,0,0,1,.25,1.23.9.9,0,0,1-1.23.26,4.75,4.75,0,0,0-3.38-1,.9.9,0,0,1-1.08-1.14l1.65-5a.89.89,0,0,1,1.13-.56.89.89,0,0,1,.57,1.12Z"/><path class="cls-38" d="M351.32,339.29s.27,8.56,0,11.86c-1.12,13.74-6.83,23.32-8.77,28.47-2.26,6-10.65,6-12.85,5.87-1.59,2.3-9.34,13.51-11.23,15.67h0a.91.91,0,0,1-1.26.08.89.89,0,0,1-.08-1.26c1.85-2.11,9.8-13.62,11.19-15.62-5.41-34.26-40.12-26.29-40.22-26.27a.89.89,0,0,1-1.06-.68.9.9,0,0,1,.69-1.06c.1,0,36.4-8.36,42.29,27.37,2.19.09,9.08,0,10.86-4.73A68.59,68.59,0,0,0,351.32,339.29Z"/><path class="cls-38" d="M299.74,335.24a50.92,50.92,0,0,1,16-3.61,43.58,43.58,0,0,1,12.4.94A36.71,36.71,0,0,1,339,337a.89.89,0,1,0,.92-1.52,38.06,38.06,0,0,0-11.37-4.59,45.38,45.38,0,0,0-12.9-1A53,53,0,0,0,299,333.61a.89.89,0,0,0,.73,1.63Z"/><path class="cls-38" d="M302.49,329.17a40.45,40.45,0,0,1,24.8-4,.89.89,0,0,0,.27-1.76,42.48,42.48,0,0,0-26,4.25.89.89,0,1,0,.9,1.54Z"/><path class="cls-45" d="M389.25,422.25H354.39c-5.7-2.05-9-3.5-9-3.5s-5.51-7.2-4.93-10.38,9.25-37.48,9.25-37.48a4,4,0,0,1,.72-5.39s.13-54.85-5-71.94-3.16-77.1-3.17-77.14c15.52-6.5,34-14,45.21-16.39l5.62,104.26s2.05,15.39.48,25.47C392.66,335.36,392.36,380.54,389.25,422.25Z"/><path class="cls-46" d="M350.42,365.5c-.23-5.34-.39-10.68-.67-16s-.49-10.66-.79-16c-.63-10.65-1.3-21.32-2.86-31.81l-.69-3.9c-.26-1.28-.61-2.54-.91-3.81a57.42,57.42,0,0,1-1.58-8c-.66-5.35-1-10.7-1.22-16.05-.42-10.7-.26-21.4.17-32.08.35,10.68.71,21.36,1.39,32,.37,5.31.78,10.63,1.54,15.87a59.33,59.33,0,0,0,1.57,7.7c.32,1.33.7,2.65,1,4l.73,4a282.78,282.78,0,0,1,2.43,32.05C350.84,344.12,350.78,354.81,350.42,365.5Z"/><path class="cls-45" d="M517.6,217.82c29,9.79,10.93,54.95,35.61,93.58,7.6,15.89-66.74,4.73-66.74,4.73S498.49,224.7,517.6,217.82Z"/><path class="cls-45" d="M464.22,201.8c13.39,2.81,36.38,6.5,53.38,16,0,0-15.06,42.76-5.2,81.49L500.73,365.5a4,4,0,0,1,.72,5.39s8.67,34.3,9.25,37.48c.52,2.85-2.7,11.29-3.38,13.05l-1.21.06a18,18,0,0,0-7.64.25c-18.78.45-53.72.52-55.2.52h0s1.58-66.87,2.84-96.47S464.22,201.8,464.22,201.8Z"/><path class="cls-47" d="M515.43,225s-2.56,62.81,0,65.3"/><path class="cls-39" d="M402.29,185.59V168.65a54.15,54.15,0,0,1,46.56,0v17c0,3.79.72,3.6,2.69,6.34-3.56,4.65-13.12,8.85-15.84,9.8-3.67,1.29-5,2.07-9.21,1.41a25.83,25.83,0,0,1-11.43-4.47C412.22,196.62,406.73,190.62,402.29,185.59Z"/><path class="cls-48" d="M485.71,125.92s-4.67,43-13.95,47.64c3.23-11,0-37.29,0-37.29Z"/><path class="cls-35" d="M473.81,140.1s4.59-4.15,7.44-3.65,5.88,6.93,5.1,11.54-7.56,20.25-16.47,13.34S473.81,140.1,473.81,140.1Z"/><path class="cls-39" d="M469.79,145a1,1,0,0,0-.31,1.19.57.57,0,0,0,.85.23h0s1.36,14.48,3.66,12.43,4.7-4,5.89-7.55-1.74-7.13-.5-8,2.25.7,2.35.84h0a9.45,9.45,0,0,1,1.14,2.78.58.58,0,0,0,.87.42,1.08,1.08,0,0,0,.53-1.13s-1.18-5.57-5.17-5.73C475.29,140.37,469.8,145,469.79,145Z"/><path class="cls-48" d="M387.36,164.91s3.8,10.56,7.5,13.35a31.29,31.29,0,0,1,0-13.35Z"/><path class="cls-48" d="M377.23,133.94s10.88,32.66,6.77,38.83c7.11-6.64,10.06-23.61,10.06-23.61l7.13-35.49Z"/><path class="cls-48" d="M413,46.76s-25.68,0-45.77,43c-6.57,15.87-4.42,44.19,7.47,53.86C386.4,153.1,413,46.76,413,46.76Z"/><path class="cls-35" d="M387.67,133.24s-3.88-4.83-6.76-4.78-6.91,5.92-6.86,10.59,4.27,21.19,14.15,15.77S387.67,133.24,387.67,133.24Z"/><path class="cls-39" d="M390.87,138.71a1,1,0,0,1,.12,1.23.57.57,0,0,1-.88.08h0s-3.62,14.09-5.57,11.7-4-4.69-4.63-8.38,2.85-6.77,1.76-7.8-2.34.33-2.46.46h0a9.37,9.37,0,0,0-1.57,2.56.59.59,0,0,1-.93.28,1.08,1.08,0,0,1-.34-1.2s2-5.32,6-4.84C386.17,133.27,390.86,138.69,390.87,138.71Z"/><path class="cls-35" d="M437.77,71.81c58.88,6,45.2,50.83,36.76,87.38a51,51,0,0,1-12.87,24.1c-19.41,20.05-40.51,22.87-62.83-3.91,0,0-12.66-12-13.48-27.77C383.39,114.15,378.75,67.5,437.77,71.81Z"/><path class="cls-39" d="M476.51,144.85s-11.58-37-27.32-52.2c-7.66-6.42-8.56,6.49-8.56,6.49s-9.47,21.47-29.4,22l-.41-6.35c-7.42,2.65-13,11-18.49,19.78,0,0,27.2-56.53,60.59-47.19S476.51,144.85,476.51,144.85Z"/><path class="cls-39" d="M462.81,108.26s2.79,16.91.53,20.71c7.1-.55,9.11-4.65,9.11-4.65s0-13.55-.43-14S462.81,108.26,462.81,108.26Z"/><path class="cls-39" d="M433.28,154.64s1,9.5.7,10.3c-.21.51-1.21,3-1.21,3s2.49-1.39,2.89-2.36S433.28,154.64,433.28,154.64Z"/><path class="cls-39" d="M415.1,174.68c0,3.15,29.13,5.63,29.61,2.49C444.4,182,414.33,179.42,415.1,174.68Z"/><path class="cls-39" d="M424.63,180.83c3.42,1.31,11.86,2.14,12.49.18C436.33,184.69,424.62,182.44,424.63,180.83Z"/><path class="cls-49" d="M475.06,130s1.5,13.35.31,23.22l7-12.3Z"/><path class="cls-49" d="M387.36,125.17s-2.47,15.08-1.49,23l-5.23-10.21.08-8.31Z"/><path class="cls-50" d="M427.74,142.75c-.23-2.16-1.79-2.5-3.61-2.89l-.58-.13a92.66,92.66,0,0,0-18.3-2.45,42.49,42.49,0,0,0-10.17.86,2.84,2.84,0,0,0-1.65,1.05,5.78,5.78,0,0,0-1,3,12.13,12.13,0,0,0,.24,3.78,7.8,7.8,0,0,0,2.21,4.3c1.4,1.1,5.18,2.1,9.38,2.81a59.15,59.15,0,0,0,13.17.94,11.83,11.83,0,0,0,6.26-2.4,13.19,13.19,0,0,0,3.31-3.9,6.18,6.18,0,0,0,.73-2.14,11.05,11.05,0,0,0,.05-2.79Zm11.08.49c.42-2.14,2-2.34,3.85-2.57l.59-.07a92.17,92.17,0,0,1,18.44-.85,43.23,43.23,0,0,1,10.06,1.74,2.87,2.87,0,0,1,1.55,1.19,5.76,5.76,0,0,1,.78,3,11.91,11.91,0,0,1-.57,3.75,7.7,7.7,0,0,1-2.58,4.08c-1.48,1-5.34,1.65-9.59,2a58.57,58.57,0,0,1-13.19-.21,11.83,11.83,0,0,1-6-2.94,13.53,13.53,0,0,1-3-4.17,6.56,6.56,0,0,1-.53-2.2,10.9,10.9,0,0,1,.19-2.78Zm-15-4.74.56.12a9,9,0,0,1,3,1h0a2.54,2.54,0,0,1,.36.29,6.27,6.27,0,0,0,2.93,1.26l2.63.11,2.64.12a6.14,6.14,0,0,0,3-1l.39-.24h0a8.72,8.72,0,0,1,3.11-.76l.57-.07a94.08,94.08,0,0,1,18.7-.86,44.42,44.42,0,0,1,10.35,1.8,4,4,0,0,1,1.26.66,13.12,13.12,0,0,0,4.63,1.62l2.29.1s1.06.1,1,.94-.09,2-.13,3.05-1,1.35-2,1.57-1.35.28-2.24.5a6.29,6.29,0,0,0-3,3,7.36,7.36,0,0,1-2.32,2.85c-1.68,1.1-5.76,1.84-10.19,2.2a60.84,60.84,0,0,1-13.52-.23,13.09,13.09,0,0,1-6.67-3.26,14.65,14.65,0,0,1-3.24-4.57,5.22,5.22,0,0,1-.25-.61c-1-2.47-2.16-3.17-3.21-3.21l-1.36-.06-1.36-.06c-1-.05-2.22.54-3.48,2.92-.09.2-.19.39-.3.59a14.61,14.61,0,0,1-3.63,4.26,13,13,0,0,1-6.93,2.67A60.57,60.57,0,0,1,404,154.3c-4.39-.75-8.39-1.84-10-3.08a7.37,7.37,0,0,1-2.07-3,6.3,6.3,0,0,0-2.76-3.3c-.87-.29-1.23-.4-2.19-.7s-1.87-.66-1.82-1.73.1-2.2.13-3,1.11-.85,1.11-.85l2.27.1a12.87,12.87,0,0,0,4.76-1.21,4.08,4.08,0,0,1,1.32-.54,43.52,43.52,0,0,1,10.47-.89"/><path class="cls-51" d="M283.54,427.29H448.09A7.33,7.33,0,0,0,455.4,420h0a7.32,7.32,0,0,0-7.31-7.3H283.54a7.32,7.32,0,0,0-7.3,7.3h0A7.33,7.33,0,0,0,283.54,427.29Z"/><path class="cls-38" d="M379.12,203.3a.9.9,0,0,1,.8-1,.89.89,0,0,1,1,.79c0,.29,6.61,101.76,6.93,108.88s-1.11,98.21-1.12,98.47a.89.89,0,0,1-.94.84.88.88,0,0,1-.84-.94c0-.26,1.43-91.26,1.12-98.3s-6.89-108.47-6.92-108.76Z"/><path class="cls-38" d="M468.27,202.69a.89.89,0,1,1,1.76.24c0,.34-17,121-17.58,125.07-.63,4.68-1.57,82.83-1.57,83.05a.89.89,0,0,1-.9.88.88.88,0,0,1-.88-.9c0-.22.94-78.48,1.58-83.25.72-5.42,17.54-124.75,17.59-125.09Z"/><ellipse class="cls-52" cx="415.09" cy="145.64" rx="5.39" ry="3.01" transform="translate(266.73 559.76) rotate(-89.62)"/><ellipse class="cls-52" cx="451.54" cy="147.44" rx="4.89" ry="2.84" transform="translate(241.95 573.7) rotate(-81.9)"/><path class="cls-48" d="M415.8,128a4.05,4.05,0,0,0,2.43-.06,4.5,4.5,0,0,0,2.22-2.79c0-.45-.7.23-2.86-.89s-10-3.92-15.91,1.5c-1,.93-.33,1.73.9,1.39A15.68,15.68,0,0,1,415.8,128Z"/><path class="cls-48" d="M451.41,131a4,4,0,0,1-2.42-.16,4.52,4.52,0,0,1-2.12-2.87c.05-.45.7.25,2.9-.79s10.19-3.52,15.84,2.11c1,1,.26,1.75-1,1.36A15.67,15.67,0,0,0,451.41,131Z"/><path class="cls-48" d="M397.49,124.63c2.92-4.21,7.76-8.1,14.81-11.6.69,3.1-1.07,8.14-1.07,8.14,17-3,26.34-24.13,26.34-24.13-4.29,26.46-12.55,32.12-12,33,0,0,25-8.49,31.24-32.17,13.28,9.36,22.32,48.66,22.32,48.66s23-8.25,20.05-38c-2.64-26.91-25.64-67.21-52.5-62.61a38.66,38.66,0,0,1-16.31-.52c-5.83-1.54-14.55-1.64-24.62,5.37-15.42,10.72-29.58,28.54-33.37,56.37-1.37,10.09-1.72,20.22,3.46,29l3.78,8.07,8.25-17Z"/><path class="cls-48" d="M376.49,89.75c42.88,10.51,80.85-35.65,80.85-35.65-9,31.4-49.78,59-84.28,58.91A94.94,94.94,0,0,1,376.49,89.75Z"/><path class="cls-48" d="M464.07,59c6,.32,14.84-.94,22.83,7.68S500,111.5,507.7,111.88c-7.74,6.38-30.71-14-37.24-31.27S464.07,59,464.07,59Z"/><path class="cls-48" d="M458.3,94.18s10.35,40.14,5,46.6c10.66-2.44,13.08-21.1,11.44-27.7S463.77,93.18,458.3,94.18Z"/><rect class="cls-53" x="10.64" y="445.07" width="677.57" height="266.3"/><path class="cls-54" d="M3.78,420H690.44c2.08,0,3.78,5.65,3.78,12.55h0c0,6.89-1.7,12.54-3.78,12.54H3.78C1.7,445.07,0,439.42,0,432.53H0C0,425.63,1.7,420,3.78,420Z"/><path class="cls-55" d="M88.62,382.91c-21.46-27.88,6-27,14.08,4.13Z"/><path class="cls-55" d="M111.42,385.65c21.43-24.34-1.61-27.59-12.27,2Z"/><path class="cls-56" d="M91.6,379.44c-3.7-32.48,21-20.72,10.56,9.18Z"/><path class="cls-56" d="M111,381.19c11.31-30.39-11.37-25.19-10.76,6.23Z"/><path class="cls-56" d="M89.6,389.44c-28.85-14.81-8.6-26.27,12.15-2.66Z"/><path class="cls-56" d="M113.75,389.44c28.85-14.81,8.59-26.27-12.15-2.66Z"/><path class="cls-55" d="M93.81,387.72c13.44-29.24,27.57-3.72,3.93,14.34Z"/><path class="cls-55" d="M104.54,393.09c-13.43-29.24-27.57-3.72-3.92,14.34Z"/><path class="cls-5" d="M78.89,385a2.17,2.17,0,0,0-1.51,2.67c.34,2.28,5.35,29.38,5.35,29.38A3.7,3.7,0,0,0,86.32,420h30.85a3.7,3.7,0,0,0,3.59-2.93s5-27.1,5.35-29.38a2.16,2.16,0,0,0-1.5-2.67Z"/><path class="cls-33" d="M77.94,390.89c.19,1.05.41,2.3.66,3.67h46.29c.25-1.37.47-2.62.66-3.67Z"/><path class="cls-3" d="M307.75,153.28a1.34,1.34,0,0,1,2.68,0V156a1.34,1.34,0,1,1-2.68,0v-2.73Zm7.84,5.16a1.34,1.34,0,1,1,0,2.68h-2.74a1.34,1.34,0,0,1,0-2.68Zm-10.26,0a1.34,1.34,0,1,1,0,2.68H302.6a1.34,1.34,0,0,1,0-2.68Zm2.42,5.1a1.34,1.34,0,0,1,2.68,0v2.73a1.34,1.34,0,0,1-2.68,0Z"/><polygon class="cls-57" points="364.61 409.61 458.03 404.83 458.03 419.75 364.61 419.75 364.61 409.61"/><path class="cls-58" d="M438.21,419.75H618.33a4.58,4.58,0,0,0,4.45-3.49l28.39-117a4.57,4.57,0,0,0-4.44-5.65H466.61a4.58,4.58,0,0,0-4.45,3.49L433.77,414.1A4.57,4.57,0,0,0,438.21,419.75Z"/><path class="cls-57" d="M444,414.25H624.16a4.58,4.58,0,0,0,4.45-3.49l28.39-117a4.6,4.6,0,0,0-4.45-5.66H472.43a4.56,4.56,0,0,0-4.43,3.49L439.61,408.6A4.56,4.56,0,0,0,444,414.25Z"/><polygon class="cls-39" points="425.57 161.45 427.53 159.62 425.34 160.53 425.57 161.45"/><path class="cls-48" d="M406.76,108.82s-19.05,36.37-12.63,43.12c-9.05-5.38-9.89-26.46-7.78-33.52S406.76,108.82,406.76,108.82Z"/><path class="cls-48" d="M460.11,95.55S448.83,121,443,122.88c3.51-7.69,7.16-21.84,7.16-21.84Z"/><path class="cls-5" d="M221.82,369.21a1.34,1.34,0,0,1,1.86-.33,1.32,1.32,0,0,1,.33,1.86L222.45,373a1.34,1.34,0,0,1-2.2-1.53l1.57-2.25Zm3.48,8.71a1.34,1.34,0,0,1-1.53,2.2l-2.25-1.56a1.34,1.34,0,0,1,1.53-2.2l2.25,1.56Zm-8.42-5.86a1.34,1.34,0,0,1-1.53,2.2l-2.24-1.57a1.34,1.34,0,1,1,1.53-2.19l2.24,1.56Zm-.93,5.57a1.34,1.34,0,0,1,2.2,1.53l-1.56,2.24a1.34,1.34,0,1,1-2.2-1.53Z"/><text class="cls-59" transform="translate(177.44 610.3)">DESINGER</text></svg>