<svg id="Layer_1" data-name="Layer 1" xmlns="http://www.w3.org/2000/svg" viewBox="0 0 694.22 400.51"><defs><style>.cls-1,.cls-2{fill:#70c2c9;}.cls-1,.cls-14,.cls-18,.cls-19,.cls-20,.cls-21,.cls-23,.cls-24,.cls-26,.cls-28,.cls-29,.cls-3,.cls-31,.cls-32,.cls-33,.cls-34,.cls-35,.cls-36,.cls-37,.cls-38,.cls-40,.cls-41,.cls-43,.cls-44,.cls-46,.cls-47,.cls-48,.cls-49,.cls-50,.cls-52,.cls-53,.cls-54{fill-rule:evenodd;}.cls-3{fill:#c8416d;}.cls-4{opacity:0.8;}.cls-14,.cls-5{fill:#37a0bd;}.cls-11,.cls-17,.cls-18,.cls-6{fill:#fff;}.cls-10,.cls-13,.cls-15,.cls-16,.cls-35,.cls-46,.cls-7,.cls-8,.cls-9{fill:none;}.cls-10,.cls-11,.cls-15,.cls-16,.cls-17,.cls-18,.cls-7,.cls-8,.cls-9{stroke:#37a0bd;}.cls-10,.cls-11,.cls-13,.cls-15,.cls-16,.cls-7,.cls-8,.cls-9{stroke-linecap:round;stroke-linejoin:round;}.cls-7{stroke-width:2px;}.cls-9{stroke-dasharray:0.99 2.98;}.cls-10{stroke-dasharray:1 3.01;}.cls-12{fill:#1a2e35;opacity:0.7;}.cls-13{stroke:#fff;}.cls-15{stroke-dasharray:0.99 2.98;}.cls-16{stroke-dasharray:1.02 3.05;}.cls-17,.cls-18,.cls-35,.cls-46{stroke-miterlimit:10;}.cls-17,.cls-18{stroke-width:0.5px;}.cls-19{fill:#73443e;}.cls-20{fill:#6245d1;}.cls-21{fill:#43467b;}.cls-22,.cls-24{fill:#2b2d4f;}.cls-23{fill:#232540;}.cls-25,.cls-28{fill:#444021;}.cls-26,.cls-27{fill:#61d5e8;}.cls-29{fill:#efc04c;}.cls-30,.cls-31{fill:#591d1d;}.cls-32{fill:#d18832;}.cls-33{fill:#969696;}.cls-34{fill:#f2ba95;}.cls-35{stroke:#ee8b83;}.cls-36{fill:#666;}.cls-37,.cls-45{fill:#142b35;}.cls-38{fill:#ee8b83;}.cls-39{fill:#564c85;}.cls-40,.cls-42{fill:#3d365e;}.cls-41{fill:#292540;}.cls-43{fill:#f9d4c8;}.cls-44{fill:#1e3740;}.cls-46{stroke:#142b35;}.cls-47{fill:#4d2d2a;}.cls-48{fill:#2e1b19;}.cls-49{fill:#1d353f;}.cls-50,.cls-51{fill:#0a1f29;}.cls-52{fill:#143545;}.cls-53{fill:#29b531;}.cls-54{fill:#36ef42;}.cls-55{fill:#3b464a;}.cls-56{fill:#475459;}</style></defs><title>designer4</title><path class="cls-1" d="M632,146.42l29.12,8.44a.71.71,0,0,1,.49.88l-8.43,29.12a.72.72,0,0,1-.89.49l-29.12-8.43a.72.72,0,0,1-.49-.89l8.44-29.12a.71.71,0,0,1,.88-.49ZM660,156l-27.75-8-8,27.74,27.75,8Z"/><rect class="cls-2" x="629.68" y="144.98" width="4.26" height="4.26" rx="0.68" transform="translate(314.69 713.02) rotate(-73.84)"/><rect class="cls-2" x="658.8" y="153.42" width="4.26" height="4.26" rx="0.68" transform="translate(327.61 747.08) rotate(-73.84)"/><rect class="cls-2" x="621.19" y="174.25" width="4.26" height="4.26" rx="0.68" transform="translate(280.46 726.01) rotate(-73.84)"/><rect class="cls-2" x="650.31" y="182.69" width="4.26" height="4.26" rx="0.68" transform="translate(293.37 760.06) rotate(-73.84)"/><path class="cls-1" d="M651.21,160.39a.45.45,0,0,1,.61.17.45.45,0,0,1-.18.61l-18.56,10.22a.44.44,0,0,1-.6-.18.44.44,0,0,1,.17-.6Z"/><path class="cls-1" d="M651.42,163.51l-2.3-4.19a.31.31,0,0,1,.12-.43.34.34,0,0,1,.24,0l3.59.74a.31.31,0,0,1,.24.37.14.14,0,0,1,0,.06L652,163.47a.32.32,0,0,1-.41.18.28.28,0,0,1-.16-.14Z"/><path class="cls-1" d="M635.18,172.46l-2.31-4.2a.32.32,0,0,0-.58.07L631,171.76a.31.31,0,0,0,.18.4l.06,0,3.6.74a.32.32,0,0,0,.37-.25.3.3,0,0,0,0-.21Z"/><path class="cls-1" d="M647.65,175a.45.45,0,0,1-.18.61.44.44,0,0,1-.6-.18l-3.38-6.13a.45.45,0,0,1,.17-.61.45.45,0,0,1,.61.18l3.38,6.13Zm-6.84-12.42a.45.45,0,1,1-.78.43l-3.38-6.14a.44.44,0,0,1,.17-.6.45.45,0,0,1,.61.17Z"/><path class="cls-1" d="M644.52,175.17l4.2-2.32a.33.33,0,0,1,.43.13.29.29,0,0,1,0,.24l-.73,3.59a.32.32,0,0,1-.38.24h0l-3.45-1.3a.33.33,0,0,1-.18-.41.29.29,0,0,1,.15-.16Z"/><path class="cls-1" d="M635.58,158.92l4.19-2.31a.32.32,0,0,0,.13-.43.4.4,0,0,0-.19-.15l-3.43-1.29a.33.33,0,0,0-.41.18s0,0,0,.06l-.74,3.6a.3.3,0,0,0,.24.37.33.33,0,0,0,.22,0Z"/><path class="cls-1" d="M610.81,79.69l8.44-4.42.67,1.29a1.26,1.26,0,0,1-.53,1.69l-6.22,3.25a1.26,1.26,0,0,1-1.69-.53Z"/><path class="cls-1" d="M601.5,53.92a.22.22,0,0,1,.31.1.23.23,0,0,1-.09.31L589.4,60.76a.23.23,0,0,1-.31-.09.23.23,0,0,1,.1-.32Z"/><path class="cls-1" d="M606.31,60.28l5.13,9.82a1.12,1.12,0,1,1-.69,1.59,1.12,1.12,0,0,1,.28-1.37L605.9,60.5l-2.17,15.91,7.08,3.28L615,77.48l4.22-2.21,1.36-7.68Z"/><path class="cls-1" d="M603.63,53.33a.23.23,0,0,1-.31-.1.22.22,0,0,1,.1-.31l12.31-6.44a.23.23,0,1,1,.22.41Z"/><path class="cls-1" d="M595.82,76.22a.47.47,0,0,1-.19.63.47.47,0,0,1-.63-.2,17.37,17.37,0,0,1,6.39-22.89.46.46,0,1,1,.47.79,16.43,16.43,0,0,0-6,21.67Zm7.91-22.65a.46.46,0,0,1-.61-.23.47.47,0,0,1,.23-.61,17.38,17.38,0,0,1,22.44,7.83A.46.46,0,1,1,625,61a16.44,16.44,0,0,0-21.24-7.42Z"/><rect class="cls-2" x="601.49" y="52.54" width="2.16" height="2.16" transform="translate(43.68 285.16) rotate(-27.59)"/><rect class="cls-2" x="594.33" y="75.35" width="2.16" height="2.16" transform="translate(32.3 284.45) rotate(-27.59)"/><rect class="cls-2" x="624.3" y="59.69" width="2.16" height="2.16" transform="translate(42.97 296.54) rotate(-27.59)"/><path class="cls-1" d="M589.72,61.37a.92.92,0,0,0,.38-1.24.91.91,0,0,0-1.62.85A.92.92,0,0,0,589.72,61.37Z"/><path class="cls-1" d="M616.27,47.5a.92.92,0,1,0-1.24-.39A.92.92,0,0,0,616.27,47.5Z"/><path class="cls-1" d="M557,203.3a1.34,1.34,0,0,1,2.68,0V206a1.34,1.34,0,1,1-2.68,0V203.3Zm7.84,5.16a1.34,1.34,0,1,1,0,2.68h-2.74a1.34,1.34,0,0,1,0-2.68Zm-10.26,0a1.34,1.34,0,1,1,0,2.68h-2.73a1.34,1.34,0,0,1,0-2.68Zm2.42,5.1a1.34,1.34,0,0,1,2.68,0v2.74a1.34,1.34,0,1,1-2.68,0Z"/><path class="cls-1" d="M27.28,270.4a1.34,1.34,0,1,1,2.67,0v2.73a1.34,1.34,0,1,1-2.67,0V270.4Zm7.83,5.16a1.34,1.34,0,1,1,0,2.67H32.38a1.34,1.34,0,1,1,0-2.67Zm-10.26,0a1.34,1.34,0,1,1,0,2.67H22.12a1.34,1.34,0,1,1,0-2.67Zm2.43,5.1a1.34,1.34,0,1,1,2.67,0v2.73a1.34,1.34,0,1,1-2.67,0Z"/><path class="cls-3" d="M548.31,98.89a12.45,12.45,0,1,0,12.44,12.45A12.44,12.44,0,0,0,548.31,98.89Zm0,22.19a9.74,9.74,0,1,1,9.73-9.74A9.74,9.74,0,0,1,548.31,121.08Z"/><g class="cls-4"><path class="cls-5" d="M47.47,32H355.65a5,5,0,0,1,5,5V50.17a0,0,0,0,1,0,0H42.49a0,0,0,0,1,0,0V37A5,5,0,0,1,47.47,32Z"/><rect class="cls-6" x="42.49" y="50.17" width="317.67" height="208.18"/><path class="cls-6" d="M351.86,41.11A4.88,4.88,0,1,1,347,36.58,4.71,4.71,0,0,1,351.86,41.11Z"/><path class="cls-6" d="M334.74,41.11a4.88,4.88,0,1,1-4.87-4.53A4.71,4.71,0,0,1,334.74,41.11Z"/><path class="cls-6" d="M317.61,41.11a4.87,4.87,0,1,1-4.86-4.53A4.7,4.7,0,0,1,317.61,41.11Z"/><line class="cls-7" x1="350.54" y1="59.1" x2="337.96" y2="59.1"/><line class="cls-7" x1="350.54" y1="63.85" x2="337.96" y2="63.85"/><line class="cls-7" x1="350.54" y1="68.6" x2="337.96" y2="68.6"/><line class="cls-8" x1="266.37" y1="52.52" x2="266.37" y2="53.02"/><line class="cls-9" x1="266.37" y1="55.99" x2="266.37" y2="252.92"/><line class="cls-8" x1="266.37" y1="254.41" x2="266.37" y2="254.91"/><line class="cls-8" x1="46.32" y1="211.66" x2="46.82" y2="211.66"/><line class="cls-10" x1="49.83" y1="211.66" x2="353.3" y2="211.66"/><line class="cls-8" x1="354.8" y1="211.66" x2="355.3" y2="211.66"/><rect class="cls-11" x="264.28" y="209.72" width="4.17" height="3.88"/><rect class="cls-12" x="81.9" y="244.57" width="64.88" height="37.87"/><rect class="cls-5" x="80.74" y="244.46" width="67.2" height="5.96" rx="1.22"/><line class="cls-13" x1="88.52" y1="255.18" x2="105.1" y2="255.18"/><line class="cls-13" x1="96.81" y1="259.48" x2="125.51" y2="259.48"/><line class="cls-13" x1="93.14" y1="263.5" x2="101.59" y2="263.5"/><line class="cls-13" x1="96.81" y1="268.24" x2="116.14" y2="268.24"/><line class="cls-13" x1="88.52" y1="272.55" x2="105.1" y2="272.55"/><line class="cls-7" x1="278.32" y1="224.91" x2="325.15" y2="224.91"/><line class="cls-7" x1="278.32" y1="231.9" x2="325.15" y2="231.9"/><line class="cls-7" x1="278.32" y1="239.03" x2="305.01" y2="239.03"/><path class="cls-5" d="M213.69,241.92H189a5.87,5.87,0,0,1-6.07-5.65h0a5.87,5.87,0,0,1,6.07-5.65h24.65a5.87,5.87,0,0,1,6.07,5.65h0A5.87,5.87,0,0,1,213.69,241.92Z"/><path class="cls-5" d="M164.83,241.92H140.18a5.87,5.87,0,0,1-6.07-5.65h0a5.87,5.87,0,0,1,6.07-5.65h24.65a5.87,5.87,0,0,1,6.07,5.65h0A5.87,5.87,0,0,1,164.83,241.92Z"/><path class="cls-5" d="M116,241.92H91.32a5.87,5.87,0,0,1-6.07-5.65h0a5.87,5.87,0,0,1,6.07-5.65H116a5.87,5.87,0,0,1,6.07,5.65h0A5.87,5.87,0,0,1,116,241.92Z"/><path class="cls-5" d="M262.56,241.92H237.9a5.87,5.87,0,0,1-6.07-5.65h0a5.87,5.87,0,0,1,6.07-5.65h24.66a5.86,5.86,0,0,1,6.06,5.65h0A5.86,5.86,0,0,1,262.56,241.92Z"/><rect class="cls-11" x="280.86" y="92.87" width="33.79" height="31.47"/><line class="cls-11" x1="280.86" y1="92.87" x2="314.64" y2="124.34"/><line class="cls-11" x1="314.64" y1="92.87" x2="280.86" y2="124.34"/><rect class="cls-12" x="325.92" y="92.19" width="64.88" height="37.87"/><rect class="cls-5" x="324.2" y="90.9" width="68.31" height="8.33" rx="1.69"/><line class="cls-13" x1="332.54" y1="102.8" x2="349.12" y2="102.8"/><line class="cls-13" x1="340.83" y1="107.1" x2="369.53" y2="107.1"/><line class="cls-13" x1="337.16" y1="111.12" x2="345.62" y2="111.12"/><line class="cls-13" x1="340.83" y1="115.87" x2="360.16" y2="115.87"/><line class="cls-13" x1="332.54" y1="120.17" x2="349.12" y2="120.17"/><polygon class="cls-11" points="298.44 65.83 298.44 77.2 293.06 82.21 280.86 82.21 280.86 65.83 298.44 65.83"/><polygon class="cls-11" points="298.44 77.2 293.06 82.21 293.06 77.2 298.44 77.2"/><polygon class="cls-11" points="48.83 223.71 48.83 235.08 43.45 240.09 31.25 240.09 31.25 223.71 48.83 223.71"/><polygon class="cls-11" points="48.83 235.08 43.45 240.09 43.45 235.08 48.83 235.08"/><path class="cls-14" d="M93.55,78.23l2.75,2.71h.92a.38.38,0,1,1,0,.76h-.56v3.5h.56a.39.39,0,1,1,0,.77h-.69l-.67,1.73h.27a.39.39,0,1,1,0,.77h-.45c0,1.16-.06,4.92.07,9.77v.08c0,1.61.1,3.33.2,5.12v.08l.05,1c.07,1.37.18,2.74.3,4.12a.36.36,0,0,1,0,.11v0c.33,3.52.82,7,1.42,10.57.84,4.92,1.91,9.81,3,14.6a1.67,1.67,0,0,1,.93.45h0a1.46,1.46,0,0,1,.45.74h.13a1.83,1.83,0,0,1,1.21.46s0,0,0,0a1.5,1.5,0,0,1,.48,1.1h0a1.58,1.58,0,0,1-.5,1.12h0a1.73,1.73,0,0,1-.79.42v1.23c.09.29.54,1.66,1.27,3.59l0,.07c1.75,4.64,5.09,12.41,9,16.21h1.12a.39.39,0,0,1,.41.38V161H115a1.77,1.77,0,0,1,1.21.47h0a1.54,1.54,0,0,1,.5,1.12h0a1.52,1.52,0,0,1-.5,1.12h0a1.76,1.76,0,0,1-1.21.46h-.52v.94c9.58,16.61,21.71,25,23,25.79H116.86a22.42,22.42,0,0,0-8.3-12.67,25.65,25.65,0,0,0-30.83,0,22.42,22.42,0,0,0-8.3,12.67H48.81c1.25-.83,13.38-9.18,23-25.79v-.94h-.52a1.79,1.79,0,0,1-1.2-.46h0a1.55,1.55,0,0,1-.51-1.13h0a1.53,1.53,0,0,1,.51-1.12l0,0a1.76,1.76,0,0,1,1.18-.45h.52v-1.24a.4.4,0,0,1,.42-.38h1.12c3.87-3.8,7.2-11.57,9-16.21a.13.13,0,0,1,0-.07c.73-1.93,1.18-3.3,1.27-3.59v-1.23a1.68,1.68,0,0,1-.79-.42h0a1.54,1.54,0,0,1-.5-1.12h0a1.54,1.54,0,0,1,.5-1.13h0a1.81,1.81,0,0,1,1.21-.46h.12a1.55,1.55,0,0,1,.46-.74l0,0a1.78,1.78,0,0,1,.91-.42c1.14-4.79,2.2-9.68,3.05-14.6.6-3.52,1.09-7,1.42-10.57v0a.41.41,0,0,1,0-.11c.13-1.38.23-2.75.31-4.12l0-1v-.08c.09-1.79.16-3.51.2-5.12v-.08c.14-4.85.1-8.61.08-9.77h-.45a.39.39,0,1,1,0-.77h.27L89.75,86h-.69a.39.39,0,1,1,0-.77h.57V81.7h-.57a.38.38,0,1,1,0-.76H90l2.74-2.71V73.75a.4.4,0,0,1,.41-.38.39.39,0,0,1,.41.38v4.48Zm20.55,83.5H71.25a.82.82,0,0,0-.62,1.4.9.9,0,0,0,.62.24H115a.82.82,0,1,0,0-1.64ZM95.55,143.61H90.74a75.6,75.6,0,0,1-3.38,15.73H98.92a75.34,75.34,0,0,1-3.37-15.73Zm-12.2-7.5Zm18.47-.24H84a1,1,0,0,0-.63.24.82.82,0,0,0,.63,1.41h18.33a.83.83,0,1,0,0-1.65ZM91.3,87.7H95L95.66,86h-5l.68,1.73Zm.5,46.2h2.69c-.26-1.06-.89-3.76-1.35-6.83C92.68,130.14,92.06,132.84,91.8,133.9Z"/><rect class="cls-8" x="280.86" y="139.63" width="43.93" height="25.5"/><rect class="cls-8" x="314.07" y="155.15" width="21.44" height="19.97"/><ellipse class="cls-5" cx="284.5" cy="186.55" rx="3.14" ry="2.92"/><ellipse class="cls-5" cx="293.25" cy="186.55" rx="3.14" ry="2.92"/><ellipse class="cls-5" cx="301.99" cy="186.55" rx="3.14" ry="2.92"/><ellipse class="cls-5" cx="284.5" cy="193.72" rx="3.14" ry="2.92"/><ellipse class="cls-5" cx="293.25" cy="193.72" rx="3.14" ry="2.92"/><ellipse class="cls-5" cx="284.5" cy="200.89" rx="3.14" ry="2.92"/><ellipse class="cls-5" cx="340.56" cy="200.89" rx="3.14" ry="2.92"/><ellipse class="cls-5" cx="331.81" cy="200.89" rx="3.14" ry="2.92"/><ellipse class="cls-5" cx="323.06" cy="200.89" rx="3.14" ry="2.92"/><ellipse class="cls-5" cx="340.56" cy="193.72" rx="3.14" ry="2.92"/><ellipse class="cls-5" cx="331.81" cy="193.72" rx="3.14" ry="2.92"/><ellipse class="cls-5" cx="340.56" cy="186.55" rx="3.14" ry="2.92"/><polyline class="cls-8" points="151.93 139.11 151.93 138.61 152.43 138.61"/><line class="cls-15" x1="155.42" y1="138.61" x2="241.48" y2="138.61"/><polyline class="cls-8" points="242.97 138.61 243.47 138.61 243.47 139.11"/><line class="cls-16" x1="243.47" y1="142.16" x2="243.47" y2="193.42"/><polyline class="cls-8" points="243.47 194.94 243.47 195.44 242.97 195.44"/><line class="cls-15" x1="239.99" y1="195.44" x2="153.92" y2="195.44"/><polyline class="cls-8" points="152.43 195.44 151.93 195.44 151.93 194.94"/><line class="cls-16" x1="151.93" y1="191.9" x2="151.93" y2="140.63"/><ellipse class="cls-5" cx="197.7" cy="138.61" rx="1.51" ry="1.41"/><ellipse class="cls-5" cx="151.93" cy="167.03" rx="1.51" ry="1.41"/><ellipse class="cls-5" cx="197.7" cy="195.44" rx="1.51" ry="1.41"/><ellipse class="cls-5" cx="243.47" cy="167.03" rx="1.51" ry="1.41"/><rect class="cls-5" x="241.72" y="193.81" width="3.51" height="3.26"/><rect class="cls-5" x="241.72" y="136.98" width="3.51" height="3.26"/><rect class="cls-5" x="150.18" y="193.81" width="3.51" height="3.26"/><rect class="cls-5" x="150.18" y="136.98" width="3.51" height="3.26"/><rect class="cls-17" x="158.01" y="143.64" width="79.67" height="47.14"/><polygon class="cls-5" points="237.68 176.86 228.82 185.1 204.86 162.79 194.78 172.18 178.7 157.21 158.01 176.48 158.01 190.78 237.68 190.78 237.68 176.86"/><ellipse class="cls-5" cx="221.17" cy="157.02" rx="5.62" ry="5.24"/><path class="cls-18" d="M214.33,71.67v4a2.06,2.06,0,0,1,1.13.53,1.87,1.87,0,0,1,.58,1h9.54a20.32,20.32,0,0,1,13.88,5.38,17.35,17.35,0,0,1,0,25.84,20.36,20.36,0,0,1-13.88,5.37h-1.12a1.79,1.79,0,0,1-.57,1,2.07,2.07,0,0,1-1.13.54v4.89a1.34,1.34,0,0,1-.44,1h0a1.54,1.54,0,0,1-1.06.41H208.41a1.52,1.52,0,0,1-1.06-.41h0a1.34,1.34,0,0,1-.44-1v-4.89a2.07,2.07,0,0,1-1.13-.54,1.79,1.79,0,0,1-.57-1h-9.48a1.91,1.91,0,0,1-.57,1,2.1,2.1,0,0,1-1.14.54v4a4.31,4.31,0,0,1-1.42,3.18,5,5,0,0,1-3.42,1.33H157a5,5,0,0,1-3.42-1.33,4.31,4.31,0,0,1-1.42-3.18V107.69a4.35,4.35,0,0,1,1.42-3.19,5.05,5.05,0,0,1,3.42-1.32h32.19a5.05,5.05,0,0,1,3.42,1.32,4.35,4.35,0,0,1,1.42,3.19v4a2.16,2.16,0,0,1,1.14.53,1.94,1.94,0,0,1,.57,1.06h9.48a1.82,1.82,0,0,1,.57-1.06,2.13,2.13,0,0,1,1.13-.53v-4.89a1.34,1.34,0,0,1,.44-1,1.52,1.52,0,0,1,1.06-.41h12.85a1.52,1.52,0,0,1,1.06.41h0a1.34,1.34,0,0,1,.42,1v4.89a2.13,2.13,0,0,1,1.13.53,1.82,1.82,0,0,1,.57,1.06h1.12A19.65,19.65,0,0,0,239,108.08a16.8,16.8,0,0,0,0-25,19.7,19.7,0,0,0-13.44-5.21H216a1.89,1.89,0,0,1-.58,1.06,2.06,2.06,0,0,1-1.13.53v4a4.34,4.34,0,0,1-1.42,3.19A5,5,0,0,1,209.49,88H177.3a5,5,0,0,1-3.42-1.32,4.34,4.34,0,0,1-1.43-3.19V71.67a4.34,4.34,0,0,1,1.43-3.18,5,5,0,0,1,3.42-1.33h32.19a5,5,0,0,1,3.42,1.33,4.33,4.33,0,0,1,1.42,3.18Zm-20.92,45.65a4.56,4.56,0,0,1-.81,1,5,5,0,0,1-3.42,1.32H157a5,5,0,0,1-3.42-1.32,4.56,4.56,0,0,1-.81-1v2.14a3.78,3.78,0,0,0,1.24,2.78,4.37,4.37,0,0,0,3,1.16h32.19a4.37,4.37,0,0,0,3-1.16,3.81,3.81,0,0,0,1.24-2.78v-2.14Zm-40.65-2.19a3.8,3.8,0,0,0,1.24,2.79,4.41,4.41,0,0,0,3,1.15h32.19a4.41,4.41,0,0,0,3-1.15,3.86,3.86,0,0,0,1.23-2.47,2.11,2.11,0,0,1-1.12-.54,1.81,1.81,0,0,1-.6-1.34,1.84,1.84,0,0,1,.6-1.34,2.13,2.13,0,0,1,1.13-.53v-4a3.81,3.81,0,0,0-1.24-2.78,4.37,4.37,0,0,0-3-1.16H157a4.37,4.37,0,0,0-3,1.16,3.78,3.78,0,0,0-1.24,2.78v7.44Zm56.49-1.56a1.8,1.8,0,0,1-.59,1.34,2.06,2.06,0,0,1-1,.51l.1.12h0a.91.91,0,0,0,.63.24h12.85a.91.91,0,0,0,.63-.24h0l.1-.12a2.06,2.06,0,0,1-1-.51,1.8,1.8,0,0,1-.59-1.34,1.83,1.83,0,0,1,.59-1.34,2.16,2.16,0,0,1,1.13-.53v-4.89a.8.8,0,0,0-.24-.57h0a1,1,0,0,0-.63-.24H208.41a1,1,0,0,0-.63.24.82.82,0,0,0-.25.58v4.89a2.16,2.16,0,0,1,1.13.53,1.83,1.83,0,0,1,.59,1.34ZM156,77.56a1.82,1.82,0,0,0-.6-1.34,2.09,2.09,0,0,0-1.43-.56,2.13,2.13,0,0,0-1.44.56,1.8,1.8,0,0,0,0,2.68,2.13,2.13,0,0,0,1.44.55,2.08,2.08,0,0,0,1.43-.55,1.82,1.82,0,0,0,.6-1.34Zm6.75,0a1.85,1.85,0,0,0-.59-1.34,2.13,2.13,0,0,0-2.88,0,1.8,1.8,0,0,0,0,2.68,2.16,2.16,0,0,0,2.88,0,1.85,1.85,0,0,0,.59-1.34Zm6.75,0a1.85,1.85,0,0,0-.59-1.34,2.13,2.13,0,0,0-2.88,0,1.8,1.8,0,0,0,0,2.68,2.16,2.16,0,0,0,2.88,0,1.85,1.85,0,0,0,.59-1.34Zm44.22,1.87a2.06,2.06,0,0,1-1.13-.53,1.8,1.8,0,0,1,0-2.68,2.06,2.06,0,0,1,1.13-.53v-4a3.83,3.83,0,0,0-1.24-2.78,4.42,4.42,0,0,0-3-1.16H177.3a4.4,4.4,0,0,0-3,1.16,3.79,3.79,0,0,0-1.24,2.78V83.44a3.8,3.8,0,0,0,1.24,2.79,4.39,4.39,0,0,0,3,1.15h32.19a4.41,4.41,0,0,0,3-1.15,3.84,3.84,0,0,0,1.24-2.79v-4Zm-6.19,36.65v4.26a.82.82,0,0,0,.25.58h0a.91.91,0,0,0,.63.24h12.85a.91.91,0,0,0,.63-.24h0a.78.78,0,0,0,.25-.58v-4.26a1.53,1.53,0,0,1-.88.27H208.41A1.53,1.53,0,0,1,207.53,116.08Z"/></g><path class="cls-19" d="M347.11,379.2,340,152.3a20.05,20.05,0,0,1,20.31-20.05L512,134.18a19.64,19.64,0,0,1,19.28,21.68L507.84,379.2Z"/><path class="cls-20" d="M76.46,372.11c.06.52.14,1,.23,1.49s.34.55.61.39a.74.74,0,0,0,.23-.26h0c.24-.41.47-.86.69-1.34Z"/><path class="cls-21" d="M75.35,366.62a30.7,30.7,0,0,0,.77,5.72l2.35.38A29.68,29.68,0,0,0,81,367.54l-2.74-1Z"/><rect class="cls-22" x="82.12" y="328.39" width="3.06" height="10.17" transform="translate(-258.93 362.47) rotate(-80.76)"/><path class="cls-21" d="M77.87,333c-.67,4.75-1.26,9.52-1.73,14.3-.5,5.17-.9,10.44-.88,15.63,0,1.1,0,2.36.09,3.65l5.66.92c.48-1.2.9-2.39,1.25-3.43,1.66-4.92,2.95-10.05,4.11-15.1,1.07-4.68,2-9.4,2.9-14.12a.31.31,0,0,0-.06-.24.27.27,0,0,0-.2-.12l-10.78-1.76a.32.32,0,0,0-.23.06A.33.33,0,0,0,77.87,333Z"/><path class="cls-23" d="M75.39,350.49c-.36,4.15-.6,8.32-.59,12.48,0,.81,0,1.62,0,2.43a.47.47,0,0,0,.39.44l6.15,1a.47.47,0,0,0,.51-.3c.28-.76.55-1.52.81-2.29,1.33-3.94,2.41-8,3.39-12a.43.43,0,0,0-.07-.36.44.44,0,0,0-.31-.2l-9.79-1.59a.44.44,0,0,0-.35.09A.42.42,0,0,0,75.39,350.49Z"/><path class="cls-21" d="M83.48,302.08c-1,3.66-1.7,7.61-2.4,11.33q-1.69,9.09-3,18.25a.31.31,0,0,0,.26.35l10.83,1.77a.32.32,0,0,0,.36-.26c1.1-6.06,2.08-12.16,2.93-18.26.52-3.75,1.09-7.72,1.32-11.5C94.62,289.5,87.17,288.37,83.48,302.08Z"/><path class="cls-24" d="M93.74,299.31c-.7-8.56-5.45-9.3-8.82-1.44Z"/><path class="cls-23" d="M93.78,299.89a19.68,19.68,0,0,0-.31-2.66L85.84,296a20.38,20.38,0,0,0-1.15,2.42Z"/><path class="cls-23" d="M90.87,294.92l-1.84-.3a.33.33,0,0,0-.38.28l-3.78,23.22a1.27,1.27,0,0,0,1,1.45h0a1.28,1.28,0,0,0,1.46-1l3.78-23.23A.34.34,0,0,0,90.87,294.92Z"/><rect class="cls-25" x="68.39" y="295.45" width="4.24" height="7.23" rx="0.55"/><path class="cls-20" d="M70.43,374.13h0s-.43-.37-.43-1.57c0-.55,1-2.36,1,0,0,1.22-.43,1.57-.43,1.57A.11.11,0,0,1,70.43,374.13Z"/><path class="cls-26" d="M67.53,360.58v1.83c0,1.53,1.2,5.49,2.19,10.11,0,0,.06.33.35.33H71c.29,0,.35-.33.35-.33,1-4.62,2.19-8.58,2.19-10.11v-1.83l-3-2.42Z"/><rect class="cls-27" x="67.53" y="291.37" width="5.97" height="7.23" rx="0.78"/><rect class="cls-27" x="67.53" y="300.13" width="5.97" height="61.23" rx="0.78"/><path class="cls-28" d="M71.45,300.91H69.58a.33.33,0,0,0-.33.33v23.53A1.27,1.27,0,0,0,70.52,326h0a1.27,1.27,0,0,0,1.26-1.27V301.24A.33.33,0,0,0,71.45,300.91Z"/><path class="cls-2" d="M67.45,342.37h6.14a1.08,1.08,0,0,1,1.08,1.08V359a1.09,1.09,0,0,1-1.09,1.09H67.45A1.08,1.08,0,0,1,66.36,359V343.46a1.09,1.09,0,0,1,1.09-1.09Z"/><rect class="cls-25" x="50.63" y="293.43" width="4.64" height="7.99" rx="0.61" transform="translate(-56.66 15.91) rotate(-11.18)"/><path class="cls-28" d="M67.62,372h0s-.52-.3-.76-1.54c-.11-.57.57-2.64,1.06-.21.25,1.26-.12,1.71-.12,1.71A.13.13,0,0,1,67.62,372Z"/><path class="cls-29" d="M55.35,297.6l-4.55.9a.83.83,0,0,0-.65,1l11.7,59.14a.84.84,0,0,0,1,.65l4.56-.9a.83.83,0,0,0,.64-1l-11.7-59.14A.83.83,0,0,0,55.35,297.6Z"/><path class="cls-29" d="M61.85,358.61s.07.31.38,1.89,2.36,5.43,4.33,10c0,0,.13.33.43.27l.46-.09.46-.09c.3-.06.29-.42.29-.42.08-5,.51-9.31.2-10.89s-.38-1.89-.38-1.89l-3.58-1.9Z"/><rect class="cls-2" x="50.53" y="297.92" width="7.73" height="13.64" rx="1.01" transform="translate(-58.13 16.36) rotate(-11.19)"/><path class="cls-28" d="M55.11,303.52l-1.83.37a.32.32,0,0,0-.26.39l4.56,23.08a1.27,1.27,0,0,0,1.49,1h0a1.27,1.27,0,0,0,1-1.48L55.5,303.78A.35.35,0,0,0,55.11,303.52Z"/><rect class="cls-30" x="50.87" y="304.95" width="7.73" height="3" transform="translate(-58.39 16.43) rotate(-11.18)"/><path class="cls-31" d="M55.62,303.42l-2.86.57a.51.51,0,0,0-.4.61l1.49,7.53a2,2,0,0,0,2.32,1.55h0a2,2,0,0,0,1.55-2.32l-1.49-7.53A.52.52,0,0,0,55.62,303.42Z"/><path class="cls-32" d="M93.79,324.29A.89.89,0,1,0,92,324.1l-5.08,47.61v0h0s-.3,3.38-3.06,3.38H62.31c-2.76,0-3.05-3.37-3.05-3.38s0-.05,0-.08L54.18,324.1a.9.9,0,0,0-1-.79.88.88,0,0,0-.79,1l5.07,47.55v0s.44,5,4.83,5H83.88c4.39,0,4.83-5,4.83-5h0Z"/><path class="cls-32" d="M89.3,322.46h-.47l-.49.49-.49-.49H86.16l1.34,1.34L83.26,328,79,323.79l1.36-1.35H78.7l-.52.52-.53-.52H76l1.38,1.37L73.1,328l-4.24-4.24,1.37-1.37H68.54L68,323l-.52-.52H65.81l1.36,1.35L62.93,328l-4.24-4.24L60,322.45H58.34l-.49.49-.49-.49h-.47l-.82.4.94.93-3.4,3.4.16,1.53,4.08-4.08,4.24,4.24-4.24,4.24-4-4L54,331l3,3-2.42,2.42.16,1.52,3.1-3.1L62.09,339l-4.24,4.24L55,340.46l.21,1.88L57,344.12l-1.44,1.44.16,1.53L57.85,345l4.24,4.24-4.24,4.24-1.61-1.62.2,1.89.57.57-.46.46.16,1.52,1.14-1.14,4.24,4.24-4.24,4.24-.4-.4.24,2.25.16-.16,4.24,4.24L58.63,373a5.85,5.85,0,0,0,.52,1.17l3.78-3.79,4.24,4.24L65.79,376h1.68l.54-.54.54.54h1.69l-1.38-1.38,4.24-4.24,4.24,4.24L76,376h1.69l.54-.54.54.54h1.69L79,374.62l4.24-4.24,3.79,3.79a5.78,5.78,0,0,0,.51-1.17l-3.45-3.46,4.23-4.24.16.16.24-2.25-.4.4-4.23-4.24,4.23-4.24,1.14,1.14.16-1.52-.45-.46.56-.57.2-1.89-1.61,1.62-4.23-4.24L88.34,345l2.12,2.12.16-1.53-1.43-1.44L91,342.34l.2-1.88-2.83,2.82L84.11,339l4.23-4.24,3.1,3.1.16-1.52L89.19,334l3-3,.2-1.89-4,4-4.23-4.24,4.23-4.24,4.08,4.08.16-1.53-3.39-3.4.93-.93-.82-.4ZM78.18,373.77l-4.24-4.23,4.24-4.24,4.24,4.24-4.24,4.23Zm5.08-5.08L79,364.45l4.24-4.24,4.24,4.24-4.24,4.24ZM87.5,334l-4.24,4.24L79,334l4.24-4.24L87.5,334Zm-5.08-5.08-4.24,4.24-4.24-4.24,4.24-4.24,4.24,4.24ZM68,373.77l-4.23-4.23L68,365.3l4.24,4.24L68,373.77Zm5.09-5.08-4.24-4.24,4.24-4.24,4.24,4.24-4.24,4.24Zm5.08-5.08-4.24-4.24,4.24-4.24,4.24,4.24-4.24,4.24Zm5.08-5.08L79,354.29l4.24-4.24,4.24,4.24-4.24,4.24Zm4.24-14.41-4.24,4.24L79,344.12l4.24-4.23,4.24,4.23ZM82.42,339l-4.24,4.24L73.94,339l4.24-4.24L82.42,339ZM77.34,334,73.1,338.2,68.86,334l4.24-4.24L77.34,334Zm-5.09-5.08L68,333.12l-4.23-4.24L68,324.64l4.24,4.24Zm-9.32,39.81-4.24-4.24,4.24-4.24,4.24,4.24-4.24,4.24ZM68,363.61l-4.23-4.24L68,355.13l4.24,4.24L68,363.61Zm5.09-5.08-4.24-4.24,4.24-4.24,4.24,4.24-4.24,4.24Zm5.08-5.08-4.24-4.24L78.18,345l4.24,4.24-4.24,4.24Zm-.84-9.33-4.24,4.24-4.24-4.24,4.24-4.23,4.24,4.23ZM72.25,339,68,343.28,63.78,339,68,334.8,72.25,339ZM67.17,334l-4.24,4.24L58.69,334l4.24-4.24L67.17,334Zm-4.24,24.57-4.24-4.24,4.24-4.24,4.24,4.24-4.24,4.24ZM68,353.45l-4.23-4.24L68,345l4.24,4.24L68,353.45Zm-5.08-5.09-4.24-4.24,4.24-4.23,4.24,4.23Z"/><path class="cls-32" d="M93.26,320.68H52.93a1.76,1.76,0,0,0-1.76,1.76h0a1.76,1.76,0,0,0,1.76,1.76H93.26A1.76,1.76,0,0,0,95,322.44h0A1.76,1.76,0,0,0,93.26,320.68Z"/><path class="cls-33" d="M460.09,156.32c12.29,3,38.61,6.35,57.51,16.94,0,0-15.06,42.76-5.2,81.49l-11.67,66.19a4,4,0,0,1,.72,5.39s8.67,34.3,9.25,37.48-3.51,13.37-3.51,13.37a17.46,17.46,0,0,0-10.43.51H354.39c-5.7-2.05-9-3.5-9-3.5s-5.51-7.2-4.93-10.38,9.25-37.48,9.25-37.48a4,4,0,0,1,.72-5.39l-11.67-66.19c14.74-31.68,3.49-82.85,3.48-82.89,17.6-7.37,38.33-13,48.82-15.54h69Z"/><path class="cls-34" d="M423,187.32c-31.32,0-36-30-36-30l0-.08c1.29-.27,2.5-.53,3.6-.79l.1,0c9-2.82,11.66-6.38,11.66-15.2V124.09a54.15,54.15,0,0,1,46.56,0v17c0,7.14,2.56,13.28,11.24,15.22h0c1.24.3,2.63.61,4.13.92l0,.08S454.3,187.32,423,187.32Z"/><path class="cls-35" d="M429.9,170.47s30.53-5.69,36.17-5.65"/><path class="cls-35" d="M384,161.68s28.83,3.2,31.2,6.76"/><path class="cls-36" d="M381,167.86a.9.9,0,0,1,.57-1.13.89.89,0,0,1,1.12.57c0,.1,8.44,24.22,32.07,30.71,10.39,2.85,22.92.12,30-3.82,9-5,14.34-10.52,18.58-19.6.21-.45.84,7.57,1.28,7.77s.54-7.47.34-7c-4.38,9.38-10,15.18-19.33,20.4-7.43,4.16-20.41,7-31.3,4C389.69,193,381,168,381,167.86Z"/><path class="cls-37" d="M312,357.25a8.06,8.06,0,0,1-5.54-4c-1.81-3.46,5.67-12.83,5.67-12.83s5.27,3.54,5.51,4.72S314.44,356.62,312,357.25Z"/><path class="cls-34" d="M288.2,319.51a7.05,7.05,0,0,1-5.07,2.13c-3.43.12-18.25.65-20.68,1s-9.56,4.2-3.89,14.24c-4.19,2-6.3,8.52-3.07,12,1.15,1.25,3.07,2.36,6.05,4,0,0,0,8.49,3.51,10.74s7.56,4.49,12.23,4.49h23.49c1.29,0,3.6-1.84,4.48-3.8s.12-6.62.12-6.62,4.85-4.25,6.26-10S313.05,332,313.05,332,306.2,321,288.2,319.51Z"/><path class="cls-34" d="M258.56,336.88l23.9,10.47c2,.87,2.83-1.88,2.83-3.65s-.12-5.9-6.44-10.33-6.91-4.67-6.91-4.67a5,5,0,0,0-2.3-3.72C267.57,323.92,259.36,327.28,258.56,336.88Z"/><path class="cls-38" d="M272.57,330.13a.9.9,0,0,1-.2-.14,8.46,8.46,0,0,0-.76-.46c-2.25-3-1.56-5.34-1.56-5.34.8,1.65,1.63,2.68,2.41,2.91l.35-1.84a.89.89,0,1,1,1.75.32l-.62,3.33c1,.69,2.72,1.84,5.42,3.73a16.4,16.4,0,0,1,5.89,6.53,10.36,10.36,0,0,1,.94,4.53,7.35,7.35,0,0,1-.56,2.79,4.38,4.38,0,0,1-.61,1c1.42.62,2.87,1.24,4.45,1.88l0,0a18.92,18.92,0,0,1-1.48-2.33.9.9,0,0,1,.4-1.2.88.88,0,0,1,1.19.39,20.69,20.69,0,0,0,15.83,10.56.89.89,0,1,1-.17,1.77A21.64,21.64,0,0,1,293,353.18a5.5,5.5,0,0,1,.08,1.93h0a5.23,5.23,0,0,1-.76,2.11,3,3,0,0,1-1,1,11.18,11.18,0,0,1,5.12,1.92,7.39,7.39,0,0,1,2.88,4.08h0a5.51,5.51,0,0,1,.15,1.22,3.75,3.75,0,0,1-.56,2.05,3.13,3.13,0,0,1-2,1.38,4.71,4.71,0,0,1-1.18.14.9.9,0,0,1,0-1.79,2.81,2.81,0,0,0,.76-.08,1.44,1.44,0,0,0,.92-.6,2,2,0,0,0,.27-1.1,3.44,3.44,0,0,0-.09-.8h0a5.55,5.55,0,0,0-2.19-3.06A9.5,9.5,0,0,0,291,360c-5-.67-7.73-1.17-8.08-1.23l-7.8-.32h0a11.75,11.75,0,0,1-4.08-.74l-9.78-3.95a.89.89,0,0,1,.66-1.66l9.79,3.95a10.08,10.08,0,0,0,3.41.62h0L283,357h0c.65,0,6.16-.2,7.45-.28.05,0,.17-.16.32-.4a3.61,3.61,0,0,0,.5-1.41h0a3.49,3.49,0,0,0-.17-1.71,3.83,3.83,0,0,0-2.3-2.12c-2-.81-3.92-1.65-5.87-2.5l-.8-.35h0L258.2,337.69a.89.89,0,0,1,.71-1.63l23.91,10.47h0a.87.87,0,0,0,.35.08.54.54,0,0,0,.37-.16,1.86,1.86,0,0,0,.44-.68,5.39,5.39,0,0,0,.41-2.08,8.72,8.72,0,0,0-.77-3.8,14.65,14.65,0,0,0-5.29-5.8C275.15,331.86,273.46,330.71,272.57,330.13Z"/><path class="cls-39" d="M291.36,363.48h1a0,0,0,0,1,0,0v4a.51.51,0,0,1-.51.51h0a.51.51,0,0,1-.51-.51v-4A0,0,0,0,1,291.36,363.48Z" transform="translate(-84.48 87.69) rotate(-14.95)"/><polygon class="cls-40" points="291.05 365.94 286.98 359.77 290.07 358.95 293.15 358.12 292.7 365.5 291.05 365.94"/><path class="cls-39" d="M289.28,342.95H291a.62.62,0,0,1,.62.62v10.24a.62.62,0,0,1-.62.62h-1.76a0,0,0,0,1,0,0V342.95A0,0,0,0,1,289.28,342.95Z" transform="translate(-80.13 86.75) rotate(-14.95)"/><path class="cls-41" d="M292.45,359.61l-4.22,1.12c-.77.21-1.6-.44-1.87-1.45L267.43,286.2a.64.64,0,0,1,.34-.84l5.93-1.59c.29-.08.61.17.72.56l18.93,73.08A1.72,1.72,0,0,1,292.45,359.61Z"/><path class="cls-42" d="M268.29,282.09h4.24a1.13,1.13,0,0,1,1.13,1.13v1.39a0,0,0,0,1,0,0h-6.49a0,0,0,0,1,0,0v-1.39a1.13,1.13,0,0,1,1.13-1.13Z" transform="matrix(0.97, -0.26, 0.26, 0.97, -63.95, 79.36)"/><path class="cls-34" d="M293.14,326.72l-1.65,5-1,.45a22.28,22.28,0,0,0-4.43-1.24,1.46,1.46,0,0,0-1.36,1.86,4.52,4.52,0,0,0-1.06,3.63c.38,2.09,2.92,6.85,6.82,7.91a9.74,9.74,0,0,0,7.12-.94,13,13,0,0,0,7.32.59C312.66,342,302.81,327.52,293.14,326.72Z"/><path class="cls-43" d="M290.51,332.19a22.28,22.28,0,0,0-4.43-1.24,1.46,1.46,0,0,0-1.36,1.86s.47-.89,2.16.08,2.77,2.87,3.48,3.52a3.39,3.39,0,0,0,3,.82A5.76,5.76,0,0,0,290.51,332.19Z"/><path class="cls-44" d="M342.23,171.86a19.81,19.81,0,0,0-3.48,7.38c-2,8.92-3.86,22-8.06,38.4C324.45,242,302,283.84,302,283.84a5.65,5.65,0,0,0-2.67,6s-7.2,8-10.81,11.11-2.53,9.09-.65,11.69a34.63,34.63,0,0,0-4.13,3.84c-1.36,1.65-.11,5.11-.11,5.11s9.62-1.57,20.84,7.88S312,357.25,312,357.25s3.78,1.12,5.85-1.24,11.45-16,11.45-16,10.1,1,12.47-5.25,8.15-15,10-36.11c0,0,4.09-23.15,4.34-28.85C360.1,248.16,350.21,188.49,342.23,171.86Z"/><path class="cls-38" d="M282.79,336.6a.89.89,0,1,1,1.75-.32,8.78,8.78,0,0,0,1.23,3.15,9.63,9.63,0,0,0,3.82,3.49,7.8,7.8,0,0,0,4.91.76,7.62,7.62,0,0,0,2.63-1l.08,0c.29-.16,1.9-1.1,2.16-2a.88.88,0,0,1,1.09-.61.89.89,0,0,1,.62,1.1,4.54,4.54,0,0,1-1.48,2,11,11,0,0,0,5.1,0,.89.89,0,0,1,.44,1.73,13.7,13.7,0,0,1-7.45-.47,9.47,9.47,0,0,1-2.87,1,9.63,9.63,0,0,1-6-.91,11.44,11.44,0,0,1-4.53-4.15,10.56,10.56,0,0,1-1.47-3.77Zm9.93-5.76a7.82,7.82,0,0,1,3.36,1.31.89.89,0,1,1-1,1.48,4.77,4.77,0,0,0-3.38-1,.9.9,0,0,1-1.08-1.15l1.65-5a.89.89,0,0,1,1.7.56Z"/><path class="cls-37" d="M351.32,294.73s.27,8.56,0,11.86c-1.12,13.74-6.83,23.32-8.77,28.47-2.26,6-10.65,6-12.85,5.86-1.59,2.31-9.34,13.52-11.23,15.68h0a.91.91,0,0,1-1.26.08.89.89,0,0,1-.08-1.26c1.85-2.12,9.8-13.62,11.19-15.62-5.41-34.26-40.12-26.29-40.22-26.27a.89.89,0,0,1-1.06-.68.9.9,0,0,1,.69-1.06c.1,0,36.4-8.36,42.29,27.37,2.19.09,9.08,0,10.86-4.73A68.59,68.59,0,0,0,351.32,294.73Z"/><path class="cls-37" d="M299.74,290.68a50.92,50.92,0,0,1,16-3.61,43.58,43.58,0,0,1,12.4.94A36.44,36.44,0,0,1,339,292.39a.89.89,0,1,0,.92-1.52,38.36,38.36,0,0,0-11.37-4.6,45.72,45.72,0,0,0-12.9-1A53,53,0,0,0,299,289.05a.89.89,0,0,0,.73,1.63Z"/><path class="cls-37" d="M302.49,284.61a40.45,40.45,0,0,1,24.8-4,.89.89,0,0,0,.27-1.76,42.48,42.48,0,0,0-26,4.25.89.89,0,1,0,.9,1.54Z"/><path class="cls-44" d="M389.25,377.69H354.39c-5.7-2.05-9-3.5-9-3.5s-5.51-7.2-4.93-10.38,9.25-37.48,9.25-37.48a4,4,0,0,1,.72-5.39s.13-54.85-5-71.94-3.16-77.1-3.17-77.14c15.52-6.5,34-14,45.21-16.39l5.62,104.26s2.05,15.39.48,25.47C392.66,290.8,392.36,336,389.25,377.69Z"/><path class="cls-45" d="M350.42,320.94c-.23-5.34-.39-10.68-.67-16s-.49-10.66-.79-16c-.63-10.65-1.3-21.32-2.86-31.81l-.69-3.9c-.26-1.29-.61-2.54-.91-3.81a57.42,57.42,0,0,1-1.58-8c-.66-5.35-1-10.7-1.22-16-.42-10.7-.26-21.4.17-32.09.35,10.69.71,21.37,1.39,32,.37,5.31.78,10.63,1.54,15.87a59.33,59.33,0,0,0,1.57,7.7c.32,1.32.7,2.65,1,4l.73,4a282.78,282.78,0,0,1,2.43,32.05C350.84,299.55,350.78,310.25,350.42,320.94Z"/><path class="cls-44" d="M517.6,173.26c29,9.78,10.93,55,35.61,93.58,7.6,15.88-66.74,4.73-66.74,4.73S498.49,180.14,517.6,173.26Z"/><path class="cls-44" d="M464.22,157.24c13.39,2.81,36.38,6.5,53.38,16,0,0-15.06,42.76-5.2,81.49l-11.67,66.19a4,4,0,0,1,.72,5.39s8.67,34.3,9.25,37.48c.52,2.85-2.7,11.29-3.38,13.05l-1.21.06a18,18,0,0,0-7.64.25c-18.78.45-53.72.52-55.2.52h0s1.58-66.87,2.84-96.47S464.22,157.24,464.22,157.24Z"/><path class="cls-46" d="M515.43,180.44s-2.56,62.81,0,65.3"/><path class="cls-38" d="M402.29,141V124.09a54.15,54.15,0,0,1,46.56,0v17c0,3.79.72,3.6,2.69,6.34-3.56,4.64-13.12,8.85-15.84,9.8-3.67,1.29-5,2.07-9.21,1.41a25.83,25.83,0,0,1-11.43-4.47C412.22,152.05,406.73,146.06,402.29,141Z"/><path class="cls-47" d="M485.71,81.35S481,124.4,471.76,129c3.23-11,0-37.29,0-37.29Z"/><path class="cls-34" d="M473.81,95.54s4.59-4.15,7.44-3.65,5.88,6.93,5.1,11.54-7.56,20.25-16.47,13.34S473.81,95.54,473.81,95.54Z"/><path class="cls-38" d="M469.79,100.44a1,1,0,0,0-.31,1.19.56.56,0,0,0,.85.22h0s1.36,14.48,3.66,12.44,4.7-4,5.89-7.55-1.74-7.14-.5-8,2.25.7,2.35.84h0a9.45,9.45,0,0,1,1.14,2.78.58.58,0,0,0,.87.42,1.09,1.09,0,0,0,.53-1.14S483.1,96.1,479.11,96C475.29,95.81,469.8,100.42,469.79,100.44Z"/><path class="cls-47" d="M387.36,120.34s3.8,10.57,7.5,13.36a31.34,31.34,0,0,1,0-13.36Z"/><path class="cls-47" d="M377.23,89.38S388.11,122,384,128.21c7.11-6.64,10.06-23.61,10.06-23.61l7.13-35.49Z"/><path class="cls-47" d="M413,2.2s-25.68,0-45.77,43c-6.57,15.87-4.42,44.19,7.47,53.86C386.4,108.54,413,2.2,413,2.2Z"/><path class="cls-34" d="M387.67,88.68s-3.88-4.83-6.76-4.78-6.91,5.92-6.86,10.59,4.27,21.19,14.15,15.77S387.67,88.68,387.67,88.68Z"/><path class="cls-38" d="M390.87,94.15a1,1,0,0,1,.12,1.23.57.57,0,0,1-.88.08h0s-3.62,14.09-5.57,11.7-4-4.69-4.63-8.38,2.85-6.77,1.76-7.8-2.34.33-2.46.46h0A9.37,9.37,0,0,0,377.64,94a.59.59,0,0,1-.93.28,1.08,1.08,0,0,1-.34-1.2s2-5.32,6-4.84C386.17,88.71,390.86,94.13,390.87,94.15Z"/><path class="cls-34" d="M437.77,27.25c58.88,6,45.2,50.83,36.76,87.38a51,51,0,0,1-12.87,24.1c-19.41,20.05-40.51,22.87-62.83-3.91,0,0-12.66-12-13.48-27.77C383.39,69.59,378.75,22.94,437.77,27.25Z"/><path class="cls-38" d="M476.51,100.29s-11.58-37-27.32-52.2c-7.66-6.42-8.56,6.49-8.56,6.49s-9.47,21.47-29.4,22l-.41-6.36c-7.42,2.66-13,11-18.49,19.79,0,0,27.2-56.53,60.59-47.19S476.51,100.29,476.51,100.29Z"/><path class="cls-38" d="M462.81,63.7s2.79,16.91.53,20.71c7.1-.55,9.11-4.65,9.11-4.65s0-13.55-.43-14S462.81,63.7,462.81,63.7Z"/><path class="cls-38" d="M433.28,110.08s1,9.5.7,10.3c-.21.51-1.21,3-1.21,3s2.49-1.39,2.89-2.36S433.28,110.08,433.28,110.08Z"/><path class="cls-38" d="M415.1,130.12c0,3.15,29.13,5.63,29.61,2.49C444.4,137.42,414.33,134.86,415.1,130.12Z"/><path class="cls-38" d="M424.63,136.27c3.42,1.31,11.86,2.14,12.49.18C436.33,140.13,424.62,137.88,424.63,136.27Z"/><path class="cls-48" d="M475.06,85.48s1.5,13.35.31,23.22l7-12.3Z"/><path class="cls-48" d="M387.36,80.61s-2.47,15.08-1.49,22.94l-5.23-10.2.08-8.31Z"/><path class="cls-49" d="M427.74,98.19c-.23-2.16-1.79-2.5-3.61-2.89l-.58-.13a92.66,92.66,0,0,0-18.3-2.45,42.49,42.49,0,0,0-10.17.86,2.84,2.84,0,0,0-1.65,1,5.78,5.78,0,0,0-1,3,12.13,12.13,0,0,0,.24,3.78,7.8,7.8,0,0,0,2.21,4.3c1.4,1.09,5.18,2.1,9.38,2.81a59.15,59.15,0,0,0,13.17.94,11.83,11.83,0,0,0,6.26-2.4,13.32,13.32,0,0,0,3.31-3.9,6.18,6.18,0,0,0,.73-2.14,11.05,11.05,0,0,0,.05-2.79Zm11.08.49c.42-2.14,2-2.34,3.85-2.57l.59-.07a91.42,91.42,0,0,1,18.44-.85,43.23,43.23,0,0,1,10.06,1.74,2.87,2.87,0,0,1,1.55,1.19,5.76,5.76,0,0,1,.78,3,11.91,11.91,0,0,1-.57,3.75,7.74,7.74,0,0,1-2.58,4.08c-1.48,1-5.34,1.65-9.59,2a59.78,59.78,0,0,1-13.19-.21,11.83,11.83,0,0,1-6-2.94,13.53,13.53,0,0,1-3-4.17,6.56,6.56,0,0,1-.53-2.2,10.9,10.9,0,0,1,.19-2.78Zm-15-4.74.56.12a9,9,0,0,1,3,1h0a3.44,3.44,0,0,1,.36.28,6.18,6.18,0,0,0,2.93,1.27l2.63.11,2.64.12a6.25,6.25,0,0,0,3-1l.39-.24h0a8.94,8.94,0,0,1,3.11-.75l.57-.07a94.08,94.08,0,0,1,18.7-.86,44.42,44.42,0,0,1,10.35,1.8,3.78,3.78,0,0,1,1.26.66A13.12,13.12,0,0,0,478,98l2.29.1s1.06.1,1,.94-.09,2-.13,3-1,1.35-2,1.57-1.35.28-2.24.5a6.29,6.29,0,0,0-3,3,7.36,7.36,0,0,1-2.32,2.85c-1.68,1.1-5.76,1.84-10.19,2.2a60.84,60.84,0,0,1-13.52-.23,13.17,13.17,0,0,1-6.67-3.26,14.65,14.65,0,0,1-3.24-4.57,5.22,5.22,0,0,1-.25-.61c-1-2.48-2.16-3.17-3.21-3.22l-1.36,0-1.36-.06c-1,0-2.22.54-3.48,2.92-.09.2-.19.39-.3.59a14.61,14.61,0,0,1-3.63,4.26,13,13,0,0,1-6.93,2.66,60.48,60.48,0,0,1-13.48-.94c-4.39-.75-8.39-1.84-10-3.08a7.43,7.43,0,0,1-2.07-3,6.3,6.3,0,0,0-2.76-3.3c-.87-.29-1.23-.4-2.19-.7s-1.87-.66-1.82-1.73.1-2.21.13-3,1.11-.85,1.11-.85l2.27.1a12.87,12.87,0,0,0,4.76-1.21,4.08,4.08,0,0,1,1.32-.54,43.52,43.52,0,0,1,10.47-.89"/><path class="cls-50" d="M283.54,382.73H448.09a7.33,7.33,0,0,0,7.31-7.31h0a7.32,7.32,0,0,0-7.31-7.3H283.54a7.32,7.32,0,0,0-7.3,7.3h0A7.33,7.33,0,0,0,283.54,382.73Z"/><path class="cls-37" d="M379.12,158.74a.9.9,0,0,1,.8-1,.89.89,0,0,1,1,.79c0,.29,6.61,101.76,6.93,108.88s-1.11,98.21-1.12,98.47a.89.89,0,1,1-1.78-.1c0-.26,1.43-91.26,1.12-98.3S379.15,159,379.12,158.74Z"/><path class="cls-37" d="M468.27,158.12a.89.89,0,1,1,1.76.25c0,.34-17,121-17.58,125.07-.63,4.68-1.57,82.83-1.57,83.05a.89.89,0,1,1-1.78,0c0-.22.94-78.48,1.58-83.26.72-5.41,17.54-124.74,17.59-125.09Z"/><ellipse class="cls-51" cx="415.09" cy="101.08" rx="5.39" ry="3.01" transform="translate(311.29 515.49) rotate(-89.62)"/><ellipse class="cls-51" cx="451.54" cy="102.87" rx="4.89" ry="2.84" transform="translate(286.07 535.42) rotate(-81.9)"/><path class="cls-47" d="M415.8,83.45a4.05,4.05,0,0,0,2.43-.06,4.5,4.5,0,0,0,2.22-2.79c0-.45-.7.23-2.86-.89s-10-3.92-15.91,1.49c-1,.94-.33,1.74.9,1.4A15.68,15.68,0,0,1,415.8,83.45Z"/><path class="cls-47" d="M451.41,86.41a4,4,0,0,1-2.42-.16,4.54,4.54,0,0,1-2.12-2.87c.05-.45.7.25,2.9-.79S460,79.07,465.61,84.7c1,1,.26,1.75-1,1.36A15.67,15.67,0,0,0,451.41,86.41Z"/><path class="cls-47" d="M397.49,80.07c2.92-4.21,7.76-8.1,14.81-11.6.69,3.1-1.07,8.14-1.07,8.14,17-3,26.34-24.13,26.34-24.13-4.29,26.46-12.55,32.12-12,33,0,0,25-8.49,31.24-32.17C470.09,62.67,479.13,102,479.13,102s23-8.25,20.05-38c-2.64-26.91-25.64-67.21-52.5-62.61A38.66,38.66,0,0,1,430.37.85c-5.83-1.54-14.55-1.64-24.62,5.36-15.42,10.72-29.58,28.55-33.37,56.38-1.37,10.09-1.72,20.22,3.46,29l3.78,8.07,8.25-17Z"/><path class="cls-47" d="M376.49,45.19C419.37,55.7,457.34,9.54,457.34,9.54c-9,31.4-49.78,59-84.28,58.91A94.94,94.94,0,0,1,376.49,45.19Z"/><path class="cls-47" d="M464.07,14.47c6,.32,14.84-.94,22.83,7.68S500,66.94,507.7,67.32C500,73.7,477,53.28,470.46,36.05S464.07,14.47,464.07,14.47Z"/><path class="cls-47" d="M458.3,49.61s10.35,40.15,5,46.61c10.66-2.44,13.08-21.1,11.44-27.71S463.77,48.62,458.3,49.61Z"/><path class="cls-52" d="M3.78,375.42H690.44c2.08,0,3.78,5.64,3.78,12.54h0c0,6.9-1.7,12.55-3.78,12.55H3.78C1.7,400.51,0,394.86,0,388H0C0,381.06,1.7,375.42,3.78,375.42Z"/><path class="cls-53" d="M88.62,338.35c-21.46-27.88,6-27,14.08,4.13Z"/><path class="cls-53" d="M111.42,341.09c21.43-24.34-1.61-27.59-12.27,2Z"/><path class="cls-54" d="M91.6,334.88c-3.7-32.48,21-20.72,10.56,9.18Z"/><path class="cls-54" d="M111,336.63c11.31-30.39-11.37-25.19-10.76,6.23Z"/><path class="cls-54" d="M89.6,344.88c-28.85-14.81-8.6-26.27,12.15-2.66Z"/><path class="cls-54" d="M113.75,344.88c28.85-14.81,8.59-26.27-12.15-2.66Z"/><path class="cls-53" d="M93.81,343.16c13.44-29.24,27.57-3.72,3.93,14.34Z"/><path class="cls-53" d="M104.54,348.53c-13.43-29.24-27.57-3.72-3.92,14.34Z"/><path class="cls-3" d="M78.89,340.44a2.17,2.17,0,0,0-1.51,2.67c.34,2.27,5.35,29.38,5.35,29.38a3.7,3.7,0,0,0,3.59,2.93h30.85a3.7,3.7,0,0,0,3.59-2.93s5-27.11,5.35-29.38a2.16,2.16,0,0,0-1.5-2.67Z"/><path class="cls-32" d="M77.94,346.33c.19,1.05.41,2.3.66,3.67h46.29c.25-1.37.47-2.62.66-3.67Z"/><path class="cls-1" d="M307.75,108.72a1.34,1.34,0,0,1,2.68,0v2.73a1.34,1.34,0,0,1-2.68,0v-2.73Zm7.84,5.16a1.34,1.34,0,1,1,0,2.68h-2.74a1.34,1.34,0,0,1,0-2.68Zm-10.26,0a1.34,1.34,0,1,1,0,2.68H302.6a1.34,1.34,0,0,1,0-2.68Zm2.42,5.1a1.34,1.34,0,0,1,2.68,0v2.73a1.34,1.34,0,0,1-2.68,0Z"/><polygon class="cls-55" points="364.61 365.05 458.03 360.27 458.03 375.19 364.61 375.19 364.61 365.05"/><path class="cls-56" d="M438.21,375.19H618.33a4.58,4.58,0,0,0,4.45-3.49l28.39-117a4.57,4.57,0,0,0-4.44-5.65H466.61a4.58,4.58,0,0,0-4.45,3.49L433.77,369.54A4.57,4.57,0,0,0,438.21,375.19Z"/><path class="cls-55" d="M444,369.69H624.16a4.58,4.58,0,0,0,4.45-3.49L657,249.14a4.59,4.59,0,0,0-4.45-5.65H472.43A4.56,4.56,0,0,0,468,247L439.61,364A4.57,4.57,0,0,0,444,369.69Z"/><polygon class="cls-38" points="425.57 116.89 427.53 115.06 425.34 115.97 425.57 116.89"/><path class="cls-47" d="M406.76,64.25s-19.05,36.38-12.63,43.13c-9.05-5.38-9.89-26.47-7.78-33.52S406.76,64.25,406.76,64.25Z"/><path class="cls-47" d="M460.11,51S448.83,76.44,443,78.32c3.51-7.69,7.16-21.84,7.16-21.84Z"/><path class="cls-3" d="M221.82,324.65a1.34,1.34,0,1,1,2.19,1.53l-1.56,2.25a1.34,1.34,0,0,1-2.2-1.53l1.57-2.25Zm3.48,8.71a1.34,1.34,0,0,1-1.53,2.2L221.52,334a1.35,1.35,0,0,1-.33-1.87,1.33,1.33,0,0,1,1.86-.33l2.25,1.56Zm-8.42-5.86a1.34,1.34,0,0,1-1.53,2.2l-2.24-1.57a1.34,1.34,0,1,1,1.53-2.19l2.24,1.56Zm-.93,5.57a1.34,1.34,0,0,1,2.2,1.53l-1.56,2.24a1.34,1.34,0,1,1-2.2-1.53Z"/></svg>