<svg xmlns="http://www.w3.org/2000/svg" viewBox="0 0 940.87 140.28"><defs><style>.cls-1{fill:#0a1f29;}</style></defs><title>ld_1</title><g id="圖層_2" data-name="圖層 2"><g id="圖層_8" data-name="圖層 8"><path class="cls-1" d="M939.72,30.19V28.51l-1.12-1.25L938,29l-.09,1.32-1.31,1.57-1.67-.82V29.14l-1.31,2.73v1.45l-.93,1.21-1.49-1.4-1.3-1.88v1.68l-1.21,1.21v.78l-2.79-.39V33.09l-.75-1.68-1.39,1.79v1.45l-1.49,2.5-1.77-.74-.56-.61.94-.85-2-1.69-1.12,2a9.74,9.74,0,0,1,.7.81s-.92,1.13-.92,1.13L916,38.55l.38.37-.94-.57v-.83l-.49-.66-.63.77.21.66-.63,1h-3l-1.59-.92-1.73-2L906,38.73l1.19,1.34-1.84,2.36s-1.47-.64-1.87-.8-.53-1.79-.53-1.79L900.27,36v6.13l-1.06,1.56-2.19-1-.9-1.34-1.33-2.75-1.24,3s1,1.75,1,1.86-1,2.38-1,2.38l-4.24.07v-1.3l-.45-2.38s-1.68-1.93-1.68-1.74v6.91a19.82,19.82,0,0,1-2.56,1.22,18.71,18.71,0,0,0-1.68-1.74l-1.59-2.27-1.07,3.05v2.15L879,51.22s-2.25-1.48-2.34-1.59.88-1.3.62-1.48-2.3-2.86-2.3-2.86l-1.77,3.3L875,50l-1.6,2.12-2.56,1.52s-3.8-1.48-3.8-1.6.79-1.3.53-1.7-1.42-2.79-1.42-2.79L865,51.53s.8.59.71,1-.71,3-.71,3a15.77,15.77,0,0,1-3-.93c0-.22-.26-2.27-.26-2.41a20.18,20.18,0,0,0-1.15-1.86l-1.15,2.15.09,1.45-1.24,1.86.18,1.86-2.3,2.15L853,58V55s-4.07-4.24-4.33-4.5-1,4-1.06,4.09,1.59,2.11,1.59,2.23-1.51,2.6-1.51,2.6l.27,1.45-3.19,1.26-4.37-1.79.93-2.84-2-4.73-2.13,5.62L838.31,61s-1.46,3.29-1.19,3.68a8.72,8.72,0,0,1-.4,4.13c-.4.39-3.45,3.51-3.45,3.51l-1.86-2.12.67-2.17-2.66-3.85V61.69l-2,3.45V67.2l-1.19,3.85v1.23l-3-.84-.27-2.9L820,65.42V63.81l-2.12,5.79s.27,2.06,0,2.4-1.19,2.17-1.19,2.17L815,73.06l-1.59-3.29-2.26-2L811,70.33l.79,3L811,75.34l-3.45.78-2.65-1.62.66-2.39-2.39-2.4-1.72,5-2.12,3-7.17,1.51s-3.45-3.63-3.45-3.79-.62-4.24-.62-4.24l-2.83-1.45v4l1.59,1.84-1.59,2.62,1.33,1.45-2.79,3.07,2.39.89-3.32,2.78-3.84-3,.79-1.67s-3-1.9-2.65-2.17a6,6,0,0,0,1-1.55s-3-6.31-3.12-6l-2.79,5.57a2.83,2.83,0,0,0,.66.84c.46.38-2.65,2.73-2.65,2.73l1.33,1.17-1.33,2.23s-3.85-3.24-3.71-3.4a14.45,14.45,0,0,0,1.59-2.62c-.14-.17-2.52-3.46-2.52-3.46l-2.39,3.79-1.56,1.61v2.63l-4.15,1.39-5.17-4.24V76.73l-1.06-2s-1.59,2-1.73,2.29.67,1.28.67,1.28L747,84.2l-3.18-2.4s.66-1.5.53-1.83-2.26-3.74-2.26-3.74l-2.78,4.07,1.32,1.06L738,85l-8.36,1.36L725.8,82.7V81.3l-1.32-2.06-2.66,3.12s1.2.5,1.06.67-2,3.34-2,3.34l-4.77-.66V83s-1.73-2-2-1.68-3.85,5.07-3.85,5.07v1.17l-5.7.39s-1.86-3.06-1.73-3.39-2.12-1.68-2.12-1.84,1.72-2.46,1.72-2.46l-1.72-4.4-2.39,4.35v7.35S694,84.87,694,84.7s-.8-2.9-.8-2.9l-2.25,3.91-3.58,3.45-1.86-2.56.93-1.23s-1.46-2.56-1.59-2.39l-3.19,3.84-1.86,3.12h-4.9l-.9-1.29.76-2.94-2.52-2.62-1.86,2.56v1.28l-.92,1.23v2.23l-4.78,1.78s1.06-1.23.93-1.56-1.73-2.34-1.73-2.51-.93-3.09-.93-3.09l-1.85,3.43v2.17l-2.13,2-1.32-1.39v-2.4L653.89,85l-1.19,4.37.4,1.17L650.71,93l-4.12,2.17-3.44-1.28,1.19-.78s-3.85-5.52-4.11-5.3A38.74,38.74,0,0,0,638,92.06a10.16,10.16,0,0,0,.93,2.62l-1.73,1.5-8.62,1.9V95.4l-2.92-5.46-4.51,3.34L623.24,97s-5.3,5.69-5.3,5.35-5.05-8-5.05-8V90.05l-3.18-3.9-3.45,5.91,2.65,1.56-2.65,4.68v2.56l-4,3.68,1.86,1.9-4.51,5.68-3.45-3.84a19.54,19.54,0,0,0,1.59-2.74c0-.33-4-3.12-3.18-3.45s2.38-1.12,1.59-1.56-5.84-9-5.84-9l-4,6.91,2.52,1.71-2.52,3.64-3,2.34-3.3-4.43-1.66-3.59-2.92,3.67V105l-4.51-.06-3.45-2.62s.8-1.45.93-1.67-1.73-2.56-2-1.84-1.86,3.85-1.86,3.85l.8,1-.8,2.62-4.25,3s-1.45-1.79-1.32-2a16.55,16.55,0,0,1,1.32-1.28s-1.85-5-2-4.63l-1.59,4.07.53,1.28s-1.85,1.84-2,2-4.77,1-4.77,1l-1.86-3.12-.93-2.85-1.19,1.62v2l-1.46,2.51-1.86,2-.93-.72.66-1.45-3.31-4.24-6.11,7.19,1.86.61-1.86,1.67-2.92-1.44s.6-1.82.82-1.87-.82-4.26-.82-4.26l-2.38,4.51.79,1.67-1.59,2.06-3,.35-.53-1.12,0-.17-1.46-3.24-1.65,2.62v2.68l-2.2.76-3.5-7.67,0,.14,0-.14-3.5,7.67-2.2-.76V113.9l-1.65-2.62-1.46,3.24,0,.17-.53,1.12-3-.35-1.59-2.06.8-1.67-2.39-4.51s-1,4.21-.82,4.26.82,1.87.82,1.87l-2.92,1.44-1.86-1.67,1.86-.61-6.1-7.19-3.32,4.24L488,111l-.93.72-1.85-2-1.46-2.51v-2l-1.2-1.62-.93,2.85-1.85,3.12s-4.65-.78-4.78-1-2-2-2-2l.53-1.28-1.59-4.07c-.13-.33-2,4.63-2,4.63a18.3,18.3,0,0,1,1.33,1.28c.13.22-1.33,2-1.33,2l-4.25-3-.79-2.62.79-1s-1.59-3.12-1.85-3.85-2.13,1.62-2,1.84.92,1.67.92,1.67l-3.45,2.62-4.51.06v-3.24l-2.92-3.67-1.66,3.59L447,106.1l-3-2.34-2.52-3.64,2.52-1.71-4-6.91s-5,8.58-5.83,9,.79,1.22,1.59,1.56-3.19,3.12-3.19,3.45a19.51,19.51,0,0,0,1.6,2.74l-3.45,3.84-4.51-5.68,1.85-1.9-4-3.68V98.3l-2.65-4.68L424,92.06l-3.45-5.91-3.18,3.9v4.24s-5,7.69-5,8S407.06,97,407.06,97l2.12-3.68-4.51-3.34-2.92,5.46v2.68l-8.62-1.9-1.73-1.5s1.07-2.23.93-2.62a40.49,40.49,0,0,0-2.25-4.24c-.27-.22-4.12,5.3-4.12,5.3l1.2.78-3.45,1.28L379.6,93l-2.39-2.46.4-1.17L376.41,85l-3.71,3.76v2.4l-1.33,1.39-2.12-2V88.44L367.39,85s-.93,2.92-.93,3.09-1.59,2.18-1.72,2.51.92,1.56.92,1.56l-4.77-1.78V88.16L360,86.93V85.65l-1.86-2.56-2.52,2.62.76,2.94-.89,1.29h-4.91l-1.86-3.12L345.5,83c-.14-.17-1.59,2.39-1.59,2.39l.92,1.23L343,89.16l-3.59-3.45-2.25-3.91s-.8,2.74-.8,2.9S332,87.54,332,87.54V80.19l-2.38-4.35-1.73,4.4s1.73,2.29,1.73,2.46-2.26,1.5-2.13,1.84-1.72,3.39-1.72,3.39L320,87.54V86.37l-3.84-5.07c-.27-.33-2,1.68-2,1.68v2.73l-4.78.66s-1.86-3.17-2-3.34,1.06-.67,1.06-.67l-2.65-3.12L304.5,81.3v1.4l-3.85,3.67L292.29,85l-2.65-3.65L291,80.3l-2.79-4.07s-2.12,3.4-2.25,3.74.53,1.83.53,1.83l-3.19,2.4-3.18-5.85s.79-1,.66-1.28S279,74.78,279,74.78l-1.07,2v3.51l-5.17,4.24-4.14-1.39V80.46l-1.56-1.61-2.39-3.79-2.52,3.46a13.9,13.9,0,0,0,1.59,2.62,41.17,41.17,0,0,1-3.72,3.4l-1.32-2.23,1.32-1.17s-3.11-2.35-2.65-2.73a2.64,2.64,0,0,0,.66-.84s-2.65-5.29-2.78-5.57-3.13,6-3.13,6a6.27,6.27,0,0,0,1,1.55c.4.27-2.65,2.17-2.65,2.17l.8,1.67-3.85,3-3.32-2.78,2.39-.89-2.79-3.07,1.33-1.45-1.59-2.62,1.59-1.84v-4l-2.83,1.45s-.62,4.07-.62,4.24-3.45,3.79-3.45,3.79L231,77.68l-2.13-3-1.72-5-2.39,2.4.66,2.39-2.65,1.62-3.45-.78-.79-2.06.79-3-.13-2.57-2.26,2-1.59,3.29-1.72,1.11s-.93-1.84-1.2-2.17a7.35,7.35,0,0,1,0-2.4l-2.12-5.79v1.61l-2.92,3.12-.26,2.9-3.06.84V71.05l-1.19-3.85V65.14l-2-3.45v2.45L198.23,68l.66,2.17L197,72.28s-3.05-3.12-3.45-3.51a8.72,8.72,0,0,1-.4-4.13C193.46,64.25,192,61,192,61l1.06-2.62-2.12-5.62-2,4.73.93,2.84-4.38,1.79-3.19-1.26.27-1.45s-1.5-2.49-1.5-2.6,1.68-2.12,1.59-2.23-.8-4.35-1.06-4.09-4.34,4.5-4.34,4.5v3l-3.09,1.82-2.3-2.15L172,55.8l-1.23-1.86.08-1.45-1.15-2.15a20.18,20.18,0,0,0-1.15,1.86c0,.14-.26,2.19-.26,2.41a15.77,15.77,0,0,1-3,.93s-.62-2.6-.71-3,.71-1,.71-1l-1.15-3.94S163,50,162.76,50.38s.53,1.59.53,1.7-3.81,1.6-3.81,1.6l-2.56-1.52L155.33,50l1.77-1.45-1.77-3.3s-2,2.67-2.3,2.86.7,1.37.62,1.48-2.35,1.59-2.35,1.59L150,49.78V47.63L149,44.58l-1.59,2.27a18.71,18.71,0,0,0-1.68,1.74,19.93,19.93,0,0,1-2.57-1.22V40.46c0-.19-1.68,1.74-1.68,1.74L141,44.58v1.3l-4.25-.07s-1-2.27-1-2.38,1-1.86,1-1.86l-1.24-3-1.32,2.75-.91,1.34-2.19,1L130,42.13V36l-2.65,3.84s-.14,1.62-.53,1.79-1.87.8-1.87.8l-1.85-2.36,1.19-1.34-1.59-2.34-1.72,2-1.59.92h-3l-.63-1,.21-.66-.63-.77-.49.66v.83l-1,.57.39-.37-1.51-1.32s-.91-1.08-.91-1.13a9.74,9.74,0,0,1,.7-.81l-1.12-2-2,1.69,1,.85-.57.61-1.76.74-1.49-2.5V33.2l-1.4-1.79-.74,1.68v1.44l-2.8.39v-.78l-1.21-1.21V31.25l-1.3,1.88-1.49,1.4-.93-1.21V31.87l-1.3-2.73v1.91l-1.68.82-1.3-1.57L92.36,29l-.66-1.72-1.11,1.25v1.68s-3.17.24-3.26,0-.93-1.44-.93-1.44V27.57L85.75,25l-1.68,1.53a8.34,8.34,0,0,1,.47,1,20.56,20.56,0,0,1-1.86,1.4l-.56-1.52-.84-1.6V25L80,22.88,79,25l.47,1.18-.93,1-2-1.68.46-1.29-.74-.86-.65-1.25L75,23.35v.78l-1.58.9a8.83,8.83,0,0,0-.28-1.25c-.09-.11-1.39-1.05-1.39-1.05V21.32l-.47-1.92-1.49,1.18-.46,1.52-1.59.43-.46-.78-2.48-1.44-.7-.57v-1l-.56-2.28-1.36,1.31-1.12,1-.56-.85-1.31-1.22-.42-1.55L58,16.66l-1.35.61-.75-1.12.51-.49-.51-1.35-1.12,1.06L55,16l-1,.84-1.21-1.06L53,15l-.79-1.48,1-.51-1.78-1.8L50.08,12.7l.67,1.11-1.86.71V16l-2.33.35V14.91l-2.42-1.57-2.23-1.48V10.69l-1.49-2.9-1.3,2.35v1.41L36,12.48,34.28,11,36,10.06,34.83,6,32.41,9.44v.93l-2.6,2.11-7.53-.05L21.17,7.51,18.93,3.28,15.75,8.47l-3.89,2-3-3.13V4.07L5.67,0,2.18,3.6V7.51L0,7.75V140.28H940.87v-110ZM515.15,118.57h0l0-.07,0,.07Z"/></g></g></svg>