<svg xmlns="http://www.w3.org/2000/svg" xmlns:xlink="http://www.w3.org/1999/xlink" viewBox="0 0 127.76 230.91"><defs><style>.cls-1{isolation:isolate;}.cls-2{fill:#0c2733;}.cls-3{fill:#0d2b3b;}.cls-4{fill:#fbe57f;}.cls-5{opacity:0.82;mix-blend-mode:screen;fill:url(#_190);}</style><radialGradient id="_190" cx="41.6" cy="18.8" r="12.58" gradientUnits="userSpaceOnUse"><stop offset="0" stop-color="#fbe57f"/><stop offset="0.17" stop-color="#baaa5e"/><stop offset="0.33" stop-color="#817641"/><stop offset="0.49" stop-color="#534c2a"/><stop offset="0.64" stop-color="#2f2b18"/><stop offset="0.78" stop-color="#15130b"/><stop offset="0.9" stop-color="#050503"/><stop offset="1"/></radialGradient></defs><title>ld_3</title><g class="cls-1"><g id="圖層_2" data-name="圖層 2"><g id="圖層_5" data-name="圖層 5"><g id="cliff"><polygon class="cls-2" points="17.04 32.04 61.81 39.77 61.81 43.14 17.04 35.41 17.04 32.04"/><path class="cls-3" d="M127.76,22.73,47,35.41l-4.6,12.07S31.9,52,26,55.66,19.25,59,19.25,59l1,7.26-13,2.87L0,78.68,9,98.31,43.18,106a18.65,18.65,0,0,0,2.91,5.42c1.84,2.15,4.6,4.91,4.6,4.91L62,118.13,74,143l-5.74,29.66L56.61,195.94l-3.89,35h75Z"/><path class="cls-3" d="M56.61,227.47l4.85-4.89,6.43-4.66H63.14c-.72,0-3.32-5-3.32-5l3.32-18.6-6.53,1.64-3.74,33.64,3-.75Z"/><path class="cls-2" d="M90.54,96.17,75.86,85.94,31.77,81.83l-4.3-2L0,78.68,9,98.31,43.18,106a18.65,18.65,0,0,0,2.91,5.42c1.84,2.15,4.6,4.91,4.6,4.91L62,118.13,74,143l-5.74,29.66L56.61,195.94l-3.89,35h75V100.4Z"/><polygon class="cls-2" points="20.24 66.29 38.62 64.86 41.79 60.87 54.67 58.62 55.49 56.58 19.25 59.03 20.24 66.29"/><polygon class="cls-2" points="42.43 47.48 51.19 45.23 53.55 42.03 59.48 40.52 60.6 37.76 47.03 35.41 42.43 47.48"/></g><polygon class="cls-3" points="54.17 23.99 98.94 31.72 98.94 35.09 54.17 27.36 54.17 23.99"/><polygon class="cls-3" points="54.17 23.99 17.04 32.04 61.81 39.77 98.94 31.72 54.17 23.99"/><polygon class="cls-3" points="65.36 8.5 29.72 4.35 29.72 32.04 65.36 32.04 65.36 8.5"/><polygon class="cls-3" points="68.05 9.31 27.04 4.35 27.04 2.18 27.04 0 68.05 4.96 68.05 7.13 68.05 9.31"/><rect class="cls-4" x="37.6" y="14.35" width="8.38" height="8.38"/><rect class="cls-2" x="21.9" y="33.72" width="2.45" height="25.31"/><rect class="cls-2" x="18.79" y="40.8" width="20.24" height="2.46" transform="translate(-22.11 41.76) rotate(-55.18)"/><circle class="cls-5" cx="41.6" cy="18.8" r="12.58"/></g></g></g></svg>