<svg xmlns="http://www.w3.org/2000/svg" viewBox="0 0 536.97 136.54"><defs><style>.cls-1{fill:#11434e;}</style></defs><title>ld_2_right</title><g id="圖層_2" data-name="圖層 2"><g id="圖層_5" data-name="圖層 5"><path class="cls-1" d="M517.49,8.93l-5.71-.74V3.92L508.49,0l-3,4.43V8l-2.8,3.41L499,9.24l-3-5.66L493.9,8.19l-1,5.37-7.08.06-2.45-2.3v-1L481,6.54,480,11l1.57,1L480,13.62l-3-1V11.06L475.78,8.5l-1.4,3.16v1.28l-2.1,1.62L470,16.26v1.58l-2.19-.38V15.84l-1.75-.77.63-1.21-1.28-1.61-1.67,2,1,.56-.75,1.6.18.79L463,18.33l-.92-.92.22-.64-1.05-1.16-.49,1.48.49.53-.71,1.22-1.27-.66-.8-1.73-.39,1.69-1.23,1.32-.53.92-1.06-1L454,17.9l-.53,2.48v1.16l-.66.62-2.33,1.57-.44.85-1.49-.47-.44-1.66-1.4-1.28-.44,2.09v1.53s-1.22,1-1.31,1.16a9.66,9.66,0,0,0-.26,1.36l-1.49-1v-.85l-.44-1.37-.61,1.37-.71.93.44,1.41L440,29.66l-.88-1.07.44-1.28-1-2.35-1.22,2.35v.85l-.79,1.75L436,31.58A18.56,18.56,0,0,1,434.25,30a9.87,9.87,0,0,1,.44-1.11l-1.58-1.66-.61,2.81v1.28s-.79,1.32-.88,1.58-3.07,0-3.07,0V31.11l-1.05-1.37-.61,1.88-.09,1.43-1.22,1.72L424,33.88V31.79l-1.23,3v1.58l-.87,1.32-1.41-1.53-1.22-2v1.84l-1.14,1.32v.85l-2.63-.43V36.1l-.7-1.84-1.32,2V37.8l-1.4,2.73-1.66-.81-.53-.66.89-.93-1.88-1.85-1.06,2.22a9.6,9.6,0,0,1,.66.88c0,.06-.86,1.24-.86,1.24l-1.41,1.44.36.4-.89-.62v-.9l-.46-.73-.6.84.2.72-.59,1.06h-2.83l-1.5-1-1.63-2.13-1.49,2.55,1.12,1.46-1.74,2.58-1.76-.88c-.37-.18-.5-1.94-.5-1.94l-2.5-4.2V46l-1,1.7-2.07-1.09-.85-1.46-1.25-3-1.16,3.24s.91,1.91.91,2S385.1,50,385.1,50l-4,.08V48.63L380.68,46a15.15,15.15,0,0,0-1.58-1.9v7.53A18.14,18.14,0,0,1,376.69,53a19.89,19.89,0,0,0-1.58-1.9l-1.5-2.48-1,3.33v2.35l-1.21,1.57s-2.12-1.61-2.21-1.73.84-1.42.59-1.62-2.17-3.12-2.17-3.12L366,53l1.66,1.58-1.5,2.31-2.41,1.66s-3.58-1.62-3.58-1.74.75-1.42.5-1.86-1.34-3-1.34-3l-1.08,4.3s.75.64.67,1.09-.67,3.28-.67,3.28-2.83-.77-2.83-1-.25-2.47-.25-2.64-1.08-2-1.08-2L353,57.27l.08,1.58-1.17,2,.17,2-2.16,2.35-2.92-2V59.94s-3.83-4.62-4.08-4.9-.91,4.34-1,4.46,1.5,2.31,1.5,2.43S342,64.77,342,64.77l.25,1.58-3,1.37-4.12-1.94.87-3.1-1.87-5.17-2,6.14,1,2.86s-1.38,3.58-1.13,4a10.94,10.94,0,0,1-.37,4.5c-.38.42-3.25,3.83-3.25,3.83l-1.75-2.31.63-2.37-2.5-4.2V67.3l-1.87,3.77v2.25l-1.13,4.19v1.34l-2.87-.91-.25-3.16-2.75-3.41V69.61l-2,6.32a9.1,9.1,0,0,1,0,2.62c-.25.36-1.12,2.37-1.12,2.37l-1.62-1.22-1.5-3.59-2.13-2.18-.12,2.79.74,3.22-.74,2.25-3.25.85-2.5-1.76.63-2.61L300,76.05l-1.62,5.47-2,3.23-6.75,1.64s-3.24-4-3.24-4.14-.59-4.62-.59-4.62l-2.66-1.58v4.38l1.5,2-1.5,2.85,1.25,1.58L281.18,90s-6-2.87-5.66-3.18a6.51,6.51,0,0,0,.94-1.68s-2.81-6.89-2.94-6.58-2.62,6.07-2.62,6.07a3.08,3.08,0,0,0,.62.92c.43.42-2.49,3-2.49,3l1.25,1.27L269,92.22s-3.63-3.52-3.5-3.7a16.75,16.75,0,0,0,1.5-2.86c-.13-.18-2.37-3.77-2.37-3.77L262.41,86l-1.47,1.76v2.86L257,92.16l-4.87-4.62V83.71l-1-2.12s-1.5,2.18-1.63,2.49.63,1.4.63,1.4l-3,6.38-3-2.61a6.66,6.66,0,0,0,.5-2c-.12-.37-2.12-4.07-2.12-4.07l-2.62,4.43,1.24,1.16-2.49,4-7.87,1.49-3.62-4V88.7l-1.25-2.25-2.5,3.4s1.12.55,1,.73-1.87,3.65-1.87,3.65l-4.5-.73v-3s-1.62-2.19-1.87-1.82-3.63,5.53-3.63,5.53v1.28l-5.37.42s-1.75-3.34-1.62-3.71-2-1.82-2-2,1.62-2.68,1.62-2.68l-1.62-4.8-2.25,4.74v8s-4.12-2.92-4.12-3.1-.75-3.16-.75-3.16l-2.12,4.25L191,97.27l-1.75-2.8.87-1.33s-1.37-2.8-1.5-2.62-3,4.2-3,4.2l-1.75,3.4h-4.62l-.84-1.4.71-3.22-2.37-2.86L175,93.44v1.4l-.87,1.34v2.43l-4.5,1.94s1-1.33.87-1.7-1.62-2.55-1.62-2.74-.87-3.37-.87-3.37l-1.75,3.74v2.37l-2,2.13L163,99.46V96.84l-3.5-4.1-1.12,4.77.37,1.28-2.24,2.67-3.88,2.38-3.24-1.4,1.12-.85s-3.62-6-3.87-5.78a46.82,46.82,0,0,0-2.13,4.62,12.31,12.31,0,0,0,.88,2.86l-1.62,1.64L135.64,107v-2.92l-2.75-6-4.25,3.65,2,4s-5,6.2-5,5.84-4.75-8.76-4.75-8.76V98.24l-3-4.25-3.25,6.44,2.5,1.7-2.5,5.11V110l-3.74,4,1.75,2.07-4.25,6.2-3.25-4.19a22.39,22.39,0,0,0,1.5-3c0-.36-3.75-3.4-3-3.77s2.25-1.21,1.5-1.7-5.49-9.85-5.49-9.85l-3.75,7.54,2.38,1.87-2.38,4-2.83,2.55L90,110.92,88.43,107l-2.75,4v3.53l-4.25-.07-3.24-2.85s.74-1.58.87-1.83-1.62-2.79-1.87-2S75.44,112,75.44,112l.75,1.1-.75,2.85-4,3.29s-1.37-2-1.25-2.19a16.7,16.7,0,0,1,1.25-1.4s-1.75-5.41-1.87-5-1.5,4.44-1.5,4.44l.5,1.4s-1.75,2-1.88,2.19-4.49,1-4.49,1l-1.75-3.4-.87-3.1-1.13,1.76V117l-1.37,2.73-1.75,2.13-.88-.79.63-1.58L52,114.9l-5.75,7.84,1.75.67-1.75,1.82-2.75-1.58a8.82,8.82,0,0,1,.77-2c.21-.05-.77-4.65-.77-4.65l-2.24,4.92.75,1.83L40.47,126l-3.54.49.29-1.52-1.37-3.53-1.56,2.86v2.92l-5.44,2.19.63-1.64,1-1.58-1.62-6.51-3.5,8.88v1.82l-3.12-3.46-1-3.35-2.75,6.81-2.37-2.19-1.25-3.71-.75,4-2.49,4.68-4.88-1.7s-.5-4.87-.87-4.81-2.37,5.29-2.37,5.29L0,136.54H537Z"/></g></g></svg>