<svg xmlns="http://www.w3.org/2000/svg" viewBox="0 0 508.6 113.36"><defs><style>.cls-1{fill:#12616d;}</style></defs><title>ld5</title><g id="圖層_2" data-name="圖層 2"><g id="圖層_5" data-name="圖層 5"><path class="cls-1" d="M85,49.41l11.13-.87,31.51-7.76,21.19-11.1,14.62.19,21.44,3.06,30.32-9.78,11.35-8.33,14.25-6.06h17.61l7.66-6.95,25-1.81s18.69,6,21,6.48,16.85,10.3,16.85,10.3l36,8.63s6.9,4.32,12.26,4.46S391,37.7,391,37.7l34.47,12.86,28.35,11.51,54.83,51.29L346.53,111s-161.62-1-165.45,0S0,113.36,0,113.36C0,112.8,42.89,64.2,42.89,64.2L61,60.93Z"/></g></g></svg>