<svg xmlns="http://www.w3.org/2000/svg" viewBox="0 0 377.03 175.92"><defs><style>.cls-1{fill:#13707d;}</style></defs><title>ld6</title><g id="圖層_2" data-name="圖層 2"><g id="圖層_5" data-name="圖層 5"><polygon class="cls-1" points="375.72 3.24 294.94 0 286.12 6.21 275.53 2.21 263.63 17.66 245.89 22.05 240.63 32.51 220.62 36.42 207.51 46.47 197.01 45.6 189.99 58.11 178.35 69.42 158.57 77.29 159.21 84.57 141.03 86.64 127.83 77.32 120.91 81.14 104.34 82.17 82.14 92.33 75.54 107.91 58.13 112.12 48.8 124.36 34.21 129.37 31.66 143.74 11.04 149.82 0 161.44 17.04 175.26 81.69 173.92 377.03 175.92 375.72 3.24"/></g></g></svg>