<svg xmlns="http://www.w3.org/2000/svg" viewBox="0 0 358.47 309.87"><defs><style>.cls-1{fill:#137f8c;}</style></defs><title>ld7_left_1</title><g id="圖層_2" data-name="圖層 2"><g id="圖層_5" data-name="圖層 5"><polygon class="cls-1" points="3.18 44.43 7.37 41.01 10.93 43.58 24.21 33.21 30 33.44 40.62 20.8 48.14 20.8 52.49 13.17 59.45 9.34 65.69 0 77.21 6.05 92.11 32.15 99.35 33.21 101.04 42.08 117.36 52.57 118.39 62.37 124.46 69.82 127 80.36 142.15 80.99 160.09 92.69 160.85 103.32 168.77 109.02 174.83 116.17 191.54 111.78 210.21 126.89 217.29 126.89 222 135.67 230.31 133.54 247.61 150.92 263.37 150.92 269.51 158.36 285.01 164.78 291.69 162.97 319.36 183.53 358.47 218.63 358.47 307.61 0 309.87 0 221.06 3.18 44.43"/></g></g></svg>