<svg xmlns="http://www.w3.org/2000/svg" viewBox="0 0 532.16 226.75"><defs><style>.cls-1{fill:#137f8c;}</style></defs><title>ld7_right</title><g id="圖層_2" data-name="圖層 2"><g id="圖層_5" data-name="圖層 5"><path class="cls-1" d="M140.87,133.2l19-13.41,6.87-1.3,11.62-7.81,8.45-7.8,19-.66,16.37-21.46,21.13-15.61,14.79-1.3,10-11.06,13.21-13.66,6.33-2s4.23,2.6,6.34,2.6c1.06,0,20.63-5.44,20.63-5.44L328.9,24.17,354.37,1.53,372.75,0l9.7,13.28,24,3.06,13,11.74,5.93,11.24L454.45,48l22,29.11,55.75,22.14v119.3l-89.65,2.67-148.41-6H192.45C188.76,215.26,0,226.75,0,226.75Z"/></g></g></svg>