<svg xmlns="http://www.w3.org/2000/svg" viewBox="0 0 916.92 197.28"><defs><style>.cls-1{fill:#0093a3;fill-rule:evenodd;}</style></defs><title>ld8</title><g id="圖層_2" data-name="圖層 2"><g id="圖層_5" data-name="圖層 5"><path class="cls-1" d="M912.11,104.57l-10.56.34-10.21,8.42L883.17,108,873,114.42s-11.46,11.16-11.72,11.51l-5.62,2.85c0,2,.06,3.93.12,5.91-1.37,1.23-2.24,2.76-3.73,3.91s-3.57,1.93-5.17,3c-1.24,1.32-2.44,2.67-3.66,4l-8.22.27c-1.42,1-2.83,2.34-4.25,3.24s-2.72,1.58-4.19,2.33-3.16,1.2-4.66,1.91c-1.83-.59-3.33-1-5.22-1.6s-3.5-1.65-5.64-2.29-5.14-1.08-7.44-1.68c-.76-1.79-1.43-3.6-2.18-5.38-1.44-1.37-3.43-2.5-4.75-3.92s-2-3.13-3.16-4.61c-.47-1.82-1-3.63-1.46-5.45-1.83-1.26-3.64-2.5-5.5-3.76-2.45-.11-5.39-.3-7.72-.41s-4-.52-6.2-.5-4.45.9-6.76.93-4.81-.4-7.15-.46c-1.35,1.56-2.69,3.16-4,4.74l-8.45-1.77-5.46,2.67q-.75,3.27-1.51,6.54l-7.8.92-2.74,5.49-8.67-.66-4.83,5-8.33-1.23q-2.88-2.42-5.78-4.81c-2.91-.3-5.8-.61-8.72-.89-1.46-1.43-3.23-2.72-4.61-4.18s-2.39-3.06-3.7-4.54c-1.9-.91-3.84-1.84-5.75-2.71-2.06-.38-3.82-.08-5.95-.62s-4.63-1.93-6.84-2.65c-1.82.65-3.87,1-5.62,1.79s-3.18,1.86-4.87,2.68l-6.83.13-4.48,3.06-6,1.51-3.82,2.89c-.23,1.93-.47,3.83-.69,5.78-2.2.17-4.18.89-6.43.92s-4.79-.61-7.09-.73c-1.91-1.11-3.63-2.61-5.57-3.62a56.11,56.11,0,0,0-5.77-2.67c-2.08-.81-4.64-1.16-6.8-1.88-1.23-1.58-2.42-3.19-3.63-4.77l-7.38-1.18q-2-2.22-3.92-4.43l-6.25-2.19-4.28-4.1L570,116.43l-3.31-5.08-7.38-1c-1.62-1.19-3.36-2.24-4.94-3.47s-2.55-3-4.22-4.17a49.76,49.76,0,0,0-5.46-3.13c-1.89-1-4.25-1.61-6.22-2.54-1.34-1.45-2.65-2.93-4-4.39-2.36-.65-4.71-1.32-7.07-1.95l-3.45-4.76c-2.4-.55-4.81-1.12-7.22-1.66L514,78.1c-3,.25-6,.52-8.92.76-2-1-3.68-2.37-5.7-3.31S495.08,74,493.05,73c-2.11.48-4.19.93-6.29,1.39L480.18,73c-2,.34-4,.71-6,1-2.22-.26-4.57-.93-6.76-1.1s-4.19.22-6.34.08c-1.83.64-3.66,1.19-5.5,1.8s-3.69,1.23-5.53,1.86c-2.09-.17-4.19-.07-6.27-.42s-4.17-1-6.26-1.52-4.16-1.18-6.24-1.7c-1.88.52-3.72,1.16-5.61,1.66l-6.16-4.12c-2.12,0-4.23,0-6.34.1-1.72-1.46-3.32-3.38-5-4.77s-3.28-2.45-5.07-3.7-4-2.07-5.87-3.29-3.6-2.74-5.44-4l-7.13-1.36c-1.88-1.28-3.77-2.58-5.68-3.82-2.08-.27-4.08-.46-6.18-.76s-4.32-.69-6.44-1c-1.34,1.18-2.78,2.25-4.11,3.45-2,0-3.91.23-6,.09s-4.36-.59-6.47-.79c-1.73.43-3.45.88-5.16,1.33-2.17-.69-4.06-1.26-6.3-2s-4.85-1.36-7.19-2c-1.27-2.1-2.52-4.18-3.85-6.24-2.39-.68-5.42-.88-7.69-1.52s-3.81-1.72-5.91-2.47-4.25-1.45-6.33-2.2-4.57-.5-6.6-1.06-3.7-1.87-5.62-2.57-3.51-1.44-5.48-2.1-4.3-1.24-6.33-1.93c-.18-1.88-.38-3.73-.56-5.64C281,21.5,279.82,20,278,19.22a40.79,40.79,0,0,0-6.22-1.93c-2-.44-3.69-.14-5.72-.38s-3.95-.37-6.18-.59-5.09-.42-7.45-.58c-1.31,2.13-2.57,4.25-3.87,6.38-3-.61-6.1-1.15-9.15-1.73-1.69,2-3.39,3.92-5.09,5.88-2.54.46-5.12,1.11-7.6,1.71s-5.09,1.44-7.5,2a64.16,64.16,0,0,1-6.91.91c-2-.81-3.9-2.37-5.93-3a54,54,0,0,0-6.06-1.32,36.56,36.56,0,0,0-6.37-.55c-2.25-.05-5.07.88-7.37.87s-4.44-.47-6.7-.67c-1.53-1.25-3.1-2.42-4.68-3.6L168,22.41c-1.18-1.72-2.27-3.52-3.4-5.28-1.93-.79-4.05-1.29-5.94-2.16s-3.52-2.07-5.35-3c-2.76.42-5.54.92-8.31,1.29-1.83-1-3.57-2.08-5.39-3.17s-3.73-2.21-5.57-3.31c-2.35.17-4.69.38-7,.48l-5.62-5.39-7,3.07c-2.1-1.18-4.21-2.37-6.32-3.53-2.17.09-4.33.62-6.49.62a53.75,53.75,0,0,1-6.46-.25C92.9,1.5,90.62.54,88.41.18c-2,.61-4.09,1.3-6.14,1.91C80,1.7,77.67.78,75.44.5s-4.32.09-6.53,0L62.25,0c-2,.82-3.91,1.67-5.86,2.51L49.8,2.39,43.85,4.53c-2.18,0-4.4-.14-6.58-.1s-4.32.16-6.47.25-4.18.68-6.36.7-4.38,0-6.62-.24-4.63-.93-6.89-1.23C8.89,4.46,6.86,5,4.83,5.6L0,4.78v192.5l916.68-.51.24-87.1Z"/></g></g></svg>