<svg xmlns="http://www.w3.org/2000/svg" viewBox="0 0 814.12 166.51"><defs><style>.cls-1{fill:#148e9b;fill-rule:evenodd;}</style></defs><title>ld_9</title><g id="圖層_2" data-name="圖層 2"><g id="圖層_5" data-name="圖層 5"><path class="cls-1" d="M814.12,61.74l-2.47-.47c-2,.14-3.63.86-5.79.86s-4.87-.71-7.14-.86c-1.56,1.06-3.4,1.93-4.87,3s-2.56,2.53-4,3.71c-2.13.58-4.3,1.14-6.44,1.72l-3.48,4c-1.75.94-3.5,1.89-5.27,2.79q-1.43,1.78-2.86,3.55c.28,1.89.54,3.75.8,5.66-2,.65-3.68,1.69-5.8,2.12s-4.69.39-6.9.76c-2.08-.71-4.08-1.84-6.16-2.44a53.6,53.6,0,0,0-6.13-1.44c-2.18-.37-4.73-.19-7-.41-1.55-1.27-3-2.61-4.59-3.89l-7.49.59-4.88-3.4L717.07,77l-5.16-3c-2.21-.25-4.44-.44-6.66-.65-1.47-1.38-3-2.72-4.48-4.07l-7.64,1c-1.9-.73-3.94-1.17-5.84-1.88S684,66.2,682,65.57a50.67,50.67,0,0,0-6.29-1.41c-2.16-.4-4.71-.31-6.93-.63-1.7-1-3.4-2-5.12-3-2.58.14-5.16.28-7.74.46-1.56-1.11-3.1-2.24-4.64-3.37l-7.84.85c-1.39-1.65-2.8-3.29-4.18-5-2.93,1.16-5.88,2.35-8.81,3.5-2.14-.4-4.11-1.21-6.29-1.51s-4.56-.07-6.78-.31a41,41,0,0,1-5.36,2.41L606,57.22c-1.7.61-3.39,1.24-5.11,1.84-2,.06-4.24-.24-6.15-.09s-3.56.89-5.43.81c-1.33.61-2.68,1.17-4,1.78l-4,1.86a15.18,15.18,0,0,1-4.84-.56c-1.63-.6-3.19-1.5-4.81-2.23s-3.21-1.65-4.82-2.41c-1.32.32-2.59.68-3.87,1.12a51.39,51.39,0,0,1-5.17-4.83c-1.55-.2-3.11-.39-4.67-.61-1.42-1.76-2.86-4-4.28-5.64A54.36,54.36,0,0,0,544.5,44c-1.52-1.45-3.5-2.24-5.14-3.6s-3.28-3-5-4.32c-2-.52-4-1-6.06-1.51l-5.22-4.11c-1.79-.34-3.49-.6-5.29-1-5.53-1.24-3.71-.85-5.53-1.24-1,1.28-2.09,2.54-3.08,3.86a23.65,23.65,0,0,1-4.88-.4c-1.71-.38-3.55-1.08-5.28-1.52-1.34.27-2.67.55-4,.85-1.8-1.07-3.5-1.39-5.4-2.46s-3.73-2.71-6-3.3c-1.26-2.4-2.07-5.22-3.7-7.39-2.38-.39-5.3-.23-7.54-.74s-4-1.21-6.22-1.61-1.1-4.19-3.5-4.58a15.84,15.84,0,0,0-7,.19c-2.31-.12-5.1-5-7.39-5s-4.29,0-6.67.12-5.17.58-7.63.69C433.51,5,433,3.1,432.42,1.19,430.29,1,428.66,0,426.42,0s-7.74,8.2-10.07,8.59-4.24,1.41-6.62,2-4.57,1.28-7.18,2-6,1.73-8.66,2.67c-1.21,2.91-2.37,5.79-3.54,8.69-3.76.79-7.43,1.89-11.14,2.88-1.7,3-3.48,6-5.12,9-3,1.94-6,4.08-8.85,6.19s-6.05,4.68-8.83,6.65-5.27,3.15-8,5c-2.62.51-5.44.31-8,1s-5,1.57-7.56,2.52a77.91,77.91,0,0,0-7.65,3.31c-2.65,1.3-5.75,3.92-8.41,5.27a61.08,61.08,0,0,1-7.76,3c-2.12-.46-4.31-.63-6.46-.89l-8,3.45c-1.92-.91-3.82-1.83-5.74-2.72-2.39.39-4.92,1.12-7.28,1.43a53.7,53.7,0,0,1-6.83,0l-8.25,5.11c-2.22,0-4.36-.07-6.59-.16L253,74.73l-6.88,3.74-7.57-2c-1.8,1.92-3.66,3.78-5.47,5.7-2.46-.08-4.93-.26-7.39-.4-1.93.94-3.77,2.28-5.75,3.07a35.13,35.13,0,0,1-6,1.88c-2.11.45-4.57.22-6.75.55-1.63,1.21-3.23,2.48-4.86,3.68-2.22.31-4.74.15-6.88.56s-3.93,1.39-6,1.93-4.19,1.1-6.3,1.53l-4.55,3.77-6.24,1.53-4.81,3.48c-2.09.56-4.27,1-6.33,1.62s-139.94,55.86-142,56.52-3.74,1.73-5.81,2.32S9.22,165.39,7,165.81s-4.65.25-6.88.6l-.16.1H814.12Z"/></g></g></svg>