<svg xmlns="http://www.w3.org/2000/svg" viewBox="0 0 164.35 39.44"><defs><style>.cls-1{opacity:0.4;}.cls-2{fill:#fefefe;}</style></defs><title>cloud</title><g id="圖層_2" data-name="圖層 2"><g id="cloud"><g class="cls-1"><path class="cls-2" d="M0,36.92A16.35,16.35,0,0,1,14.83,33.3c1.66.43,3.33,1.14,5,.88A12.1,12.1,0,0,0,23,33a16.83,16.83,0,0,1,13.69.19c-.46-4.36,4.87-8.14,8.83-6.26-1.09-2.45,1.05-5.39,3.66-6s5.32.36,7.69,1.61a7.45,7.45,0,0,1,9.18-2,11.8,11.8,0,0,1,21.18-4.74,6.69,6.69,0,0,1,9.47-1.37A16.92,16.92,0,0,1,108.32.75,18.79,18.79,0,0,1,126,4.81a21.24,21.24,0,0,1,6.75,17.05c8.11-2.33,17.55,3.94,18.56,12.32a16.34,16.34,0,0,1,11.24,1.71,3.41,3.41,0,0,1,1.72,1.71c.27.79-.24,1.85-1.07,1.84"/></g></g></g></svg>