<svg xmlns="http://www.w3.org/2000/svg" viewBox="0 0 912.7 285.18"><defs><style>.cls-1{fill:#ca293e;}.cls-2{fill:#d93248;}</style></defs><title>layer4_right</title><g id="圖層_2" data-name="圖層 2"><g id="layer4_right"><path class="cls-1" d="M912.7,16.86l-12.13-1.48L888.82,0,866.55,1.77,835.71,28,818.46,39.79s-23.7,6.3-25,6.3c-2.56,0-7.68-3-7.68-3l-7.67,2.26-16,15.83L750,74l-17.92,1.51L706.47,93.57l-19.83,24.87-23,.75-10.24,9.05-14.08,9L631,138.79l-23,15.54L569.42,181.6l-15.53,19.63L518.52,218.3l-66.78,35.26H0v31.62H911.68V254l1,0Z"/><path class="cls-2" d="M601.7,223.73l19.94-27.08L669.76,207l29.5-28.7,16.82-43.12,15.38-10.71,24-13.65,11-4.62,6.88-25.23,20.63-15.45L845.42,46.1l3.05-15.69,14.16-17.59L888.82,0,866.55,1.77,835.71,28,818.46,39.79s-23.7,6.3-25,6.3c-2.56,0-7.68-3-7.68-3l-7.67,2.26-16,15.83L750,74l-17.92,1.51L706.47,93.57l-19.83,24.87-23,.75-10.24,9.05-14.08,9L631,138.79l-23,15.54L569.42,181.6l-15.53,19.63L518.52,218.3l-66.78,35.26h-8.91l2.66,19.68,60.64-1,44.19-39.33Z"/></g></g></svg>