<svg xmlns="http://www.w3.org/2000/svg" viewBox="0 0 918.14 265.86"><defs><style>.cls-1{fill:#ff8a59;}.cls-2{fill:#f77f4d;}.cls-3{fill:#ff9c66;}.cls-4{fill:#ffaa7d;}</style></defs><title>layer7</title><g id="圖層_2" data-name="圖層 2"><g id="layer7"><polygon class="cls-1" points="822.77 99.79 822.77 59.67 731.15 29.83 686.78 43.47 677.42 52.06 647.45 56.56 618.68 66.8 591.67 64.44 581.63 53.96 569.89 46.05 560.78 51.49 548.1 70.64 521.21 60.4 482.98 36.72 468.1 21.62 424.85 0 406.52 5.64 362.4 33.34 305.7 63.36 293.48 55.44 277.71 54.73 265.68 49.32 236.55 60.76 211.36 59.64 189.18 48.91 161.69 23.86 149.97 18.95 130.5 23.41 127.24 27.84 118.16 35.48 99.28 32.86 85.16 44.37 66.06 44.6 63.06 65.32 63.06 99.79 0 99.79 0 265.86 918.14 265.86 918.14 99.79 822.77 99.79 822.77 99.79"/><polygon class="cls-2" points="362.4 33.34 305.7 63.36 313.09 71.76 323.26 77.45 322.25 65.54 338.31 75.41 354.91 60.73 356.34 51.19 367.93 47.58 380.44 34.56 389.89 26.64 396.12 17.73 410.31 15.41 424.85 0 406.52 5.64 362.4 33.34"/><polygon class="cls-3" points="460.56 54.07 468.25 75.1 483.59 77.2 503.85 86.98 507.24 99.9 523.08 93.11 542.82 78.64 548.1 70.64 521.21 60.4 482.98 36.72 468.1 21.62 424.85 0 426.67 9.69 421.15 14.64 427.93 20.71 430.68 31.06 460.56 54.07"/><path class="cls-4" d="M484.62,44.43l29.44,13s17.7,14.43,23.15,14.33c3.44-.06,7.59,0,10.17,0l.72-1.1L521.21,60.4,483,36.72,468.1,21.62,424.85,0l38.48,23.19Z"/><polygon class="cls-2" points="548.1 70.64 537.55 79.15 525.29 88.65 518.31 92.19 510.45 97.54 481.36 117.62 523.25 96.52 535.85 84.94 554.57 75.41 558.65 63.01 560.7 57.28 564.1 56 564.1 52.77 569.89 46.05 560.78 51.49 548.1 70.64"/><line class="cls-3" x1="569.89" y1="46.05" x2="573.72" y2="57.28"/><polygon class="cls-3" points="571.8 60.34 580.36 66.22 583.93 74.39 596.95 75.41 602.06 70.81 612.02 71.32 618.68 66.8 591.67 64.44 581.63 53.96 569.89 46.05 569.89 49.11 569.04 51.66 573.72 57.28 571.8 60.34"/><polygon class="cls-3" points="274.24 58.39 276.23 63.49 283.24 60.43 289.24 61.45 292.44 65.54 300.22 65.54 305.7 63.36 293.48 55.44 277.71 54.73 265.68 49.32 267.93 54.3 274.24 58.39"/><line class="cls-3" x1="149.96" y1="18.96" x2="151.68" y2="25.29"/><polygon class="cls-3" points="161.69 23.86 149.97 18.95 148.36 22.12 151.68 25.29 147.76 28.77 151 32.85 154.35 40.26 151.68 47.07 158.19 49.32 157.93 63.66 177.84 76.3 183.84 85.37 201.59 78.34 197.24 61.96 210.33 61.51 211.36 59.64 189.18 48.91 161.69 23.86"/><line class="cls-3" x1="731.15" y1="29.83" x2="738.06" y2="37.66"/><path class="cls-3" d="M734.6,41.31c-1,1.08,13,10.7,13,10.7l1,10.32-5.48,3.6,9.13,5.1,17.89,10.85s-2.89,6.8-1.81,7.49,26.29,3.76,26.29,3.76l28.56,16,30.34-3.53s.25-2.17.67-5.78H822.77V59.67L731.15,29.83l6.91,7.83S735.57,40.24,734.6,41.31Z"/><polygon class="cls-2" points="594.73 80.52 608.11 80.52 621.97 71.76 632.19 65.2 645.2 63.08 652.27 60.73 666.54 60.56 675.63 63.01 693.61 56.33 695.41 47.98 706.21 44.69 718.08 42.2 715.05 39.64 731.15 29.83 686.78 43.47 677.42 52.06 647.45 56.56 618.68 66.8 609.62 75.41 594.73 80.52"/><polygon class="cls-2" points="130.5 23.41 127.24 27.84 118.16 35.48 99.28 32.86 85.16 44.37 95.25 39.92 101.38 35.83 109.04 37.62 116.21 37.62 123.16 38.73 123.16 36.09 126.37 31.49 132.65 26.64 133.42 25.29 137.89 24.47 140.72 23.19 149.97 18.95 130.5 23.41"/></g></g></svg>