<svg xmlns="http://www.w3.org/2000/svg" viewBox="0 0 111.99 261.98"><defs><style>.cls-1{fill:#530031;}.cls-2{fill:#6e0041;}.cls-3{fill:#3b0023;}.cls-4{fill:#47002a;}.cls-5{fill:#450028;}.cls-6{fill:#995e83;}</style></defs><title>layer2_house</title><g id="圖層_2" data-name="圖層 2"><g id="layer2_house"><g id="cliff"><polygon class="cls-1" points="12.61 35.99 45.74 41.71 45.74 44.21 12.61 38.49 12.61 35.99"/><path class="cls-2" d="M94.54,29.11,34.8,38.49l-3.4,8.93a116.43,116.43,0,0,0-12.18,6c-4.39,2.73-5,2.5-5,2.5L15,61.34,5.35,63.46,0,70.51,6.66,85,32,90.69a13.8,13.8,0,0,0,2.16,4c1.36,1.59,3.4,3.64,3.4,3.64l8.4,1.36,8.85,18.38-4.24,22-8.63,17.25-2.19,54.4H95.23Z"/><path class="cls-2" d="M42.58,209.13l3.58-3.62,4.76-3.44H47.41c-.53,0-3.15-32.24-3.15-32.24l2.46-13.76-4.83,1.21-2.08,53.41,2.22-.55Z"/><path class="cls-1" d="M41.89,157.28,6.92,262,112,262V88.54l-5.9,3.22-8-6.13-3.54,1L67,83.45,56.14,75.88l-32.63-3-3.18-1.51L0,70.51,6.66,85,32,90.69a13.8,13.8,0,0,0,2.16,4c1.36,1.59,3.4,3.64,3.4,3.64l8.4,1.36,8.85,18.38-4.24,22Z"/><polygon class="cls-2" points="111.99 261.98 111.99 88.54 106.09 91.76 111.63 111.63 97.07 167.15 105.71 186.56 103.39 198.82 110.7 241.33 92.32 261.97 111.99 261.98"/><polygon class="cls-1" points="14.98 61.34 28.58 60.28 30.92 57.33 40.45 55.67 41.06 54.15 14.25 55.97 14.98 61.34"/><polygon class="cls-1" points="31.4 47.42 37.88 45.75 39.62 43.39 44.01 42.27 44.84 40.23 34.8 38.49 31.4 47.42"/></g><polygon class="cls-2" points="40.09 30.04 73.22 35.76 73.22 38.25 40.09 32.53 40.09 30.04"/><rect class="cls-1" x="13.9" y="42.48" width="14.97" height="1.82" transform="translate(-26.44 36.17) rotate(-55.18)"/><polygon class="cls-2" points="94.54 17.15 12.61 35.99 45.74 41.71 94.54 30.49 94.54 17.15"/><polygon class="cls-3" points="72.62 21.1 68.03 21.97 67.98 34.32 72.5 32.95 72.62 21.1"/><polygon class="cls-3" points="72.62 21.1 73.22 21.22 73.1 33.07 72.5 32.95 72.62 21.1"/><polygon class="cls-4" points="48.36 18.58 48.36 40.62 68.58 34.45 68.63 22.09 73.22 21.22 73.1 33.07 77.52 31.72 77.77 13 48.36 18.58"/><polygon class="cls-3" points="78.73 11.93 48.36 17.48 48.36 20.7 78.73 14.55 78.73 11.93"/><polygon class="cls-2" points="47.88 0 20 5.58 48.36 17.48 78.73 11.93 47.88 0"/><polygon class="cls-1" points="48.36 18.58 21.99 7.19 21.99 35.99 48.36 40.62 48.36 18.58"/><polygon class="cls-5" points="48.36 20.7 20 8.8 20 7.19 20 5.58 48.36 17.48 48.36 20.7"/><polygon class="cls-6" points="34.02 30.04 27.82 29.11 27.82 22.9 34.02 23.83 34.02 30.04"/><rect class="cls-1" x="16.21" y="37.24" width="1.82" height="18.73"/><path class="cls-2" d="M112,7.22c-2.19,1.4-5,3.31-5.32,4-.52,1.19-6.64,5.48-6.64,5.48l-5.49.42V86.58l3.54-1,8,6.13,5.9-3.22Z"/></g></g></svg>