<?xml version="1.0" encoding="utf-8"?>
<!-- Generator: Adobe Illustrator 23.0.5, SVG Export Plug-In . SVG Version: 6.00 Build 0)  -->
<svg version="1.1" id="圖層_1" xmlns="http://www.w3.org/2000/svg" xmlns:xlink="http://www.w3.org/1999/xlink" x="0px" y="0px"
	 viewBox="0 0 128 128" style="enable-background:new 0 0 128 128;" xml:space="preserve">
<style type="text/css">
	.st0{fill:#FFFFFF;}
</style>
<path class="st0" d="M118.2,64c5.2-6.3,8.4-14.2,8.4-23c0-19.9-16.2-36-36.1-36H48c10.4,7,19,16,24.8,26h17.7
	c5.6,0,10.1,4.5,10.1,10S96,51,90.5,51H80c0.8,5,1.3,8.6,1.3,13.1c0,4.4-0.4,8.9-1.2,12.9h10.4c5.6,0,10.1,4.9,10.1,10.5
	S96,98,90.5,98H72.9c-1.3,2-2.8,4.7-4.4,7c-5.4,7.6-12.3,14-20.3,19h42.2c19.3,0,35.2-15.7,36-34.9c0,0.3,0,0.4-0.1,0.7
	c0.1-0.8,0.1-1.8,0.1-2.7C126.5,78.4,123.4,70.2,118.2,64L118.2,64z"/>
<path class="st0" d="M61,97.5l0-0.2c0.1-0.1,0.1-0.3,0.2-0.4c0.1-0.1,0.2-0.3,0.2-0.4c0,0,0,0,0,0c6.1-9.3,9.7-20.4,9.7-32.4
	C71.2,31.5,44.6,5,12,5H1v26h11c18.3,0,33.2,14.8,33.2,33.1c0,5-1.1,9.7-3.1,13.9c0,0,0,0.4,0,0.4C36.8,89.8,25.3,98,12,98H1v26h11
	C32.4,124,50.4,113.3,61,97.5z"/>
</svg>
