<svg xmlns="http://www.w3.org/2000/svg" viewBox="0 0 912.7 285.18"><defs><style>.cls-1{fill:#225c8d;}</style></defs><title>layer4_right</title><g id="圖層_2" data-name="圖層 2"><g id="layer4_right"><path class="cls-1" d="M912.7,16.86l-12.13-1.48L888.82,0,866.55,1.77,835.71,28,818.46,39.79s-23.7,6.3-25,6.3c-2.56,0-7.68-3-7.68-3l-7.67,2.26-16,15.83L750,74l-17.92,1.51L706.47,93.57l-19.83,24.87-23,.75-10.24,9.05-14.08,9L631,138.79l-23,15.54L451.74,253.56H0v31.62H911.68V254l1,0ZM595.84,253.56c40.32-2.31,72.92-4.15,74.59-4.15H793.55l108,4.15Z"/></g></g></svg>