<?xml version="1.0" encoding="utf-8"?>
<!-- Generator: Adobe Illustrator 23.0.5, SVG Export Plug-In . SVG Version: 6.00 Build 0)  -->
<svg version="1.1" id="圖層_1" xmlns="http://www.w3.org/2000/svg" xmlns:xlink="http://www.w3.org/1999/xlink" x="0px" y="0px"
	 viewBox="0 0 128 128" style="enable-background:new 0 0 128 128;" xml:space="preserve">
<style type="text/css">
	.st0{fill:#FFFFFF;}
</style>
<path class="st0" d="M117.5,33.5l0.3-0.2c-0.6-1.1-1.5-2.1-2.4-2.6L67.1,2.9c-0.8-0.5-1.9-0.7-3.1-0.7c-1.2,0-2.3,0.3-3.1,0.7
	l-48,27.9c-1.7,1-2.9,3.5-2.9,5.4v55.7c0,1.1,0.2,2.3,0.9,3.4l-0.2,0.1c0.5,0.8,1.2,1.5,1.9,1.9l48.2,27.9c0.8,0.5,1.9,0.7,3.1,0.7
	s2.3-0.3,3.1-0.7l48-27.9c1.7-1,2.9-3.5,2.9-5.4V36.1C118,35.3,117.9,34.4,117.5,33.5z M64,88.5c9.1,0,17.1-5,21.3-12.4l12.9,7.6
	c-6.8,11.8-19.6,19.8-34.2,19.8c-21.8,0-39.5-17.7-39.5-39.5S42.2,24.5,64,24.5c14.7,0,27.5,8.1,34.3,20l-13,7.5
	C81.1,44.5,73.1,39.5,64,39.5c-13.5,0-24.5,11-24.5,24.5S50.5,88.5,64,88.5z"/>
</svg>
