<svg xmlns="http://www.w3.org/2000/svg" viewBox="0 0 917.02 247.51"><defs><style>.cls-1{fill:#2e7ab0;}</style></defs><title>layer6</title><g id="圖層_2" data-name="圖層 2"><g id="layer6"><path class="cls-1" d="M811.77,109.94,776.89,74.47c-4.64-3.66-61.24-52-66.16-55.87C699.65,9.89,702.85-.14,686.94,4.09,683.57.54,681.13-.62,676.21.3c-2.94,1-2.72,4.26-2.53,6.38-8.57-.27-6.34,6.62-11.53,9.32-3.72,1.94-10.09-.79-15.51,3.15-1.19,10.48-9.43,7.49-14.56,10.58-5,3-9,10.54-15.44,13.42C616.3,55.31,606.44,49,600.39,53c-2.69,1.79-4.57,6.93-7.19,8.27-2.8,1.44-6.86,1.17-9.43,2.23-11.43,4.72-19.8,19.3-35,13.65-3.4-8.16-15.8-1.18-22.42-4.25C515.7,68,516,63.41,503,65.13c-5.69-5.26-7.31-9.78-14.67-13.3-5-2.38-14.11,3.45-18.44-7.17-8.52-2.17-18.14,4.55-24.32,10.57-3.48,3.41-3.89,7-8.1,10.16-5.32,4-10.2,2.21-13.28,8.78-8.81.39-12.43,11.36-18.36,16.38-6.17,5.23-12.84,8.3-19,14.22q-2.81,2.7-5.67,5.17H0V247.51H917V109.94Z"/></g></g></svg>