<svg xmlns="http://www.w3.org/2000/svg" viewBox="0 0 917.02 245.15"><defs><style>.cls-1{fill:#ff6d40;}.cls-2{fill:#ff7d4a;}.cls-3{fill:#f2683c;fill-rule:evenodd;}</style></defs><title>layer6</title><g id="圖層_2" data-name="圖層 2"><g id="layer6"><polygon class="cls-1" points="811.77 107.57 776.89 72.11 710.74 16.24 689.07 2.48 682.04 0 673.68 4.31 662.15 13.64 646.64 16.79 632.08 27.37 616.64 40.79 600.39 50.63 593.2 58.9 583.77 61.13 548.73 74.78 526.3 70.53 503.02 62.77 487.69 51.05 469.91 42.3 445.59 52.87 437.49 63.03 424.21 71.81 405.85 88.19 386.88 102.4 381.21 107.57 0 107.57 0 245.15 917.02 245.15 917.02 107.57 811.77 107.57 811.77 107.57"/><path class="cls-2" d="M479.54,59.8l2.67,10.47,11.22,5.36,8.18,4.79,5.53,2L501,100.66s25.28-20.25,26.13-20.24c1.53,0,21.58-5.64,21.58-5.64L526.3,70.53,503,62.77,487.7,51.05l-17.79-8.76v8.76Z"/><polygon class="cls-2" points="693.7 25.59 689.79 33.36 695.36 38.03 703.63 41.63 692.3 48.75 686.8 59.06 706.11 66.44 726.54 85.85 721.44 100.14 726.04 114.44 741.96 115.47 775.54 121.84 760.73 135.88 802.16 133.85 854.84 122.22 917.02 117.76 917.02 107.57 811.77 107.57 776.89 72.11 710.74 16.24 689.07 2.48 682.04 0 686.25 19.87 693.7 25.59"/><path class="cls-3" d="M662.15,13.64l-15.51,3.15L632.08,27.37,616.64,40.79l-16.25,9.84L593.2,58.9l-9.43,2.23-35,13.65-13.8-2.62-7.78,8.26L504.25,96.57l-8.07,13.79,11.21-11.74,15.76-7.2,15.5-10.21s16.32-4,22.42-5.58,12.8-3.57,15.35-4.15,18.87-7,18.87-7L606,54.7l10.75-1.07,7.16-8.8,3.55-8.26,9.27-6.09,5.15-4.89L648.82,24l.6-5.78h14.26l8.69-9.08L682,0l-8.36,4.31Z"/><line class="cls-1" x1="469.91" y1="42.29" x2="479.54" y2="59.8"/></g></g></svg>