<svg xmlns="http://www.w3.org/2000/svg" viewBox="0 0 912.97 278.77"><defs><style>.cls-1{fill:#ca293e;}.cls-2{fill:#d93248;}</style></defs><title>layer4_left</title><g id="圖層_2" data-name="圖層 2"><g id="layer4_left"><polygon class="cls-1" points="359.89 207.92 258.7 121.89 242 121.89 223.66 107.27 214.86 109.06 209.86 101.68 202.36 101.68 146.19 57.67 130.14 57.15 127.44 48.28 111.7 43.9 110.61 35.65 93.3 26.82 91.52 19.37 83.84 18.47 62.2 0 43.37 4.2 30.57 12.44 22.6 12.44 11.34 23.07 5.21 22.88 0 26.11 0 207.92 0 255.49 0 278.77 912.97 278.77 912.97 207.92 359.89 207.92"/><path class="cls-2" d="M86.85,37.48,84,43.69l-4.42,9.19s7.15,3.23,8.71,5.79S95.5,74.4,95.5,74.4L97,88.28l20.47,25.6,39.26,13-13.13,11.74,18.27,8.19L191.71,153s20,8,22.26,7.43,12.25,10.5,12.25,10.5v15l37.37,8.52,27-4.62,30.55,19.39,38.74-1.27-101.2-86H242l-18.34-14.62-8.8,1.79-5-7.38h-7.5l-56.17-44-16.05-.52-2.7-8.87L111.7,43.9l-1.09-8.25L93.3,26.82l-1.78-7.45-7.68-.9L62.2,0l-.44,4.88L80.31,23.6Z"/></g></g></svg>