<svg xmlns="http://www.w3.org/2000/svg" viewBox="0 0 918.14 253.23"><defs><style>.cls-1{fill:#418cbd;}</style></defs><title>layer7</title><g id="圖層_2" data-name="圖層 2"><g id="layer7"><path class="cls-1" d="M822.77,87.16V47a16.81,16.81,0,0,0-7.16-3.37c-18.15-4.2-38.36,1.73-51.54-18.94-9.84-3.58-16.75-4.12-27.37-5.83-.32-1.41-3.16-2.08-5.55-1.7-12,2.48-19,6-29.75,10.27-5.32,2.09-9.42.62-14.62,3.37-3.12,1.66-6.74,6.37-9.36,8.6-13.33,11.31-13,3.63-30,4.5-10.53.53-19.7,7.32-28.77,10.23-11.87,3.81-18.07,2.58-27-2.36C585.58,48.45,575.33,38.05,568,38c-9.77-.1-17.71,9-27.3,9-8.42,0-22-4.53-26.9-10.24-11.34-2.39-14.41-16.41-25.55-20.92-13.62-5.53-24.39-2.36-37.12-3.64-12.41-1.25-20.78-9.74-32.6-12-5.94-1.15-25.79,5-30.34,11C378.53,3,352.77,32.74,342.9,40.6c-8,6.39-15.74,16.8-26.64,17-12.4.21-13.4-10.68-22.78-14.77-4-1.72-11.3,0-15.77-.71-5.94-1-5.72-5.38-12-5.41,1.29,0-14.43,5.44-15.35,5.75-4.22,1.41-9,3.7-13.78,5.7-10.78,4.53-16.13,4.33-25.19-1.13-6.52-3.93-14.65-14.1-22.18-10.73-4.63-13-20.92-13.31-27.49-25A46.75,46.75,0,0,1,150,6.33c-7.59,2.15-13.35,9.84-19.46,4.46-2.27,1.65-1.87,2.21-3.26,4.43-5.88,2.59-5.87,1.33-9.08,7.64-5.67-5-12.47-6.94-18.88-2.63-4,7.72-9.89,3-14.13,11.52-6.8-1.3-14.33-4.45-19.09.22l-3,20.73V87.16H0V253.23H918.14V87.16Z"/></g></g></svg>