<svg xmlns="http://www.w3.org/2000/svg" viewBox="0 0 918.81 243.23"><defs><style>.cls-1{fill:#ff5b3d;}.cls-1,.cls-2,.cls-3,.cls-4{fill-rule:evenodd;}.cls-2{fill:#f2563a;}.cls-3{fill:#ff7547;}.cls-4{fill:#ff9573;}</style></defs><title>layer5</title><g id="圖層_2" data-name="圖層 2"><g id="layer5"><polygon class="cls-1" points="918.81 167.14 899.39 187.1 899.65 194.67 886.54 209.09 877.86 209.82 864.09 219.89 844.68 213.7 826.76 185.37 797.36 185.08 793.06 191.04 784.14 188.9 778.32 192.27 776.65 200.44 768.36 201.66 765.37 208.53 756.18 207.75 750.93 213.94 742.13 212.46 736.14 206.52 726.88 205.36 718.39 194.58 698.97 186.96 664.95 201.04 663.97 208.1 649.55 207.9 630.73 197.29 627.19 191.33 598.34 173.02 595.18 166.72 587.42 165.18 544.18 131.8 533.53 126.63 451.74 107.7 446.03 100.72 439.74 99.38 400.84 66.7 389.06 64.11 362.47 52.07 353.83 43.33 308.62 15.99 300.6 8.23 288.96 0.72 274.97 0 268.72 5.09 259.53 10.75 189.79 55.5 184.22 53.81 176.56 56.27 172.34 50.49 159.96 46.03 151.59 48 139.68 39.67 132.51 39.96 126.28 32.94 119.36 36.4 112.59 31.61 1.26 32.56 0 243.23 918.81 243.23 918.81 167.14 918.81 167.14"/><polygon class="cls-2" points="173.36 61.87 186.54 60.85 197.85 56.7 209.59 57.18 225.21 44.95 230.32 39.67 246.43 36.34 241.79 31.83 250.99 22.71 274.97 0 268.72 5.09 259.53 10.75 189.79 55.5 184.22 53.81 176.56 56.27 172.34 50.49 159.96 46.03 165.18 52.58 173.36 61.87"/><path class="cls-3" d="M309.26,39.67l9.1,29.18L308.48,86l36.83,14.57,22.09,18.27-2.3,8.31,22.2,15.57,37.55,6.54,45,21.13,29.3-2s34.51,5.11,40.63,7,50.57,37.19,50.57,37.19l38.23,9.18L664,208.1l-14.42-.2-18.82-10.61-3.54-6L598.34,173l-3.16-6.3-7.76-1.54L544.18,131.8l-10.65-5.17L451.74,107.7l-5.71-7-6.29-1.34L400.84,66.7l-11.78-2.59-26.59-12-8.64-8.74L308.62,16l-8-7.77L289,.72,275,0l19.57,15.57Z"/><path class="cls-4" d="M627.19,191.33,598.34,173l-3.16-6.3-7.76-1.54L544.18,131.8l-10.65-5.17L451.74,107.7l-5.71-7-6.29-1.34L400.84,66.7l-11.78-2.59-26.59-12-8.64-8.74L308.62,16l-8-7.77L289,.72,284.12.47l12.12,12.07L323,29.43l22.88,13.16,11.87,11.52L346.46,58.5s18.13.29,19.79,0,23.18,10.35,23.18,10.35L403.68,73l24.38,23,10.33,8.19-9.87,2.5,13.21,2.06s22.72,8.69,24.24,8.69,14.78-.51,14.78-.51,23,7.75,25,7.95,29,7,29,7l-3.4,5.49,14.84,2,27.46,21.05,28.7,24.92L619.1,192,637,205.27l3.16-2.68-9.41-5.3Z"/></g></g></svg>