<svg xmlns="http://www.w3.org/2000/svg" viewBox="0 0 918.88 243.38"><defs><style>.cls-1{fill:#27689b;fill-rule:evenodd;}</style></defs><title>layer5</title><g id="圖層_2" data-name="圖層 2"><g id="layer5"><path class="cls-1" d="M918.88,167.29q-.74.66-1.5,1.44c-3.79,3.9-8.24,10.22-12,14.68-2,1.35-3.92,2.55-5.88,3.84.08,2.52.14,5.05.25,7.57-1.42,1.64-2.31,3.55-3.89,5.08s-3.7,2.62-5.39,4.06c-1.3,1.75-2.55,3.52-3.82,5.28-2.9.25-5.79.46-8.69.73-1.48,1.33-2.93,3.06-4.43,4.29a46.92,46.92,0,0,1-4.42,3.19c-1.55,1-3.32,1.65-4.92,2.59-1.95-.66-3.56-1.06-5.58-1.77s-3.73-1.88-6-2.58-5.38-1.16-7.81-1.85c-.8-2.2-1.5-4.42-2.3-6.61-1.55-1.65-3.56-3-5-4.74s-2.11-3.78-3.36-5.6c-.48-2.26-1-4.51-1.49-6.76-1.93-1.54-3.84-3.08-5.79-4.62-2.58-.12-5.62-.31-8.1-.42s-4.24-.6-6.63-.54-4.67,1.11-7.14,1.18-5.05-.43-7.53-.5c-1.45,2-2.87,4-4.31,6l-8.91-2.14-5.82,3.37c-.56,2.73-1.11,5.45-1.68,8.17l-8.28,1.22-3,6.87c-3.07-.27-6.13-.53-9.2-.78L751,214.09q-4.41-.72-8.8-1.48l-6-5.94q-4.63-.55-9.25-1.16c-1.51-1.76-3.3-3.37-4.73-5.17s-2.44-3.77-3.77-5.61c-2-1.14-4-2.3-6-3.4-2.21-.5-4.06-.19-6.34-.91s-4.79-2.36-7.09-3.31c-2,.74-4.11,1.2-6,2.09s-3.47,2.19-5.3,3.17c-2.41,0-4.82,0-7.23,0l-4.9,3.64-6.4,1.7L665,201.19c-.34,2.35-.68,4.7-1,7.06-2.37.18-4.48.94-6.92.9s-5-.84-7.5-1.1c-2-1.45-3.7-3.27-5.72-4.59a51.06,51.06,0,0,0-6-3.48c-2.19-1.06-4.81-1.6-7.09-2.54-1.2-2-2.36-4-3.54-6l-7.79-1.7-3.87-5.54-6.51-2.9-4.28-5.16-6.4-3q-1.59-3.15-3.16-6.3l-7.76-1.54c-1.64-1.52-3.39-2.84-5-4.43s-2.49-3.68-4.2-5.2a45.49,45.49,0,0,0-5.57-4c-2-1.28-4.34-2.16-6.39-3.35-1.32-1.81-2.6-3.65-3.9-5.47-2.45-.9-4.9-1.79-7.34-2.71-1.1-1.95-2.22-3.91-3.31-5.87l-7.54-2.33c-.82-2.51-1.63-5-2.44-7.54-3.17.17-6.35.36-9.52.51-2-1.32-3.72-3-5.8-4.26s-4.38-2.2-6.38-3.62c-2.21.34-4.4.64-6.6,1l-6.65-2.59c-2.1.18-4.2.39-6.31.55-2.26-.62-4.58-1.69-6.83-2.16s-4.35-.31-6.57-.71c-1.86.54-3.78,1-5.68,1.36s-3.77.78-5.65,1.19a63.23,63.23,0,0,1-6.25-1.77,55.53,55.53,0,0,1-6.06-3.26c-2-1.12-4-2.46-6-3.61-1.9.27-3.78.63-5.69.86-1.94-2.29-3.82-4.64-5.71-7-2.08-.53-4.16-1-6.29-1.34-1.61-2.33-3.08-5.14-4.69-7.37s-3.13-4-4.86-6-3.86-3.62-5.67-5.64-3.44-4.34-5.22-6.42c-2.4-1-4.82-2-7.25-3-1.88-2-3.75-4-5.65-6-2.15-.71-4.21-1.31-6.38-2s-4.42-1.62-6.6-2.39c-1.41,1.27-2.94,2.39-4.35,3.65-2.1-.49-4-.53-6.16-1.15s-4.39-1.78-6.53-2.53c-1.79.18-3.57.39-5.34.6C369,59.77,367,58.46,364.78,57s-4.9-2.62-7.27-3.91c-1.17-3.23-2.34-6.44-3.61-9.64-2.44-1.35-5.47-2.27-7.83-3.59s-3.95-3.11-6.1-4.54-4.37-2.88-6.51-4.24-4.64-1.55-6.81-2.75-3.77-3.24-5.75-4.61-3.6-2.7-5.67-3.95-4.49-2.29-6.54-3.66c-.07-2.59-.3-5.17-.45-7.76-1.81-1.47-3-3.44-5-4.75A20.89,20.89,0,0,0,296.6.87c-2.29-.53-4.09-.07-6.39-.25S285.81.35,283.3.2A51.68,51.68,0,0,0,275,.15c-1.65,3.49-3.22,7-4.81,10.51a83.69,83.69,0,0,0-10.62.24c-2.15,3.63-4.2,7.33-6.27,11a79.65,79.65,0,0,0-9.11,6.74c-2.95,2.48-6.26,5.62-9.06,8.08a67.16,67.16,0,0,1-8.23,5.89c-2.4.14-4.65-.49-7.09,0s-4.6,1.31-7.11,2a37,37,0,0,0-7.29,3c-2.52,1.34-5.54,4-8.11,5.36s-4.87,1.73-7.47,2.69c-1.85-.59-3.73-1.11-5.58-1.69a47.16,47.16,0,0,1-7.66,2.46c-1.45-1.89-2.82-3.85-4.21-5.78-2.17-.53-4.34-.68-6.49-1.34s-3.94-2-5.89-3.12c-2.8.64-5.58,1.32-8.37,2a70.63,70.63,0,0,1-5.9-4c-2-1.41-4.05-2.86-6-4.3-2.39.13-4.77.27-7.16.29-2.09-2.33-4.15-4.69-6.23-7l-6.93,3.45c-2.27-1.57-4.51-3.19-6.76-4.78-2.24,0-4.36.48-6.62.34a42.74,42.74,0,0,1-6.69-.77c-2.29-.5-4.62-1.76-6.92-2.4-2.11.61-4.18,1.3-6.29,1.91-2.34-.67-4.73-1.87-7.07-2.37s-4.5-.21-6.81-.47-4.57-.57-6.88-.85c-2,.92-4,1.89-6,2.85l-6.81-.31c-2,.82-4.08,1.64-6.12,2.49-2.25,0-4.54-.19-6.78-.14s-4.44.21-6.67.36-4.29.82-6.55.87A54,54,0,0,1,19.65,33c-2.32-.24-4.74-1.06-7.07-1.43-2.11.67-4.18,1.4-6.27,2.09l-5-1C1.44,103-.38,173.15.07,243.38H918.88Z"/></g></g></svg>