<?xml version="1.0" encoding="utf-8"?>
<!-- Generator: Adobe Illustrator 23.0.5, SVG Export Plug-In . SVG Version: 6.00 Build 0)  -->
<svg version="1.1" id="圖層_1" xmlns="http://www.w3.org/2000/svg" xmlns:xlink="http://www.w3.org/1999/xlink" x="0px" y="0px"
	 viewBox="0 0 128 128" style="enable-background:new 0 0 128 128;" xml:space="preserve">
<style type="text/css">
	.st0{fill:none;}
	.st1{fill:#FFFFFF;}
</style>
<path class="st0" d="M0,8.9l49.9,0.2L64,33.6L78.5,9.1L128,8.9L64.2,119.1L0,8.9z M127,9.6l-24.4,0L64.1,75.6L25.7,9.6l-24.7,0
	l63.2,107.9L127,9.6z M101.8,9.6L79.1,9.7L64,34.4L49.2,9.7L26.4,9.6L64.2,74L101.8,9.6z M26,9.4l23,0 M26,9.4l23,0"/>
<path class="st1" d="M28,9.4l21.8,0L64,33.1L78.2,9.4l21.8,0L64.1,71.6L28,9.4z"/>
<path class="st1" d="M0.9,9.6L26,9.4l38.2,65.7L102,9.4l25.1,0l-63,108.1L0.9,9.6z"/>
</svg>
